<?xml version="1.0" encoding="utf-8"?>
<!-- Generator: Adobe Illustrator 16.0.0, SVG Export Plug-In . SVG Version: 6.00 Build 0)  -->
<!DOCTYPE svg PUBLIC "-//W3C//DTD SVG 1.1//EN" "http://www.w3.org/Graphics/SVG/1.1/DTD/svg11.dtd">
<svg version="1.1" id="Layer_1" xmlns="http://www.w3.org/2000/svg" xmlns:xlink="http://www.w3.org/1999/xlink" x="0px" y="0px"
	 width="2560px" height="1440px" viewBox="0 0 2560 1440" enable-background="new 0 0 2560 1440" xml:space="preserve">
<rect x="-12" y="-6" width="2583" height="1520"/>
<g opacity="0.6">
	<g id="_xD83D__xDC34__1_">
		<path fill="none" stroke="#FFFFFF" stroke-width="24" stroke-linecap="round" stroke-linejoin="round" stroke-miterlimit="10" d="
			M2360.413,974.201"/>
		<path fill="none" stroke="#FFFFFF" stroke-width="24" stroke-linecap="round" stroke-linejoin="round" stroke-miterlimit="10" d="
			M2266.607,720.922"/>
		<path fill="none" stroke="#FFFFFF" stroke-width="24" stroke-linecap="round" stroke-linejoin="round" stroke-miterlimit="10" d="
			M1860.112,785.025c0,0,132.895,106.315,0,293.927"/>
		<path fill="none" stroke="#FFFFFF" stroke-width="24" stroke-linecap="round" stroke-linejoin="round" stroke-miterlimit="10" d="
			M1902.326,613.043c7.816,131.331-145.4,151.654-187.612,161.035c-4.692,1.564-9.383,4.692-14.071,7.819l-32.832,34.396
			c-4.691,4.691-12.507,7.818-20.324,7.818h-54.723c-18.763,0-35.962-12.507-42.215-29.706l-7.816-25.016
			c-4.693-12.506-3.129-25.014,4.689-35.96l137.583-228.265l73.481-73.48l-32.833-107.88c0,0,121.948-10.945,131.329,82.864
			c0,0,318.44-15.558,356.956,351.66c15.146,144.405,17.688,237.759,80.226,320.622"/>
		<path fill="none" stroke="#FFFFFF" stroke-width="24" stroke-linecap="round" stroke-linejoin="round" stroke-miterlimit="10" d="
			M2149.35,661.511"/>
		<path fill="none" stroke="#FFFFFF" stroke-width="24" stroke-linecap="round" stroke-linejoin="round" stroke-miterlimit="10" d="
			M1836.662,348.822"/>
		<path fill="none" stroke="#FFFFFF" stroke-width="24" stroke-linecap="round" stroke-linejoin="round" stroke-miterlimit="10" d="
			M2229.087,1050.81"/>
		<path fill="none" stroke="#FFFFFF" stroke-width="24" stroke-linecap="round" stroke-linejoin="round" stroke-miterlimit="10" d="
			M2133.716,491.094"/>
		<circle fill="#FFFFFF" cx="1735.037" cy="581.776" r="31.27"/>
	</g>
	<path fill="none" stroke="#FFFFFF" stroke-width="23" stroke-linecap="round" stroke-linejoin="round" stroke-miterlimit="10" d="
		M1867.529,406.63c0,0,488.142-28.034,426.635,537.555"/>
	<path fill="none" stroke="#FFFFFF" stroke-width="23" stroke-linecap="round" stroke-linejoin="round" stroke-miterlimit="10" d="
		M1860.112,1078.952c0,0,223.416-74.598,356.504-11.754"/>
</g>
</svg>
