<?xml version="1.0" encoding="utf-8"?>
<!-- Generator: Adobe Illustrator 16.0.0, SVG Export Plug-In . SVG Version: 6.00 Build 0)  -->
<!DOCTYPE svg PUBLIC "-//W3C//DTD SVG 1.1//EN" "http://www.w3.org/Graphics/SVG/1.1/DTD/svg11.dtd">
<svg version="1.1" id="emoji" xmlns="http://www.w3.org/2000/svg" xmlns:xlink="http://www.w3.org/1999/xlink" x="0px" y="0px"
	 width="841.889px" height="1190.549px" viewBox="0 0 841.889 1190.549" enable-background="new 0 0 841.889 1190.549"
	 xml:space="preserve">
<g id="_xD83D__xDC34__1_">
	<path fill="none" stroke="#000000" stroke-width="24" stroke-linecap="round" stroke-linejoin="round" stroke-miterlimit="10" d="
		M738.99,795.224"/>
	<path fill="none" stroke="#000000" stroke-width="24" stroke-linecap="round" stroke-linejoin="round" stroke-miterlimit="10" d="
		M668.834,605.798"/>
	<path fill="none" stroke="#000000" stroke-width="24" stroke-linecap="round" stroke-linejoin="round" stroke-miterlimit="10" d="
		M364.819,653.74c0,0,99.391,79.513,0,219.826"/>
	<path fill="none" stroke="#000000" stroke-width="24" stroke-linecap="round" stroke-linejoin="round" stroke-miterlimit="10" d="
		M396.39,525.116c5.846,98.222-108.744,113.421-140.314,120.438c-3.509,1.17-7.017,3.508-10.523,5.847l-24.555,25.725
		c-3.509,3.509-9.354,5.848-15.201,5.848H164.87c-14.032,0-26.895-9.354-31.571-22.217l-5.847-18.709
		c-3.509-9.354-2.339-18.708,3.508-26.895l102.897-170.717l54.956-54.956l-24.555-80.682c0,0,91.204-8.186,98.22,61.973
		c0,0,238.16-11.635,266.965,263.004c11.327,108,13.229,177.819,60,239.791"/>
	<path fill="none" stroke="#000000" stroke-width="24" stroke-linecap="round" stroke-linejoin="round" stroke-miterlimit="10" d="
		M581.138,561.365"/>
	<path fill="none" stroke="#000000" stroke-width="24" stroke-linecap="round" stroke-linejoin="round" stroke-miterlimit="10" d="
		M347.28,327.507"/>
	<path fill="none" stroke="#000000" stroke-width="24" stroke-linecap="round" stroke-linejoin="round" stroke-miterlimit="10" d="
		M640.772,852.519"/>
	<path fill="none" stroke="#000000" stroke-width="24" stroke-linecap="round" stroke-linejoin="round" stroke-miterlimit="10" d="
		M569.445,433.911"/>
	<circle cx="271.276" cy="501.732" r="23.386"/>
</g>
<path fill="none" stroke="#000000" stroke-width="23" stroke-linecap="round" stroke-linejoin="round" stroke-miterlimit="10" d="
	M370.366,370.741c0,0,365.077-20.967,319.077,402.033"/>
<path fill="none" stroke="#000000" stroke-width="23" stroke-linecap="round" stroke-linejoin="round" stroke-miterlimit="10" d="
	M364.819,873.566c0,0,167.091-55.791,266.626-8.791"/>
</svg>
