<?xml version="1.0" encoding="utf-8"?>
<!-- Generator: Adobe Illustrator 16.0.0, SVG Export Plug-In . SVG Version: 6.00 Build 0)  -->
<!DOCTYPE svg PUBLIC "-//W3C//DTD SVG 1.1//EN" "http://www.w3.org/Graphics/SVG/1.1/DTD/svg11.dtd">
<svg version="1.1" id="emoji" xmlns="http://www.w3.org/2000/svg" xmlns:xlink="http://www.w3.org/1999/xlink" x="0px" y="0px"
	 width="208.135px" height="208.135px" viewBox="-591.556 -5.334 208.135 208.135"
	 enable-background="new -591.556 -5.334 208.135 208.135" xml:space="preserve">
<rect x="-591.556" y="-5.334" fill="#FFFFFF" width="208.135" height="208.135"/>
<g>
	<path fill="#191A1A" d="M-543.094,102.704c0-0.479-0.198-0.842-0.589-1.092c-0.395-0.25-1.051-0.47-1.961-0.661
		c-0.914-0.193-1.674-0.436-2.286-0.73c-1.338-0.647-2.007-1.584-2.007-2.813c0-1.032,0.43-1.892,1.302-2.583
		c0.869-0.69,1.972-1.039,3.31-1.039c1.429,0,2.583,0.355,3.46,1.058c0.877,0.709,1.317,1.625,1.317,2.751h-2.679
		c0-0.517-0.193-0.945-0.575-1.287c-0.384-0.341-0.891-0.513-1.524-0.513c-0.59,0-1.068,0.135-1.441,0.408
		c-0.373,0.271-0.557,0.636-0.557,1.094c0,0.412,0.174,0.731,0.521,0.959c0.345,0.229,1.043,0.461,2.093,0.689
		c1.057,0.234,1.881,0.509,2.481,0.829s1.043,0.705,1.333,1.152c0.292,0.45,0.438,0.996,0.438,1.633
		c0,1.075-0.446,1.947-1.337,2.612c-0.89,0.667-2.057,0.998-3.499,0.998c-0.979,0-1.852-0.177-2.617-0.528
		c-0.766-0.355-1.359-0.842-1.789-1.459c-0.425-0.617-0.639-1.282-0.639-1.997h2.606c0.035,0.631,0.276,1.122,0.717,1.463
		c0.44,0.34,1.025,0.513,1.755,0.513c0.706,0,1.243-0.135,1.612-0.404C-543.279,103.489-543.094,103.138-543.094,102.704z"/>
	<path fill="#191A1A" d="M-533.069,106.168c-1.698,0-3.076-0.533-4.133-1.604c-1.055-1.071-1.584-2.496-1.584-4.277v-0.332
		c0-1.191,0.23-2.256,0.691-3.193c0.46-0.94,1.104-1.672,1.935-2.192c0.834-0.523,1.758-0.785,2.782-0.785
		c1.627,0,2.882,0.52,3.771,1.559c0.885,1.035,1.329,2.504,1.329,4.401v1.081h-7.804c0.081,0.987,0.41,1.767,0.987,2.341
		c0.58,0.573,1.305,0.86,2.181,0.86c1.227,0,2.229-0.496,3.003-1.489l1.445,1.379c-0.479,0.714-1.116,1.268-1.915,1.66
		C-531.179,105.972-532.075,106.168-533.069,106.168z M-533.389,95.937c-0.735,0-1.328,0.259-1.78,0.775
		c-0.453,0.513-0.742,1.231-0.868,2.15h5.112v-0.199c-0.062-0.896-0.302-1.574-0.721-2.037
		C-532.064,96.167-532.643,95.937-533.389,95.937z"/>
	<path fill="#191A1A" d="M-523.666,94.005l0.083,1.38c0.881-1.067,2.039-1.601,3.474-1.601c2.487,0,3.751,1.425,3.795,4.27v7.894
		h-2.681v-7.736c0-0.757-0.163-1.318-0.493-1.684c-0.325-0.361-0.862-0.546-1.604-0.546c-1.082,0-1.886,0.488-2.418,1.468v8.498
		h-2.681V94.005H-523.666z"/>
	<path fill="#191A1A" d="M-507.022,102.704c0-0.479-0.196-0.842-0.588-1.092c-0.395-0.25-1.048-0.47-1.963-0.661
		c-0.911-0.193-1.672-0.436-2.283-0.73c-1.34-0.647-2.007-1.584-2.007-2.813c0-1.032,0.433-1.892,1.301-2.583
		c0.869-0.69,1.972-1.039,3.312-1.039c1.426,0,2.581,0.355,3.458,1.058c0.882,0.709,1.321,1.625,1.321,2.751h-2.682
		c0-0.517-0.19-0.945-0.574-1.287c-0.383-0.341-0.894-0.513-1.523-0.513c-0.589,0-1.07,0.135-1.439,0.408
		c-0.373,0.271-0.56,0.636-0.56,1.094c0,0.412,0.176,0.731,0.52,0.959c0.347,0.229,1.044,0.461,2.096,0.689
		c1.052,0.234,1.88,0.509,2.48,0.829c0.598,0.32,1.043,0.705,1.334,1.152c0.29,0.45,0.436,0.996,0.436,1.633
		c0,1.075-0.447,1.947-1.336,2.612c-0.893,0.667-2.059,0.998-3.501,0.998c-0.977,0-1.849-0.177-2.614-0.528
		c-0.766-0.355-1.362-0.842-1.787-1.459c-0.425-0.617-0.639-1.282-0.639-1.997h2.604c0.035,0.631,0.275,1.122,0.718,1.463
		c0.44,0.34,1.024,0.513,1.753,0.513c0.708,0,1.244-0.135,1.613-0.404C-507.207,103.489-507.022,103.138-507.022,102.704z"/>
	<path fill="#191A1A" d="M-496.992,106.168c-1.701,0-3.081-0.533-4.136-1.604c-1.054-1.071-1.582-2.496-1.582-4.277v-0.332
		c0-1.191,0.229-2.256,0.688-3.193c0.461-0.94,1.104-1.672,1.937-2.192c0.831-0.523,1.758-0.785,2.782-0.785
		c1.624,0,2.883,0.52,3.769,1.559c0.888,1.035,1.332,2.504,1.332,4.401v1.081h-7.804c0.081,0.987,0.41,1.767,0.987,2.341
		c0.577,0.573,1.304,0.86,2.181,0.86c1.228,0,2.229-0.496,3.002-1.489l1.445,1.379c-0.479,0.714-1.116,1.268-1.915,1.66
		C-495.104,105.972-495.998,106.168-496.992,106.168z M-497.313,95.937c-0.736,0-1.33,0.259-1.783,0.775
		c-0.451,0.513-0.743,1.231-0.867,2.15h5.111v-0.199c-0.06-0.896-0.298-1.574-0.716-2.037
		C-495.987,96.167-496.572,95.937-497.313,95.937z"/>
	<path fill="#191A1A" d="M-484.466,100.198h-5.794v-2.164h5.794V100.198z"/>
	<path fill="#191A1A" d="M-477.01,104.027c0.672,0,1.226-0.195,1.667-0.583c0.44-0.393,0.677-0.874,0.706-1.446h2.529
		c-0.027,0.743-0.261,1.436-0.694,2.081c-0.435,0.645-1.024,1.153-1.764,1.527c-0.746,0.377-1.548,0.563-2.411,0.563
		c-1.67,0-2.994-0.539-3.972-1.623c-0.978-1.079-1.468-2.574-1.468-4.479v-0.279c0-1.815,0.485-3.27,1.457-4.363
		c0.97-1.092,2.295-1.64,3.973-1.64c1.422,0,2.575,0.413,3.472,1.242c0.893,0.829,1.363,1.917,1.407,3.263h-2.529
		c-0.029-0.686-0.263-1.25-0.7-1.69c-0.435-0.44-0.992-0.663-1.673-0.663c-0.867,0-1.537,0.316-2.006,0.943
		c-0.473,0.631-0.711,1.583-0.718,2.865v0.432c0,1.294,0.232,2.259,0.701,2.897C-478.566,103.711-477.891,104.027-477.01,104.027z"
		/>
	<path fill="#191A1A" d="M-467.393,95.309c0.873-1.018,1.982-1.524,3.319-1.524c2.547,0,3.839,1.453,3.876,4.361v7.802h-2.684
		v-7.704c0-0.823-0.175-1.407-0.533-1.748c-0.359-0.342-0.884-0.514-1.574-0.514c-1.075,0-1.878,0.479-2.405,1.435v8.531h-2.685
		V88.999h2.685V95.309z"/>
	<path fill="#191A1A" d="M-452.319,106.168c-1.701,0-3.079-0.533-4.135-1.604c-1.055-1.071-1.583-2.496-1.583-4.277v-0.332
		c0-1.191,0.229-2.256,0.688-3.193c0.463-0.94,1.108-1.672,1.937-2.192c0.833-0.523,1.761-0.785,2.783-0.785
		c1.626,0,2.883,0.52,3.77,1.559c0.886,1.035,1.332,2.504,1.332,4.401v1.081h-7.805c0.08,0.987,0.412,1.767,0.987,2.341
		c0.576,0.573,1.304,0.86,2.18,0.86c1.227,0,2.23-0.496,3.003-1.489l1.445,1.379c-0.48,0.714-1.117,1.268-1.914,1.66
		C-450.429,105.972-451.324,106.168-452.319,106.168z M-452.639,95.937c-0.738,0-1.332,0.259-1.786,0.775
		c-0.449,0.513-0.741,1.231-0.863,2.15h5.108v-0.199c-0.059-0.896-0.294-1.574-0.715-2.037
		C-451.313,96.167-451.896,95.937-452.639,95.937z"/>
	<path fill="#191A1A" d="M-438.892,102.704c0-0.479-0.197-0.842-0.59-1.092c-0.394-0.25-1.046-0.47-1.958-0.661
		c-0.913-0.193-1.675-0.436-2.286-0.73c-1.342-0.647-2.009-1.584-2.009-2.813c0-1.032,0.433-1.892,1.302-2.583
		c0.868-0.69,1.971-1.039,3.313-1.039c1.426,0,2.579,0.355,3.459,1.058c0.88,0.709,1.319,1.625,1.319,2.751h-2.683
		c0-0.517-0.19-0.945-0.572-1.287c-0.383-0.341-0.894-0.513-1.524-0.513c-0.589,0-1.07,0.135-1.44,0.408
		c-0.373,0.271-0.559,0.636-0.559,1.094c0,0.412,0.174,0.731,0.52,0.959c0.344,0.229,1.042,0.461,2.095,0.689
		c1.053,0.234,1.879,0.509,2.479,0.829s1.045,0.705,1.334,1.152c0.29,0.45,0.437,0.996,0.437,1.633c0,1.075-0.446,1.947-1.336,2.612
		c-0.89,0.667-2.056,0.998-3.497,0.998c-0.979,0-1.851-0.177-2.617-0.528c-0.765-0.355-1.364-0.842-1.788-1.459
		c-0.427-0.617-0.64-1.282-0.64-1.997h2.604c0.035,0.631,0.275,1.122,0.72,1.463c0.44,0.34,1.022,0.513,1.751,0.513
		c0.708,0,1.245-0.135,1.613-0.404C-439.076,103.489-438.892,103.138-438.892,102.704z"/>
	<path fill="#191A1A" d="M-427.313,102.704c0-0.479-0.197-0.842-0.591-1.092c-0.393-0.25-1.049-0.47-1.959-0.661
		c-0.914-0.193-1.674-0.436-2.285-0.73c-1.342-0.647-2.009-1.584-2.009-2.813c0-1.032,0.433-1.892,1.303-2.583
		c0.867-0.69,1.972-1.039,3.31-1.039c1.428,0,2.581,0.355,3.461,1.058c0.877,0.709,1.317,1.625,1.317,2.751h-2.682
		c0-0.517-0.19-0.945-0.572-1.287c-0.384-0.341-0.894-0.513-1.524-0.513c-0.589,0-1.068,0.135-1.44,0.408
		c-0.374,0.271-0.557,0.636-0.557,1.094c0,0.412,0.17,0.731,0.52,0.959c0.344,0.229,1.042,0.461,2.095,0.689
		c1.055,0.234,1.88,0.509,2.479,0.829c0.6,0.32,1.045,0.705,1.336,1.152c0.29,0.45,0.436,0.996,0.436,1.633
		c0,1.075-0.445,1.947-1.336,2.612c-0.887,0.667-2.058,0.998-3.499,0.998c-0.979,0-1.852-0.177-2.617-0.528
		c-0.767-0.355-1.363-0.842-1.787-1.459c-0.429-0.617-0.642-1.282-0.642-1.997h2.605c0.037,0.631,0.278,1.122,0.721,1.463
		c0.439,0.34,1.024,0.513,1.752,0.513c0.705,0,1.244-0.135,1.613-0.404C-427.497,103.489-427.313,103.138-427.313,102.704z"/>
</g>
<g>
	<defs>
		<rect id="SVGID_1_" x="-581.15" y="57.855" width="187.287" height="79.453"/>
	</defs>
	<clipPath id="SVGID_2_">
		<use xlink:href="#SVGID_1_"  overflow="visible"/>
	</clipPath>
	<use xlink:href="#SVGID_1_"  overflow="visible" fill="none" stroke="#191A1A" stroke-width="3" stroke-miterlimit="10"/>
</g>
</svg>
