<?xml version="1.0" encoding="utf-8"?>
<!-- Generator: Adobe Illustrator 16.0.0, SVG Export Plug-In . SVG Version: 6.00 Build 0)  -->
<!DOCTYPE svg PUBLIC "-//W3C//DTD SVG 1.1//EN" "http://www.w3.org/Graphics/SVG/1.1/DTD/svg11.dtd">
<svg version="1.1" id="emoji" xmlns="http://www.w3.org/2000/svg" xmlns:xlink="http://www.w3.org/1999/xlink" x="0px" y="0px"
	 width="209.136px" height="90.026px" viewBox="-593.056 112.774 209.136 90.026"
	 enable-background="new -593.056 112.774 209.136 90.026" xml:space="preserve">
<g>
	<path fill="#FFFFFF" d="M-543.754,162.878c0-0.477-0.196-0.837-0.586-1.086c-0.393-0.249-1.045-0.467-1.95-0.657
		c-0.908-0.192-1.664-0.433-2.272-0.727c-1.33-0.643-1.995-1.574-1.995-2.797c0-1.025,0.428-1.881,1.295-2.568
		c0.863-0.686,1.96-1.032,3.29-1.032c1.42,0,2.568,0.354,3.44,1.052c0.872,0.705,1.31,1.615,1.31,2.735h-2.663
		c0-0.514-0.192-0.939-0.571-1.279c-0.382-0.339-0.886-0.51-1.516-0.51c-0.587,0-1.062,0.135-1.433,0.405
		c-0.371,0.27-0.554,0.633-0.554,1.088c0,0.409,0.173,0.727,0.518,0.953c0.343,0.229,1.037,0.458,2.081,0.686
		c1.051,0.232,1.87,0.506,2.467,0.824s1.037,0.7,1.326,1.146c0.289,0.447,0.436,0.99,0.436,1.624c0,1.068-0.443,1.936-1.329,2.597
		c-0.885,0.663-2.045,0.992-3.479,0.992c-0.974,0-1.841-0.177-2.602-0.525c-0.762-0.353-1.352-0.837-1.778-1.45
		c-0.423-0.613-0.635-1.274-0.635-1.985h2.591c0.035,0.628,0.274,1.115,0.713,1.455c0.438,0.338,1.02,0.51,1.745,0.51
		c0.702,0,1.235-0.135,1.603-0.401C-543.938,163.659-543.754,163.31-543.754,162.878z"/>
	<path fill="#FFFFFF" d="M-533.786,166.323c-1.688,0-3.059-0.53-4.109-1.596c-1.05-1.064-1.575-2.481-1.575-4.252v-0.33
		c0-1.185,0.229-2.243,0.688-3.175c0.457-0.935,1.097-1.663,1.924-2.18c0.83-0.521,1.748-0.78,2.766-0.78
		c1.618,0,2.865,0.517,3.75,1.55c0.88,1.029,1.321,2.489,1.321,4.376v1.075h-7.759c0.08,0.981,0.407,1.757,0.981,2.327
		c0.576,0.57,1.298,0.855,2.168,0.855c1.22,0,2.217-0.493,2.985-1.48l1.437,1.371c-0.476,0.71-1.109,1.261-1.903,1.65
		C-531.907,166.128-532.798,166.323-533.786,166.323z M-534.104,156.15c-0.731,0-1.321,0.258-1.771,0.771
		c-0.45,0.51-0.737,1.225-0.862,2.138h5.082v-0.197c-0.061-0.892-0.3-1.565-0.716-2.025
		C-532.788,156.38-533.363,156.15-534.104,156.15z"/>
	<path fill="#FFFFFF" d="M-524.438,154.23l0.082,1.372c0.876-1.061,2.027-1.592,3.454-1.592c2.473,0,3.729,1.417,3.773,4.245v7.848
		h-2.665v-7.691c0-0.753-0.162-1.311-0.49-1.674c-0.323-0.359-0.857-0.543-1.595-0.543c-1.075,0-1.875,0.485-2.404,1.46v8.448
		h-2.665V154.23H-524.438z"/>
	<path fill="#FFFFFF" d="M-507.891,162.878c0-0.477-0.195-0.837-0.585-1.086c-0.393-0.249-1.042-0.467-1.952-0.657
		c-0.905-0.192-1.662-0.433-2.27-0.727c-1.332-0.643-1.996-1.574-1.996-2.797c0-1.025,0.431-1.881,1.294-2.568
		c0.864-0.686,1.961-1.032,3.293-1.032c1.418,0,2.565,0.354,3.438,1.052c0.877,0.705,1.313,1.615,1.313,2.735h-2.666
		c0-0.514-0.189-0.939-0.57-1.279c-0.381-0.339-0.889-0.51-1.515-0.51c-0.586,0-1.064,0.135-1.431,0.405
		c-0.371,0.27-0.557,0.633-0.557,1.088c0,0.409,0.175,0.727,0.517,0.953c0.345,0.229,1.038,0.458,2.084,0.686
		c1.046,0.232,1.869,0.506,2.466,0.824c0.595,0.318,1.037,0.7,1.326,1.146c0.288,0.447,0.434,0.99,0.434,1.624
		c0,1.068-0.444,1.936-1.328,2.597c-0.888,0.663-2.047,0.992-3.48,0.992c-0.972,0-1.838-0.177-2.6-0.525
		c-0.761-0.353-1.354-0.837-1.776-1.45s-0.636-1.274-0.636-1.985h2.589c0.035,0.628,0.273,1.115,0.714,1.455
		c0.438,0.338,1.019,0.51,1.743,0.51c0.703,0,1.236-0.135,1.604-0.401C-508.074,163.659-507.891,163.31-507.891,162.878z"/>
	<path fill="#FFFFFF" d="M-497.919,166.323c-1.69,0-3.063-0.53-4.111-1.596c-1.048-1.064-1.573-2.481-1.573-4.252v-0.33
		c0-1.185,0.229-2.243,0.685-3.175c0.458-0.935,1.098-1.663,1.926-2.18c0.826-0.521,1.748-0.78,2.766-0.78
		c1.614,0,2.866,0.517,3.747,1.55c0.883,1.029,1.324,2.489,1.324,4.376v1.075h-7.759c0.08,0.981,0.407,1.757,0.981,2.327
		s1.297,0.855,2.168,0.855c1.221,0,2.217-0.493,2.984-1.48l1.437,1.371c-0.476,0.71-1.109,1.261-1.903,1.65
		C-496.042,166.128-496.931,166.323-497.919,166.323z M-498.238,156.15c-0.731,0-1.322,0.258-1.772,0.771
		c-0.448,0.51-0.738,1.225-0.861,2.138h5.081v-0.197c-0.06-0.892-0.297-1.565-0.712-2.025
		C-496.92,156.38-497.501,156.15-498.238,156.15z"/>
	<path fill="#FFFFFF" d="M-485.466,160.388h-5.761v-2.151h5.761V160.388z"/>
	<path fill="#FFFFFF" d="M-478.052,164.194c0.668,0,1.218-0.194,1.657-0.58c0.438-0.39,0.673-0.869,0.701-1.438h2.515
		c-0.027,0.738-0.26,1.428-0.69,2.068c-0.433,0.641-1.019,1.146-1.754,1.518c-0.741,0.375-1.539,0.561-2.396,0.561
		c-1.66,0-2.977-0.536-3.949-1.613c-0.973-1.073-1.459-2.56-1.459-4.453v-0.277c0-1.805,0.482-3.251,1.448-4.338
		c0.965-1.086,2.282-1.631,3.95-1.631c1.414,0,2.561,0.411,3.452,1.235c0.888,0.823,1.355,1.905,1.398,3.244h-2.515
		c-0.028-0.682-0.262-1.242-0.695-1.681c-0.433-0.438-0.987-0.659-1.663-0.659c-0.862,0-1.528,0.314-1.995,0.938
		c-0.471,0.628-0.707,1.574-0.714,2.849v0.43c0,1.286,0.23,2.246,0.697,2.88C-479.6,163.88-478.929,164.194-478.052,164.194z"/>
	<path fill="#FFFFFF" d="M-468.491,155.526c0.868-1.012,1.972-1.516,3.301-1.516c2.532,0,3.816,1.444,3.854,4.336v7.757h-2.669
		v-7.659c0-0.818-0.174-1.399-0.529-1.738c-0.356-0.34-0.879-0.511-1.564-0.511c-1.069,0-1.867,0.476-2.392,1.427v8.481h-2.669
		v-16.852h2.669V155.526z"/>
	<path fill="#FFFFFF" d="M-453.505,166.323c-1.69,0-3.061-0.53-4.11-1.596c-1.049-1.064-1.574-2.481-1.574-4.252v-0.33
		c0-1.185,0.229-2.243,0.685-3.175c0.46-0.935,1.102-1.663,1.926-2.18c0.828-0.521,1.751-0.78,2.767-0.78
		c1.617,0,2.866,0.517,3.748,1.55c0.881,1.029,1.324,2.489,1.324,4.376v1.075h-7.76c0.079,0.981,0.409,1.757,0.981,2.327
		c0.573,0.57,1.297,0.855,2.168,0.855c1.22,0,2.217-0.493,2.985-1.48l1.437,1.371c-0.478,0.71-1.11,1.261-1.903,1.65
		C-451.626,166.128-452.516,166.323-453.505,166.323z M-453.822,156.15c-0.734,0-1.324,0.258-1.775,0.771
		c-0.446,0.51-0.736,1.225-0.858,2.138h5.079v-0.197c-0.059-0.892-0.293-1.565-0.711-2.025
		C-452.504,156.38-453.084,156.15-453.822,156.15z"/>
	<path fill="#FFFFFF" d="M-440.154,162.878c0-0.477-0.196-0.837-0.587-1.086c-0.392-0.249-1.04-0.467-1.946-0.657
		c-0.907-0.192-1.665-0.433-2.272-0.727c-1.334-0.643-1.997-1.574-1.997-2.797c0-1.025,0.431-1.881,1.295-2.568
		c0.863-0.686,1.96-1.032,3.294-1.032c1.418,0,2.563,0.354,3.438,1.052c0.875,0.705,1.312,1.615,1.312,2.735h-2.667
		c0-0.514-0.188-0.939-0.568-1.279c-0.381-0.339-0.889-0.51-1.515-0.51c-0.586,0-1.064,0.135-1.432,0.405
		c-0.37,0.27-0.556,0.633-0.556,1.088c0,0.409,0.173,0.727,0.517,0.953c0.342,0.229,1.036,0.458,2.083,0.686
		c1.047,0.232,1.868,0.506,2.465,0.824s1.039,0.7,1.326,1.146c0.288,0.447,0.434,0.99,0.434,1.624c0,1.068-0.443,1.936-1.328,2.597
		c-0.885,0.663-2.044,0.992-3.477,0.992c-0.974,0-1.84-0.177-2.602-0.525c-0.761-0.353-1.356-0.837-1.777-1.45
		c-0.425-0.613-0.636-1.274-0.636-1.985h2.589c0.034,0.628,0.273,1.115,0.716,1.455c0.438,0.338,1.017,0.51,1.741,0.51
		c0.703,0,1.237-0.135,1.604-0.401C-440.338,163.659-440.154,163.31-440.154,162.878z"/>
	<path fill="#FFFFFF" d="M-428.644,162.878c0-0.477-0.195-0.837-0.587-1.086c-0.391-0.249-1.043-0.467-1.948-0.657
		c-0.908-0.192-1.664-0.433-2.271-0.727c-1.334-0.643-1.997-1.574-1.997-2.797c0-1.025,0.43-1.881,1.295-2.568
		c0.862-0.686,1.961-1.032,3.291-1.032c1.42,0,2.565,0.354,3.441,1.052c0.872,0.705,1.31,1.615,1.31,2.735h-2.666
		c0-0.514-0.189-0.939-0.569-1.279c-0.382-0.339-0.889-0.51-1.516-0.51c-0.586,0-1.063,0.135-1.432,0.405
		c-0.371,0.27-0.554,0.633-0.554,1.088c0,0.409,0.169,0.727,0.517,0.953c0.343,0.229,1.036,0.458,2.083,0.686
		c1.049,0.232,1.869,0.506,2.464,0.824c0.597,0.318,1.039,0.7,1.328,1.146c0.288,0.447,0.434,0.99,0.434,1.624
		c0,1.068-0.442,1.936-1.328,2.597c-0.882,0.663-2.046,0.992-3.479,0.992c-0.973,0-1.841-0.177-2.602-0.525
		c-0.762-0.353-1.354-0.837-1.776-1.45c-0.426-0.613-0.638-1.274-0.638-1.985h2.59c0.036,0.628,0.276,1.115,0.717,1.455
		c0.437,0.338,1.019,0.51,1.742,0.51c0.7,0,1.236-0.135,1.604-0.401C-428.826,163.659-428.644,163.31-428.644,162.878z"/>
</g>
<g>
	<defs>
		<rect id="SVGID_1_" x="-581.589" y="118.291" width="186.202" height="78.993"/>
	</defs>
	<clipPath id="SVGID_2_">
		<use xlink:href="#SVGID_1_"  overflow="visible"/>
	</clipPath>
	<use xlink:href="#SVGID_1_"  overflow="visible" fill="none" stroke="#FFFDFD" stroke-width="3" stroke-miterlimit="10"/>
</g>
</svg>
