<?xml version="1.0" encoding="utf-8"?>
<!-- Generator: Adobe Illustrator 16.0.0, SVG Export Plug-In . SVG Version: 6.00 Build 0)  -->
<!DOCTYPE svg PUBLIC "-//W3C//DTD SVG 1.1//EN" "http://www.w3.org/Graphics/SVG/1.1/DTD/svg11.dtd">
<svg version="1.1" id="emoji" xmlns="http://www.w3.org/2000/svg" xmlns:xlink="http://www.w3.org/1999/xlink" x="0px" y="0px"
	 width="226px" height="101.5px" viewBox="-602.056 107.274 226 101.5" enable-background="new -602.056 107.274 226 101.5"
	 xml:space="preserve">
<g>
	<path fill="#0D1115" d="M-550.536,163.688c0-0.529-0.219-0.932-0.653-1.208c-0.436-0.277-1.158-0.521-2.167-0.732
		c-1.01-0.212-1.852-0.48-2.527-0.807c-1.48-0.716-2.221-1.753-2.221-3.112c0-1.14,0.479-2.092,1.439-2.856
		c0.961-0.765,2.182-1.147,3.662-1.147c1.579,0,2.855,0.391,3.827,1.172c0.973,0.781,1.459,1.794,1.459,3.04h-2.966
		c0-0.57-0.213-1.044-0.635-1.423c-0.424-0.378-0.985-0.567-1.686-0.567c-0.65,0-1.182,0.15-1.593,0.451
		c-0.411,0.302-0.616,0.704-0.616,1.209c0,0.456,0.191,0.81,0.574,1.063c0.382,0.252,1.154,0.506,2.318,0.763
		c1.164,0.256,2.078,0.562,2.741,0.915c0.663,0.354,1.155,0.779,1.477,1.275c0.321,0.497,0.482,1.1,0.482,1.807
		c0,1.188-0.493,2.151-1.478,2.888s-2.274,1.104-3.869,1.104c-1.082,0-2.047-0.195-2.893-0.586
		c-0.848-0.391-1.506-0.928-1.979-1.611c-0.472-0.684-0.707-1.42-0.707-2.209h2.881c0.04,0.699,0.305,1.238,0.793,1.617
		c0.488,0.378,1.135,0.567,1.941,0.567c0.781,0,1.375-0.148,1.781-0.445C-550.74,164.558-550.536,164.169-550.536,163.688z"/>
	<path fill="#0D1115" d="M-539.446,167.521c-1.879,0-3.403-0.592-4.571-1.776c-1.167-1.184-1.751-2.761-1.751-4.729v-0.367
		c0-1.318,0.254-2.496,0.763-3.533c0.509-1.038,1.222-1.846,2.142-2.424c0.92-0.577,1.945-0.866,3.076-0.866
		c1.799,0,3.188,0.573,4.169,1.722c0.981,1.146,1.472,2.771,1.472,4.87v1.196h-8.631c0.09,1.091,0.453,1.953,1.093,2.588
		c0.639,0.635,1.442,0.952,2.411,0.952c1.358,0,2.465-0.55,3.32-1.647l1.599,1.525c-0.529,0.789-1.235,1.402-2.118,1.837
		C-537.356,167.304-538.347,167.521-539.446,167.521z M-539.8,156.205c-0.814,0-1.471,0.285-1.972,0.855
		c-0.5,0.569-0.819,1.362-0.958,2.38h5.652v-0.22c-0.066-0.993-0.33-1.743-0.794-2.252S-538.978,156.205-539.8,156.205z"/>
	<path fill="#0D1115" d="M-529.044,154.069l0.086,1.526c0.977-1.181,2.258-1.771,3.845-1.771c2.751,0,4.15,1.575,4.199,4.724v8.729
		h-2.966v-8.557c0-0.839-0.182-1.459-0.544-1.862c-0.362-0.402-0.954-0.604-1.776-0.604c-1.195,0-2.087,0.542-2.673,1.624v9.399
		h-2.966v-13.208H-529.044z"/>
	<path fill="#0D1115" d="M-510.64,163.688c0-0.529-0.218-0.932-0.652-1.208c-0.436-0.277-1.158-0.521-2.168-0.732
		c-1.009-0.212-1.852-0.48-2.526-0.807c-1.481-0.716-2.222-1.753-2.222-3.112c0-1.14,0.48-2.092,1.44-2.856s2.181-1.147,3.662-1.147
		c1.579,0,2.854,0.391,3.827,1.172s1.459,1.794,1.459,3.04h-2.967c0-0.57-0.212-1.044-0.635-1.423
		c-0.424-0.378-0.984-0.567-1.685-0.567c-0.651,0-1.183,0.15-1.593,0.451c-0.411,0.302-0.617,0.704-0.617,1.209
		c0,0.456,0.191,0.81,0.574,1.063c0.383,0.252,1.155,0.506,2.319,0.763c1.163,0.256,2.077,0.562,2.741,0.915
		c0.662,0.354,1.154,0.779,1.477,1.275c0.321,0.497,0.482,1.1,0.482,1.807c0,1.188-0.493,2.151-1.478,2.888
		c-0.985,0.736-2.274,1.104-3.87,1.104c-1.082,0-2.047-0.195-2.893-0.586c-0.847-0.391-1.506-0.928-1.978-1.611
		s-0.708-1.42-0.708-2.209h2.881c0.041,0.699,0.305,1.238,0.793,1.617c0.488,0.378,1.136,0.567,1.941,0.567
		c0.781,0,1.375-0.148,1.782-0.445S-510.64,164.169-510.64,163.688z"/>
	<path fill="#0D1115" d="M-499.548,167.521c-1.881,0-3.404-0.592-4.572-1.776c-1.168-1.184-1.752-2.761-1.752-4.729v-0.367
		c0-1.318,0.255-2.496,0.764-3.533c0.508-1.038,1.223-1.846,2.143-2.424c0.919-0.577,1.944-0.866,3.076-0.866
		c1.798,0,3.188,0.573,4.168,1.722c0.98,1.146,1.471,2.771,1.471,4.87v1.196h-8.63c0.089,1.091,0.454,1.953,1.093,2.588
		s1.441,0.952,2.41,0.952c1.359,0,2.467-0.55,3.32-1.647l1.6,1.525c-0.529,0.789-1.234,1.402-2.118,1.837
		C-497.459,167.304-498.45,167.521-499.548,167.521z M-499.902,156.205c-0.813,0-1.471,0.285-1.972,0.855
		c-0.5,0.569-0.82,1.362-0.958,2.38h5.651v-0.22c-0.064-0.993-0.329-1.743-0.793-2.252S-499.081,156.205-499.902,156.205z"/>
	<path fill="#0D1115" d="M-485.694,160.918h-6.408v-2.393h6.408V160.918z"/>
	<path fill="#0D1115" d="M-477.445,165.153c0.74,0,1.354-0.216,1.843-0.647c0.488-0.431,0.749-0.964,0.781-1.599h2.796
		c-0.032,0.822-0.289,1.589-0.769,2.301c-0.48,0.713-1.132,1.276-1.953,1.69c-0.822,0.416-1.709,0.623-2.662,0.623
		c-1.848,0-3.313-0.598-4.395-1.795c-1.082-1.195-1.623-2.848-1.623-4.955v-0.306c0-2.01,0.537-3.619,1.611-4.828
		c1.074-1.208,2.539-1.813,4.395-1.813c1.57,0,2.85,0.458,3.84,1.373c0.988,0.916,1.507,2.118,1.556,3.607h-2.796
		c-0.032-0.757-0.291-1.38-0.775-1.868c-0.483-0.488-1.1-0.732-1.849-0.732c-0.96,0-1.701,0.349-2.222,1.044
		c-0.521,0.696-0.785,1.752-0.793,3.168v0.476c0,1.433,0.258,2.501,0.775,3.205C-479.169,164.802-478.422,165.153-477.445,165.153z"
		/>
	<path fill="#0D1115" d="M-466.812,155.51c0.968-1.123,2.192-1.685,3.674-1.685c2.815,0,4.244,1.607,4.285,4.821v8.631h-2.967
		v-8.521c0-0.911-0.197-1.557-0.592-1.935c-0.395-0.379-0.975-0.568-1.74-0.568c-1.188,0-2.074,0.529-2.66,1.588v9.436h-2.967
		v-18.75h2.967V155.51z"/>
	<path fill="#0D1115" d="M-450.14,167.521c-1.88,0-3.404-0.592-4.572-1.776c-1.167-1.184-1.751-2.761-1.751-4.729v-0.367
		c0-1.318,0.255-2.496,0.763-3.533c0.509-1.038,1.223-1.846,2.143-2.424c0.92-0.577,1.945-0.866,3.076-0.866
		c1.799,0,3.188,0.573,4.168,1.722c0.981,1.146,1.472,2.771,1.472,4.87v1.196h-8.63c0.089,1.091,0.453,1.953,1.092,2.588
		s1.442,0.952,2.411,0.952c1.358,0,2.466-0.55,3.32-1.647l1.599,1.525c-0.529,0.789-1.234,1.402-2.117,1.837
		C-448.05,167.304-449.041,167.521-450.14,167.521z M-450.493,156.205c-0.814,0-1.471,0.285-1.973,0.855
		c-0.5,0.569-0.819,1.362-0.957,2.38h5.651v-0.22c-0.065-0.993-0.329-1.743-0.794-2.252
		C-449.028,156.46-449.672,156.205-450.493,156.205z"/>
	<path fill="#0D1115" d="M-435.287,163.688c0-0.529-0.218-0.932-0.653-1.208c-0.436-0.277-1.158-0.521-2.166-0.732
		c-1.01-0.212-1.852-0.48-2.527-0.807c-1.481-0.716-2.222-1.753-2.222-3.112c0-1.14,0.479-2.092,1.44-2.856
		c0.96-0.765,2.181-1.147,3.662-1.147c1.578,0,2.854,0.391,3.826,1.172c0.973,0.781,1.459,1.794,1.459,3.04h-2.966
		c0-0.57-0.212-1.044-0.635-1.423c-0.423-0.378-0.985-0.567-1.685-0.567c-0.651,0-1.182,0.15-1.594,0.451
		c-0.41,0.302-0.615,0.704-0.615,1.209c0,0.456,0.19,0.81,0.573,1.063c0.382,0.252,1.155,0.506,2.319,0.763
		c1.164,0.256,2.077,0.562,2.74,0.915c0.664,0.354,1.156,0.779,1.477,1.275c0.322,0.497,0.482,1.1,0.482,1.807
		c0,1.188-0.492,2.151-1.477,2.888s-2.275,1.104-3.869,1.104c-1.083,0-2.047-0.195-2.894-0.586s-1.506-0.928-1.978-1.611
		c-0.473-0.684-0.708-1.42-0.708-2.209h2.881c0.04,0.699,0.306,1.238,0.794,1.617c0.488,0.378,1.135,0.567,1.94,0.567
		c0.781,0,1.375-0.148,1.782-0.445C-435.491,164.558-435.287,164.169-435.287,163.688z"/>
	<path fill="#0D1115" d="M-422.484,163.688c0-0.529-0.218-0.932-0.653-1.208c-0.436-0.277-1.158-0.521-2.166-0.732
		c-1.01-0.212-1.852-0.48-2.527-0.807c-1.481-0.716-2.222-1.753-2.222-3.112c0-1.14,0.479-2.092,1.44-2.856
		c0.96-0.765,2.181-1.147,3.662-1.147c1.578,0,2.854,0.391,3.826,1.172c0.973,0.781,1.459,1.794,1.459,3.04h-2.966
		c0-0.57-0.212-1.044-0.635-1.423c-0.423-0.378-0.985-0.567-1.685-0.567c-0.651,0-1.182,0.15-1.594,0.451
		c-0.41,0.302-0.615,0.704-0.615,1.209c0,0.456,0.19,0.81,0.573,1.063c0.382,0.252,1.155,0.506,2.319,0.763
		c1.164,0.256,2.077,0.562,2.74,0.915c0.664,0.354,1.156,0.779,1.477,1.275c0.322,0.497,0.482,1.1,0.482,1.807
		c0,1.188-0.492,2.151-1.477,2.888s-2.275,1.104-3.869,1.104c-1.083,0-2.047-0.195-2.894-0.586s-1.506-0.928-1.978-1.611
		c-0.473-0.684-0.708-1.42-0.708-2.209h2.881c0.04,0.699,0.306,1.238,0.794,1.617c0.488,0.378,1.135,0.567,1.94,0.567
		c0.781,0,1.375-0.148,1.782-0.445C-422.688,164.558-422.484,164.169-422.484,163.688z"/>
</g>
<g>
	<defs>
		<rect id="SVGID_1_" x="-592.624" y="114.087" width="207.136" height="87.874"/>
	</defs>
	<clipPath id="SVGID_2_">
		<use xlink:href="#SVGID_1_"  overflow="visible"/>
	</clipPath>
	<use xlink:href="#SVGID_1_"  overflow="visible" fill="none" stroke="#0D1115" stroke-width="3" stroke-miterlimit="10"/>
</g>
</svg>
