<?xml version="1.0" encoding="utf-8"?>
<!-- Generator: Adobe Illustrator 16.0.0, SVG Export Plug-In . SVG Version: 6.00 Build 0)  -->
<!DOCTYPE svg PUBLIC "-//W3C//DTD SVG 1.1//EN" "http://www.w3.org/Graphics/SVG/1.1/DTD/svg11.dtd">
<svg version="1.1" id="Ebene_1" xmlns="http://www.w3.org/2000/svg" xmlns:xlink="http://www.w3.org/1999/xlink" x="0px" y="0px"
	 width="595.275px" height="841.89px" viewBox="0 0 595.275 841.89" enable-background="new 0 0 595.275 841.89"
	 xml:space="preserve">
<symbol  id="ui_x5F_divider_x5F_dark" viewBox="0 0 320 1">
	<g>
		<defs>
			<polygon id="SVGID_1_" points="320,0 0,0 0,1 320,1 			"/>
		</defs>
		<clipPath id="SVGID_2_">
			<use xlink:href="#SVGID_1_"  overflow="visible"/>
		</clipPath>
		<polygon opacity="0.12" clip-path="url(#SVGID_2_)" points="320,0 0,0 0,1 320,1 		"/>
	</g>
</symbol>
<rect y="348.591" fill="#494848" width="595.275" height="263.006"/>
<rect x="28.827" y="377.323" fill="#FFFFFF" width="206.93" height="206.93"/>
<g>
	<g>
		<path fill="#1A1A1A" d="M32.703,55.708h6.455v1.973h-8.926V43.462h2.471V55.708z"/>
		<path fill="#1A1A1A" d="M51.603,50.942c0,1.393-0.241,2.616-0.723,3.667s-1.171,1.859-2.065,2.422s-1.926,0.845-3.091,0.845
			c-1.152,0-2.179-0.282-3.081-0.845s-1.598-1.366-2.09-2.407s-0.74-2.243-0.747-3.604V50.22c0-1.387,0.245-2.611,0.737-3.672
			s1.186-1.874,2.08-2.437s1.922-0.845,3.081-0.845s2.187,0.278,3.081,0.835s1.587,1.357,2.075,2.402s0.735,2.261,0.742,3.647
			V50.942z M49.132,50.2c0-1.576-0.298-2.783-0.894-3.623s-1.44-1.26-2.534-1.26c-1.067,0-1.903,0.418-2.505,1.255
			s-0.91,2.02-0.923,3.55v0.82c0,1.563,0.304,2.77,0.913,3.623s1.453,1.279,2.534,1.279c1.094,0,1.935-0.417,2.524-1.25
			s0.884-2.051,0.884-3.652V50.2z"/>
		<path fill="#1A1A1A" d="M64.531,55.835c-0.514,0.67-1.227,1.178-2.139,1.523c-0.911,0.345-1.946,0.518-3.105,0.518
			c-1.191,0-2.246-0.27-3.164-0.811S54.498,55.752,54,54.746s-0.758-2.179-0.777-3.521v-1.113c0-2.148,0.515-3.827,1.543-5.034
			c1.029-1.208,2.465-1.812,4.307-1.812c1.582,0,2.839,0.392,3.77,1.177c0.932,0.785,1.491,1.913,1.68,3.384H62.1
			c-0.273-1.712-1.266-2.568-2.979-2.568c-1.106,0-1.947,0.398-2.523,1.195s-0.875,1.966-0.895,3.507v1.093
			c0,1.535,0.324,2.727,0.973,3.576c0.647,0.849,1.547,1.273,2.699,1.273c1.264,0,2.162-0.287,2.695-0.859v-2.783h-2.93v-1.875
			h5.391V55.835z"/>
		<path fill="#1A1A1A" d="M78.108,50.942c0,1.393-0.241,2.616-0.723,3.667s-1.171,1.859-2.065,2.422s-1.926,0.845-3.091,0.845
			c-1.152,0-2.179-0.282-3.081-0.845s-1.598-1.366-2.09-2.407s-0.74-2.243-0.747-3.604V50.22c0-1.387,0.245-2.611,0.737-3.672
			s1.186-1.874,2.08-2.437s1.922-0.845,3.081-0.845s2.187,0.278,3.081,0.835s1.587,1.357,2.075,2.402s0.735,2.261,0.742,3.647
			V50.942z M75.638,50.2c0-1.576-0.298-2.783-0.894-3.623s-1.44-1.26-2.534-1.26c-1.067,0-1.903,0.418-2.505,1.255
			s-0.91,2.02-0.923,3.55v0.82c0,1.563,0.304,2.77,0.913,3.623s1.453,1.279,2.534,1.279c1.094,0,1.935-0.417,2.524-1.25
			s0.884-2.051,0.884-3.652V50.2z"/>
	</g>
</g>
<use xlink:href="#ui_x5F_divider_x5F_dark"  width="320" height="1" y="0" transform="matrix(1.6749 0 0 -1 28.7871 97.6807)" overflow="visible"/>
<g>
	<path fill="#E32386" d="M138.619,166.922h-0.545v-3.612l-1.093,0.401v-0.492l1.553-0.583h0.085V166.922z"/>
	<path fill="#E32386" d="M143.002,166.922h-2.795v-0.39l1.477-1.641c0.219-0.248,0.369-0.45,0.452-0.605s0.125-0.316,0.125-0.482
		c0-0.223-0.067-0.405-0.202-0.548s-0.314-0.214-0.539-0.214c-0.27,0-0.479,0.077-0.628,0.23c-0.15,0.153-0.225,0.367-0.225,0.64
		h-0.542c0-0.393,0.126-0.71,0.38-0.952c0.252-0.242,0.591-0.363,1.015-0.363c0.396,0,0.71,0.104,0.94,0.312
		s0.346,0.485,0.346,0.831c0,0.42-0.268,0.92-0.803,1.5l-1.143,1.239h2.142V166.922z"/>
	<path fill="#E32386" d="M145.627,163.752l0.015,0.352c0.232-0.273,0.546-0.41,0.94-0.41c0.443,0,0.745,0.17,0.905,0.51
		c0.105-0.152,0.242-0.275,0.411-0.369s0.369-0.141,0.6-0.141c0.695,0,1.049,0.368,1.061,1.104v2.124h-0.542v-2.092
		c0-0.227-0.052-0.396-0.155-0.508s-0.277-0.168-0.521-0.168c-0.201,0-0.368,0.06-0.501,0.18s-0.21,0.282-0.231,0.485v2.104h-0.545
		v-2.077c0-0.461-0.226-0.691-0.677-0.691c-0.355,0-0.599,0.151-0.729,0.454v2.314h-0.542v-3.17H145.627z"/>
	<path fill="#E32386" d="M150.886,163.752l0.015,0.352c0.232-0.273,0.546-0.41,0.94-0.41c0.443,0,0.745,0.17,0.905,0.51
		c0.105-0.152,0.242-0.275,0.411-0.369s0.369-0.141,0.6-0.141c0.695,0,1.049,0.368,1.061,1.104v2.124h-0.542v-2.092
		c0-0.227-0.052-0.396-0.155-0.508s-0.277-0.168-0.521-0.168c-0.201,0-0.368,0.06-0.501,0.18s-0.21,0.282-0.231,0.485v2.104h-0.545
		v-2.077c0-0.461-0.226-0.691-0.677-0.691c-0.355,0-0.599,0.151-0.729,0.454v2.314h-0.542v-3.17H150.886z"/>
</g>
<g>
	<path fill="#E32386" d="M160.631,206.505h-0.566v-1.972h-2.15v1.972h-0.563v-4.266h0.563v1.834h2.15v-1.834h0.566V206.505z"/>
	<path fill="#E32386" d="M162.859,206.564c-0.43,0-0.779-0.141-1.049-0.423s-0.404-0.66-0.404-1.132v-0.1
		c0-0.314,0.061-0.595,0.182-0.842c0.119-0.247,0.287-0.44,0.504-0.58c0.215-0.14,0.449-0.209,0.701-0.209
		c0.412,0,0.732,0.136,0.961,0.407s0.342,0.66,0.342,1.166v0.226h-2.146c0.008,0.313,0.098,0.565,0.273,0.757
		c0.174,0.192,0.396,0.289,0.666,0.289c0.191,0,0.354-0.039,0.486-0.117s0.25-0.182,0.35-0.311l0.33,0.258
		C163.789,206.36,163.391,206.564,162.859,206.564z M162.793,203.722c-0.219,0-0.402,0.08-0.551,0.239s-0.24,0.382-0.275,0.669
		h1.588v-0.041c-0.016-0.275-0.09-0.489-0.223-0.64S163.02,203.722,162.793,203.722z"/>
	<path fill="#E32386" d="M166.68,206.505c-0.031-0.063-0.057-0.174-0.076-0.334c-0.252,0.262-0.553,0.393-0.902,0.393
		c-0.313,0-0.568-0.088-0.77-0.265c-0.199-0.177-0.299-0.401-0.299-0.672c0-0.33,0.125-0.586,0.375-0.769
		c0.252-0.183,0.605-0.274,1.061-0.274h0.527v-0.249c0-0.189-0.057-0.34-0.17-0.453s-0.281-0.168-0.502-0.168
		c-0.193,0-0.355,0.049-0.486,0.146s-0.195,0.216-0.195,0.354h-0.545c0-0.158,0.055-0.311,0.168-0.458
		c0.111-0.147,0.264-0.264,0.457-0.35c0.191-0.086,0.404-0.129,0.635-0.129c0.365,0,0.65,0.091,0.857,0.274s0.314,0.434,0.322,0.754
		v1.459c0,0.291,0.037,0.522,0.111,0.694v0.047H166.68z M165.781,206.092c0.17,0,0.33-0.044,0.482-0.132s0.264-0.202,0.332-0.343
		v-0.65h-0.426c-0.664,0-0.996,0.194-0.996,0.583c0,0.17,0.057,0.303,0.17,0.398S165.604,206.092,165.781,206.092z"/>
	<path fill="#E32386" d="M167.855,204.894c0-0.486,0.115-0.877,0.346-1.173s0.531-0.444,0.904-0.444
		c0.371,0,0.666,0.127,0.883,0.381v-1.652h0.541v4.5h-0.498l-0.025-0.34c-0.217,0.266-0.52,0.398-0.906,0.398
		c-0.367,0-0.666-0.15-0.898-0.451c-0.23-0.301-0.346-0.693-0.346-1.178V204.894z M168.396,204.956c0,0.359,0.074,0.641,0.223,0.844
		s0.354,0.305,0.615,0.305c0.344,0,0.596-0.154,0.754-0.463v-1.456c-0.162-0.299-0.412-0.448-0.748-0.448
		c-0.266,0-0.473,0.103-0.621,0.308S168.396,204.553,168.396,204.956z"/>
	<path fill="#E32386" d="M171.959,206.505h-0.541v-4.5h0.541V206.505z"/>
	<path fill="#E32386" d="M172.83,202.495c0-0.088,0.025-0.162,0.08-0.223c0.053-0.061,0.133-0.091,0.238-0.091
		s0.186,0.03,0.24,0.091s0.082,0.135,0.082,0.223s-0.027,0.161-0.082,0.22s-0.135,0.088-0.24,0.088s-0.186-0.029-0.238-0.088
		C172.855,202.656,172.83,202.583,172.83,202.495z M173.416,206.505h-0.543v-3.17h0.543V206.505z"/>
	<path fill="#E32386" d="M174.795,203.335l0.018,0.398c0.242-0.305,0.559-0.457,0.949-0.457c0.67,0,1.008,0.378,1.014,1.134v2.095
		h-0.541v-2.098c-0.002-0.229-0.055-0.397-0.156-0.507c-0.104-0.109-0.264-0.164-0.48-0.164c-0.176,0-0.33,0.047-0.463,0.141
		s-0.236,0.217-0.311,0.369v2.259h-0.541v-3.17H174.795z"/>
	<path fill="#E32386" d="M178.908,206.564c-0.43,0-0.779-0.141-1.049-0.423s-0.404-0.66-0.404-1.132v-0.1
		c0-0.314,0.061-0.595,0.182-0.842c0.119-0.247,0.287-0.44,0.504-0.58c0.215-0.14,0.449-0.209,0.701-0.209
		c0.412,0,0.732,0.136,0.961,0.407s0.342,0.66,0.342,1.166v0.226h-2.146c0.008,0.313,0.098,0.565,0.273,0.757
		c0.174,0.192,0.396,0.289,0.666,0.289c0.191,0,0.354-0.039,0.486-0.117s0.25-0.182,0.35-0.311l0.33,0.258
		C179.838,206.36,179.439,206.564,178.908,206.564z M178.842,203.722c-0.219,0-0.402,0.08-0.551,0.239s-0.24,0.382-0.275,0.669
		h1.588v-0.041c-0.016-0.275-0.09-0.489-0.223-0.64S179.068,203.722,178.842,203.722z"/>
	<path fill="#E32386" d="M182.99,204.109h0.406c0.256-0.004,0.457-0.071,0.604-0.202s0.221-0.308,0.221-0.53
		c0-0.5-0.25-0.75-0.748-0.75c-0.234,0-0.422,0.067-0.561,0.201c-0.141,0.134-0.209,0.311-0.209,0.532h-0.543
		c0-0.338,0.123-0.619,0.371-0.842c0.246-0.224,0.561-0.335,0.941-0.335c0.402,0,0.719,0.106,0.947,0.319s0.342,0.509,0.342,0.888
		c0,0.186-0.059,0.365-0.18,0.539c-0.119,0.174-0.283,0.304-0.49,0.39c0.234,0.074,0.414,0.197,0.543,0.369
		c0.127,0.172,0.191,0.382,0.191,0.63c0,0.383-0.125,0.687-0.375,0.911s-0.574,0.337-0.975,0.337s-0.727-0.108-0.977-0.325
		c-0.252-0.217-0.377-0.503-0.377-0.858h0.545c0,0.225,0.072,0.404,0.219,0.539s0.344,0.202,0.59,0.202
		c0.262,0,0.461-0.068,0.6-0.205s0.209-0.333,0.209-0.589c0-0.248-0.076-0.438-0.229-0.571s-0.373-0.201-0.66-0.205h-0.406V204.109z
		"/>
	<path fill="#E32386" d="M188.24,204.915h-1.43v-0.442h1.43V204.915z"/>
	<path fill="#E32386" d="M192.992,206.505h-2.795v-0.39l1.477-1.641c0.219-0.248,0.369-0.45,0.451-0.605
		c0.084-0.155,0.125-0.316,0.125-0.482c0-0.223-0.066-0.405-0.201-0.548s-0.314-0.214-0.539-0.214c-0.27,0-0.48,0.077-0.629,0.23
		c-0.15,0.153-0.225,0.367-0.225,0.64h-0.541c0-0.393,0.125-0.71,0.379-0.952c0.252-0.242,0.592-0.363,1.016-0.363
		c0.396,0,0.709,0.104,0.939,0.312s0.346,0.485,0.346,0.831c0,0.42-0.268,0.92-0.803,1.5l-1.143,1.239h2.143V206.505z"/>
	<path fill="#E32386" d="M193.814,204.367l0.217-2.127h2.186v0.501h-1.725l-0.129,1.163c0.209-0.123,0.445-0.185,0.711-0.185
		c0.389,0,0.697,0.128,0.926,0.385s0.344,0.604,0.344,1.042c0,0.439-0.119,0.786-0.357,1.039c-0.236,0.253-0.568,0.379-0.994,0.379
		c-0.377,0-0.684-0.104-0.922-0.313s-0.375-0.498-0.408-0.867h0.514c0.033,0.244,0.119,0.428,0.26,0.552s0.326,0.186,0.557,0.186
		c0.252,0,0.449-0.086,0.594-0.258c0.143-0.172,0.215-0.409,0.215-0.712c0-0.285-0.078-0.514-0.232-0.687
		c-0.156-0.173-0.361-0.259-0.619-0.259c-0.236,0-0.422,0.052-0.557,0.155l-0.145,0.117L193.814,204.367z"/>
	<path fill="#E32386" d="M199.668,204.956c0,0.482-0.109,0.871-0.33,1.166s-0.52,0.442-0.896,0.442
		c-0.385,0-0.688-0.122-0.908-0.366v1.526h-0.543v-4.389h0.496l0.025,0.352c0.221-0.273,0.527-0.41,0.92-0.41
		c0.381,0,0.682,0.144,0.904,0.431c0.221,0.287,0.332,0.687,0.332,1.198V204.956z M199.127,204.894c0-0.357-0.076-0.64-0.229-0.847
		s-0.361-0.311-0.627-0.311c-0.328,0-0.574,0.146-0.738,0.437v1.515c0.162,0.289,0.41,0.434,0.744,0.434
		c0.26,0,0.465-0.103,0.619-0.309C199.049,205.606,199.127,205.3,199.127,204.894z"/>
	<path fill="#E32386" d="M201.092,202.568v0.768h0.592v0.419h-0.592v1.968c0,0.127,0.027,0.223,0.08,0.286s0.143,0.095,0.27,0.095
		c0.063,0,0.148-0.012,0.258-0.035v0.437c-0.143,0.039-0.281,0.058-0.416,0.058c-0.242,0-0.426-0.073-0.549-0.22
		s-0.184-0.354-0.184-0.624v-1.966h-0.578v-0.419h0.578v-0.768H201.092z"/>
</g>
<g>
	<path fill="#E32386" d="M200.135,229.306h-1.002v1.726h-0.566v-4.266h1.412c0.48,0,0.85,0.109,1.109,0.328
		c0.258,0.219,0.389,0.537,0.389,0.955c0,0.266-0.072,0.497-0.217,0.694c-0.143,0.197-0.342,0.345-0.598,0.442l1.002,1.811v0.035
		h-0.604L200.135,229.306z M199.133,228.846h0.863c0.279,0,0.502-0.072,0.666-0.217c0.166-0.145,0.248-0.338,0.248-0.581
		c0-0.264-0.078-0.467-0.236-0.607c-0.156-0.141-0.383-0.212-0.68-0.214h-0.861V228.846z"/>
	<path fill="#E32386" d="M204.137,231.031c-0.031-0.063-0.057-0.174-0.076-0.334c-0.252,0.262-0.553,0.393-0.902,0.393
		c-0.313,0-0.57-0.088-0.77-0.265c-0.201-0.177-0.301-0.401-0.301-0.672c0-0.33,0.125-0.586,0.377-0.769
		c0.25-0.183,0.604-0.274,1.059-0.274h0.527v-0.249c0-0.189-0.057-0.34-0.17-0.453s-0.279-0.168-0.5-0.168
		c-0.193,0-0.355,0.049-0.486,0.146s-0.197,0.216-0.197,0.354h-0.545c0-0.158,0.057-0.311,0.17-0.458
		c0.111-0.147,0.264-0.264,0.457-0.35c0.191-0.086,0.402-0.129,0.633-0.129c0.365,0,0.652,0.091,0.859,0.274
		s0.314,0.434,0.322,0.754v1.459c0,0.291,0.037,0.522,0.111,0.694v0.047H204.137z M203.236,230.618c0.17,0,0.332-0.044,0.484-0.132
		s0.262-0.202,0.33-0.343v-0.65h-0.424c-0.664,0-0.996,0.194-0.996,0.583c0,0.17,0.057,0.303,0.17,0.398
		S203.059,230.618,203.236,230.618z"/>
	<path fill="#E32386" d="M205.984,228.245c0.24-0.295,0.553-0.442,0.938-0.442c0.67,0,1.008,0.378,1.014,1.134v2.095h-0.541v-2.098
		c-0.002-0.229-0.055-0.397-0.156-0.507c-0.104-0.109-0.264-0.164-0.48-0.164c-0.176,0-0.33,0.047-0.463,0.141
		s-0.236,0.217-0.311,0.369v2.259h-0.541v-4.5h0.541V228.245z"/>
	<path fill="#E32386" d="M209.258,227.861l0.014,0.352c0.232-0.273,0.547-0.41,0.941-0.41c0.443,0,0.744,0.17,0.904,0.51
		c0.105-0.152,0.242-0.275,0.412-0.369c0.168-0.094,0.369-0.141,0.6-0.141c0.695,0,1.049,0.368,1.061,1.104v2.124h-0.543v-2.092
		c0-0.227-0.051-0.396-0.154-0.508s-0.277-0.168-0.521-0.168c-0.201,0-0.369,0.06-0.502,0.18s-0.209,0.282-0.23,0.485v2.104h-0.545
		v-2.077c0-0.461-0.227-0.691-0.678-0.691c-0.355,0-0.598,0.151-0.729,0.454v2.314h-0.543v-3.17H209.258z"/>
	<path fill="#E32386" d="M215.322,231.09c-0.43,0-0.779-0.141-1.049-0.423s-0.404-0.66-0.404-1.132v-0.1
		c0-0.314,0.059-0.595,0.18-0.842c0.119-0.247,0.287-0.44,0.504-0.58c0.215-0.14,0.449-0.209,0.701-0.209
		c0.412,0,0.732,0.136,0.961,0.407s0.344,0.66,0.344,1.166v0.226h-2.148c0.008,0.313,0.1,0.565,0.273,0.757
		c0.176,0.192,0.398,0.289,0.668,0.289c0.191,0,0.354-0.039,0.486-0.117s0.248-0.182,0.348-0.311l0.332,0.258
		C216.252,230.886,215.854,231.09,215.322,231.09z M215.254,228.248c-0.219,0-0.402,0.08-0.551,0.239s-0.24,0.382-0.275,0.669h1.588
		v-0.041c-0.016-0.275-0.09-0.489-0.223-0.64S215.48,228.248,215.254,228.248z"/>
	<path fill="#E32386" d="M217.697,227.861l0.018,0.398c0.242-0.305,0.559-0.457,0.949-0.457c0.67,0,1.008,0.378,1.014,1.134v2.095
		h-0.541v-2.098c-0.002-0.229-0.055-0.397-0.156-0.507c-0.104-0.109-0.264-0.164-0.48-0.164c-0.176,0-0.33,0.047-0.463,0.141
		s-0.236,0.217-0.311,0.369v2.259h-0.541v-3.17H217.697z"/>
	<path fill="#E32386" d="M223.109,229.44h-1.43v-0.442h1.43V229.44z"/>
	<path fill="#E32386" d="M225.854,228.635h0.408c0.256-0.004,0.457-0.071,0.604-0.202s0.219-0.308,0.219-0.53
		c0-0.5-0.248-0.75-0.746-0.75c-0.234,0-0.422,0.067-0.563,0.201c-0.139,0.134-0.209,0.311-0.209,0.532h-0.541
		c0-0.338,0.123-0.619,0.369-0.842c0.248-0.224,0.563-0.335,0.943-0.335c0.402,0,0.717,0.106,0.945,0.319s0.344,0.509,0.344,0.888
		c0,0.186-0.061,0.365-0.182,0.539c-0.119,0.174-0.283,0.304-0.49,0.39c0.234,0.074,0.416,0.197,0.543,0.369
		c0.129,0.172,0.193,0.382,0.193,0.63c0,0.383-0.125,0.687-0.375,0.911s-0.576,0.337-0.977,0.337s-0.727-0.108-0.977-0.325
		c-0.252-0.217-0.377-0.503-0.377-0.858h0.545c0,0.225,0.074,0.404,0.221,0.539s0.342,0.202,0.588,0.202
		c0.262,0,0.463-0.068,0.602-0.205s0.207-0.333,0.207-0.589c0-0.248-0.076-0.438-0.229-0.571s-0.371-0.201-0.658-0.205h-0.408
		V228.635z"/>
	<path fill="#E32386" d="M231.168,229.481c0,0.482-0.109,0.871-0.33,1.166s-0.52,0.442-0.896,0.442
		c-0.385,0-0.688-0.122-0.908-0.366v1.526h-0.543v-4.389h0.496l0.025,0.352c0.221-0.273,0.527-0.41,0.92-0.41
		c0.381,0,0.682,0.144,0.904,0.431c0.221,0.287,0.332,0.687,0.332,1.198V229.481z M230.627,229.42c0-0.357-0.076-0.64-0.229-0.847
		s-0.361-0.311-0.627-0.311c-0.328,0-0.574,0.146-0.738,0.437v1.515c0.162,0.289,0.41,0.434,0.744,0.434
		c0.26,0,0.465-0.103,0.619-0.309C230.549,230.132,230.627,229.826,230.627,229.42z"/>
	<path fill="#E32386" d="M232.592,227.094v0.768h0.592v0.419h-0.592v1.968c0,0.127,0.027,0.223,0.08,0.286s0.143,0.095,0.27,0.095
		c0.063,0,0.148-0.012,0.258-0.035v0.437c-0.143,0.039-0.281,0.058-0.416,0.058c-0.242,0-0.426-0.073-0.549-0.22
		s-0.184-0.354-0.184-0.624v-1.966h-0.578v-0.419h0.578v-0.768H232.592z"/>
</g>
<g>
	<path fill="#E32386" d="M126.092,249.461l-1.767,3.961h-0.568l1.761-3.82h-2.309v-0.445h2.883V249.461z"/>
	<path fill="#E32386" d="M127.495,251.025h0.407c0.256-0.004,0.457-0.071,0.604-0.202s0.22-0.308,0.22-0.53
		c0-0.5-0.249-0.75-0.747-0.75c-0.234,0-0.422,0.067-0.562,0.201s-0.209,0.311-0.209,0.532h-0.542c0-0.338,0.123-0.619,0.37-0.842
		s0.562-0.335,0.942-0.335c0.402,0,0.718,0.106,0.946,0.319s0.343,0.509,0.343,0.888c0,0.186-0.06,0.365-0.181,0.539
		c-0.119,0.174-0.283,0.304-0.49,0.39c0.234,0.074,0.415,0.197,0.543,0.369s0.192,0.382,0.192,0.63c0,0.383-0.125,0.687-0.375,0.911
		s-0.575,0.337-0.976,0.337s-0.727-0.108-0.977-0.325c-0.252-0.217-0.377-0.503-0.377-0.858h0.545c0,0.225,0.073,0.404,0.22,0.539
		s0.343,0.202,0.589,0.202c0.262,0,0.462-0.068,0.601-0.205s0.208-0.333,0.208-0.589c0-0.248-0.076-0.438-0.229-0.571
		s-0.372-0.201-0.659-0.205h-0.407V251.025z"/>
	<path fill="#E32386" d="M132.127,250.252l0.015,0.352c0.232-0.273,0.546-0.41,0.94-0.41c0.443,0,0.745,0.17,0.905,0.51
		c0.105-0.152,0.242-0.275,0.411-0.369s0.369-0.141,0.6-0.141c0.695,0,1.049,0.368,1.061,1.104v2.124h-0.542v-2.092
		c0-0.227-0.052-0.396-0.155-0.508s-0.277-0.168-0.521-0.168c-0.201,0-0.368,0.06-0.501,0.18s-0.21,0.282-0.231,0.485v2.104h-0.545
		v-2.077c0-0.461-0.226-0.691-0.677-0.691c-0.355,0-0.599,0.151-0.729,0.454v2.314h-0.542v-3.17H132.127z"/>
	<path fill="#E32386" d="M137.386,250.252l0.015,0.352c0.232-0.273,0.546-0.41,0.94-0.41c0.443,0,0.745,0.17,0.905,0.51
		c0.105-0.152,0.242-0.275,0.411-0.369s0.369-0.141,0.6-0.141c0.695,0,1.049,0.368,1.061,1.104v2.124h-0.542v-2.092
		c0-0.227-0.052-0.396-0.155-0.508s-0.277-0.168-0.521-0.168c-0.201,0-0.368,0.06-0.501,0.18s-0.21,0.282-0.231,0.485v2.104h-0.545
		v-2.077c0-0.461-0.226-0.691-0.677-0.691c-0.355,0-0.599,0.151-0.729,0.454v2.314h-0.542v-3.17H137.386z"/>
</g>
<g>
	<path fill="#E32386" d="M58.014,329.589h-2.795v-0.39l1.477-1.641c0.219-0.248,0.369-0.45,0.453-0.605
		c0.082-0.155,0.125-0.316,0.125-0.482c0-0.223-0.068-0.405-0.203-0.548s-0.314-0.214-0.539-0.214c-0.27,0-0.479,0.077-0.627,0.23
		c-0.15,0.153-0.225,0.367-0.225,0.64h-0.543c0-0.393,0.127-0.71,0.381-0.952c0.252-0.242,0.59-0.363,1.014-0.363
		c0.396,0,0.711,0.104,0.941,0.312s0.346,0.485,0.346,0.831c0,0.42-0.268,0.92-0.803,1.5l-1.143,1.239h2.141V329.589z"/>
	<path fill="#E32386" d="M58.838,327.451l0.217-2.127h2.186v0.501h-1.727l-0.129,1.163c0.209-0.123,0.447-0.185,0.713-0.185
		c0.389,0,0.697,0.128,0.926,0.385s0.342,0.604,0.342,1.042c0,0.439-0.117,0.786-0.355,1.039c-0.236,0.253-0.568,0.379-0.994,0.379
		c-0.377,0-0.686-0.104-0.924-0.313s-0.373-0.498-0.406-0.867h0.512c0.033,0.244,0.121,0.428,0.262,0.552s0.326,0.186,0.557,0.186
		c0.252,0,0.449-0.086,0.594-0.258c0.143-0.172,0.215-0.409,0.215-0.712c0-0.285-0.078-0.514-0.232-0.687
		c-0.156-0.173-0.363-0.259-0.621-0.259c-0.236,0-0.422,0.052-0.557,0.155l-0.143,0.117L58.838,327.451z"/>
	<path fill="#E32386" d="M64.008,326.419l0.016,0.352c0.232-0.273,0.545-0.41,0.939-0.41c0.443,0,0.746,0.17,0.906,0.51
		c0.105-0.152,0.242-0.275,0.41-0.369c0.17-0.094,0.369-0.141,0.6-0.141c0.695,0,1.049,0.368,1.061,1.104v2.124h-0.541v-2.092
		c0-0.227-0.053-0.396-0.156-0.508s-0.277-0.168-0.521-0.168c-0.201,0-0.367,0.06-0.5,0.18s-0.211,0.282-0.232,0.485v2.104h-0.545
		v-2.077c0-0.461-0.225-0.691-0.676-0.691c-0.355,0-0.6,0.151-0.73,0.454v2.314h-0.541v-3.17H64.008z"/>
	<path fill="#E32386" d="M69.268,326.419l0.014,0.352c0.232-0.273,0.547-0.41,0.941-0.41c0.443,0,0.744,0.17,0.904,0.51
		c0.105-0.152,0.242-0.275,0.412-0.369c0.168-0.094,0.369-0.141,0.6-0.141c0.695,0,1.049,0.368,1.061,1.104v2.124h-0.543v-2.092
		c0-0.227-0.051-0.396-0.154-0.508s-0.277-0.168-0.521-0.168c-0.201,0-0.369,0.06-0.502,0.18s-0.209,0.282-0.23,0.485v2.104h-0.545
		v-2.077c0-0.461-0.227-0.691-0.678-0.691c-0.355,0-0.598,0.151-0.729,0.454v2.314h-0.543v-3.17H69.268z"/>
</g>
<g>
	<path fill="#E32386" d="M253.407,188.369h0.407c0.256-0.004,0.457-0.071,0.604-0.202s0.22-0.308,0.22-0.53
		c0-0.5-0.249-0.75-0.747-0.75c-0.234,0-0.422,0.067-0.562,0.201s-0.209,0.311-0.209,0.532h-0.542c0-0.338,0.123-0.619,0.37-0.842
		s0.562-0.335,0.942-0.335c0.402,0,0.718,0.106,0.946,0.319s0.343,0.509,0.343,0.888c0,0.186-0.06,0.365-0.181,0.539
		c-0.119,0.174-0.283,0.304-0.49,0.39c0.234,0.074,0.415,0.197,0.543,0.369s0.192,0.382,0.192,0.63c0,0.383-0.125,0.687-0.375,0.911
		s-0.575,0.337-0.976,0.337s-0.727-0.108-0.977-0.325c-0.252-0.217-0.377-0.503-0.377-0.858h0.545c0,0.225,0.073,0.404,0.22,0.539
		s0.343,0.202,0.589,0.202c0.262,0,0.462-0.068,0.601-0.205s0.208-0.333,0.208-0.589c0-0.248-0.076-0.438-0.229-0.571
		s-0.372-0.201-0.659-0.205h-0.407V188.369z"/>
	<path fill="#E32386" d="M257.77,190.766h-0.545v-3.612l-1.093,0.401v-0.492l1.553-0.583h0.085V190.766z"/>
	<path fill="#E32386" d="M261.408,187.596l0.015,0.352c0.232-0.273,0.546-0.41,0.94-0.41c0.443,0,0.745,0.17,0.905,0.51
		c0.105-0.152,0.242-0.275,0.411-0.369s0.369-0.141,0.6-0.141c0.695,0,1.049,0.368,1.061,1.104v2.124h-0.542v-2.092
		c0-0.227-0.052-0.396-0.155-0.508s-0.277-0.168-0.521-0.168c-0.201,0-0.368,0.06-0.501,0.18s-0.21,0.282-0.231,0.485v2.104h-0.545
		v-2.077c0-0.461-0.226-0.691-0.677-0.691c-0.355,0-0.599,0.151-0.729,0.454v2.314h-0.542v-3.17H261.408z"/>
	<path fill="#E32386" d="M266.667,187.596l0.015,0.352c0.232-0.273,0.546-0.41,0.94-0.41c0.443,0,0.745,0.17,0.905,0.51
		c0.105-0.152,0.242-0.275,0.411-0.369s0.369-0.141,0.6-0.141c0.695,0,1.049,0.368,1.061,1.104v2.124h-0.542v-2.092
		c0-0.227-0.052-0.396-0.155-0.508s-0.277-0.168-0.521-0.168c-0.201,0-0.368,0.06-0.501,0.18s-0.21,0.282-0.231,0.485v2.104h-0.545
		v-2.077c0-0.461-0.226-0.691-0.677-0.691c-0.355,0-0.599,0.151-0.729,0.454v2.314h-0.542v-3.17H266.667z"/>
</g>
<rect x="62.803" y="180.016" fill="#C7C6C6" width="139.104" height="19"/>
<g>
	<path fill="#1A1A1A" d="M70.98,195.198c0-0.529-0.219-0.932-0.653-1.208c-0.436-0.277-1.158-0.521-2.167-0.732
		c-1.01-0.212-1.852-0.48-2.527-0.807c-1.48-0.716-2.221-1.753-2.221-3.112c0-1.14,0.479-2.092,1.439-2.856
		c0.961-0.765,2.182-1.147,3.662-1.147c1.579,0,2.855,0.391,3.827,1.172c0.973,0.781,1.459,1.794,1.459,3.04h-2.966
		c0-0.57-0.213-1.044-0.635-1.423c-0.424-0.378-0.985-0.567-1.686-0.567c-0.65,0-1.182,0.15-1.593,0.451
		c-0.411,0.302-0.616,0.704-0.616,1.209c0,0.456,0.191,0.81,0.574,1.063c0.382,0.252,1.154,0.506,2.318,0.763
		c1.164,0.256,2.078,0.562,2.741,0.915c0.663,0.354,1.155,0.779,1.477,1.275c0.321,0.497,0.482,1.1,0.482,1.807
		c0,1.188-0.493,2.151-1.478,2.888s-2.274,1.104-3.869,1.104c-1.082,0-2.047-0.195-2.893-0.586
		c-0.848-0.391-1.506-0.928-1.979-1.611c-0.472-0.684-0.707-1.42-0.707-2.209h2.881c0.04,0.699,0.305,1.238,0.793,1.617
		c0.488,0.378,1.135,0.567,1.941,0.567c0.781,0,1.375-0.148,1.781-0.445C70.776,196.067,70.98,195.679,70.98,195.198z"/>
	<path fill="#1A1A1A" d="M82.07,199.031c-1.879,0-3.403-0.592-4.571-1.776c-1.167-1.184-1.751-2.761-1.751-4.729v-0.367
		c0-1.318,0.254-2.496,0.763-3.533c0.509-1.038,1.222-1.846,2.142-2.424c0.92-0.577,1.945-0.866,3.076-0.866
		c1.799,0,3.188,0.573,4.169,1.722c0.981,1.146,1.472,2.771,1.472,4.87v1.196h-8.631c0.09,1.091,0.453,1.953,1.093,2.588
		c0.639,0.635,1.442,0.952,2.411,0.952c1.358,0,2.465-0.55,3.32-1.647l1.599,1.525c-0.529,0.789-1.235,1.402-2.118,1.837
		C84.16,198.813,83.17,199.031,82.07,199.031z M81.717,187.715c-0.814,0-1.471,0.285-1.972,0.855c-0.5,0.569-0.819,1.362-0.958,2.38
		h5.652v-0.22c-0.066-0.993-0.33-1.743-0.794-2.252S82.539,187.715,81.717,187.715z"/>
	<path fill="#1A1A1A" d="M92.473,185.579l0.086,1.526c0.977-1.181,2.258-1.771,3.845-1.771c2.751,0,4.15,1.575,4.199,4.724v8.729
		h-2.966v-8.557c0-0.839-0.182-1.459-0.544-1.862c-0.362-0.402-0.954-0.604-1.776-0.604c-1.195,0-2.087,0.542-2.673,1.624v9.399
		h-2.966v-13.208H92.473z"/>
	<path fill="#1A1A1A" d="M110.877,195.198c0-0.529-0.218-0.932-0.652-1.208c-0.436-0.277-1.158-0.521-2.168-0.732
		c-1.009-0.212-1.852-0.48-2.526-0.807c-1.481-0.716-2.222-1.753-2.222-3.112c0-1.14,0.48-2.092,1.44-2.856s2.181-1.147,3.662-1.147
		c1.579,0,2.854,0.391,3.827,1.172s1.459,1.794,1.459,3.04h-2.967c0-0.57-0.212-1.044-0.635-1.423
		c-0.424-0.378-0.984-0.567-1.685-0.567c-0.651,0-1.183,0.15-1.593,0.451c-0.411,0.302-0.617,0.704-0.617,1.209
		c0,0.456,0.191,0.81,0.574,1.063c0.383,0.252,1.155,0.506,2.319,0.763c1.163,0.256,2.077,0.562,2.741,0.915
		c0.662,0.354,1.154,0.779,1.477,1.275c0.321,0.497,0.482,1.1,0.482,1.807c0,1.188-0.493,2.151-1.478,2.888
		c-0.985,0.736-2.274,1.104-3.87,1.104c-1.082,0-2.047-0.195-2.893-0.586c-0.847-0.391-1.506-0.928-1.978-1.611
		s-0.708-1.42-0.708-2.209h2.881c0.041,0.699,0.305,1.238,0.793,1.617c0.488,0.378,1.136,0.567,1.941,0.567
		c0.781,0,1.375-0.148,1.782-0.445S110.877,195.679,110.877,195.198z"/>
	<path fill="#1A1A1A" d="M121.969,199.031c-1.881,0-3.404-0.592-4.572-1.776c-1.168-1.184-1.752-2.761-1.752-4.729v-0.367
		c0-1.318,0.255-2.496,0.764-3.533c0.508-1.038,1.223-1.846,2.143-2.424c0.919-0.577,1.944-0.866,3.076-0.866
		c1.798,0,3.188,0.573,4.168,1.722c0.98,1.146,1.471,2.771,1.471,4.87v1.196h-8.63c0.089,1.091,0.454,1.953,1.093,2.588
		s1.441,0.952,2.41,0.952c1.359,0,2.467-0.55,3.32-1.647l1.6,1.525c-0.529,0.789-1.234,1.402-2.118,1.837
		C124.058,198.813,123.066,199.031,121.969,199.031z M121.614,187.715c-0.813,0-1.471,0.285-1.972,0.855
		c-0.5,0.569-0.82,1.362-0.958,2.38h5.651v-0.22c-0.064-0.993-0.329-1.743-0.793-2.252S122.436,187.715,121.614,187.715z"/>
	<path fill="#1A1A1A" d="M135.822,192.428h-6.408v-2.393h6.408V192.428z"/>
	<path fill="#1A1A1A" d="M144.071,196.663c0.74,0,1.354-0.216,1.843-0.647c0.488-0.431,0.749-0.964,0.781-1.599h2.796
		c-0.032,0.822-0.289,1.589-0.769,2.301c-0.48,0.713-1.132,1.276-1.953,1.69c-0.822,0.416-1.709,0.623-2.662,0.623
		c-1.848,0-3.313-0.598-4.395-1.795c-1.082-1.195-1.623-2.848-1.623-4.955v-0.306c0-2.01,0.537-3.619,1.611-4.828
		c1.074-1.208,2.539-1.813,4.395-1.813c1.57,0,2.85,0.458,3.84,1.373c0.988,0.916,1.507,2.118,1.556,3.607h-2.796
		c-0.032-0.757-0.291-1.38-0.775-1.868c-0.483-0.488-1.1-0.732-1.849-0.732c-0.96,0-1.701,0.349-2.222,1.044
		c-0.521,0.696-0.785,1.752-0.793,3.168v0.476c0,1.433,0.258,2.501,0.775,3.205C142.348,196.312,143.095,196.663,144.071,196.663z"
		/>
	<path fill="#1A1A1A" d="M154.705,187.02c0.968-1.123,2.192-1.685,3.674-1.685c2.815,0,4.244,1.607,4.285,4.821v8.631h-2.967v-8.521
		c0-0.911-0.197-1.557-0.592-1.935c-0.395-0.379-0.975-0.568-1.74-0.568c-1.188,0-2.074,0.529-2.66,1.588v9.436h-2.967v-18.75h2.967
		V187.02z"/>
	<path fill="#1A1A1A" d="M171.377,199.031c-1.88,0-3.404-0.592-4.572-1.776c-1.167-1.184-1.751-2.761-1.751-4.729v-0.367
		c0-1.318,0.255-2.496,0.763-3.533c0.509-1.038,1.223-1.846,2.143-2.424c0.92-0.577,1.945-0.866,3.076-0.866
		c1.799,0,3.188,0.573,4.168,1.722c0.981,1.146,1.472,2.771,1.472,4.87v1.196h-8.63c0.089,1.091,0.453,1.953,1.092,2.588
		s1.442,0.952,2.411,0.952c1.358,0,2.466-0.55,3.32-1.647l1.599,1.525c-0.529,0.789-1.234,1.402-2.117,1.837
		C173.467,198.813,172.476,199.031,171.377,199.031z M171.023,187.715c-0.814,0-1.471,0.285-1.973,0.855
		c-0.5,0.569-0.819,1.362-0.957,2.38h5.651v-0.22c-0.065-0.993-0.329-1.743-0.794-2.252
		C172.488,187.97,171.845,187.715,171.023,187.715z"/>
	<path fill="#1A1A1A" d="M186.229,195.198c0-0.529-0.218-0.932-0.653-1.208c-0.436-0.277-1.158-0.521-2.166-0.732
		c-1.01-0.212-1.852-0.48-2.527-0.807c-1.481-0.716-2.222-1.753-2.222-3.112c0-1.14,0.479-2.092,1.44-2.856
		c0.96-0.765,2.181-1.147,3.662-1.147c1.578,0,2.854,0.391,3.826,1.172c0.973,0.781,1.459,1.794,1.459,3.04h-2.966
		c0-0.57-0.212-1.044-0.635-1.423c-0.423-0.378-0.985-0.567-1.685-0.567c-0.651,0-1.182,0.15-1.594,0.451
		c-0.41,0.302-0.615,0.704-0.615,1.209c0,0.456,0.19,0.81,0.573,1.063c0.382,0.252,1.155,0.506,2.319,0.763
		c1.164,0.256,2.077,0.562,2.74,0.915c0.664,0.354,1.156,0.779,1.477,1.275c0.322,0.497,0.482,1.1,0.482,1.807
		c0,1.188-0.492,2.151-1.477,2.888s-2.275,1.104-3.869,1.104c-1.083,0-2.047-0.195-2.894-0.586s-1.506-0.928-1.978-1.611
		c-0.473-0.684-0.708-1.42-0.708-2.209h2.881c0.04,0.699,0.306,1.238,0.794,1.617c0.488,0.378,1.135,0.567,1.94,0.567
		c0.781,0,1.375-0.148,1.782-0.445C186.025,196.067,186.229,195.679,186.229,195.198z"/>
	<path fill="#1A1A1A" d="M199.032,195.198c0-0.529-0.218-0.932-0.653-1.208c-0.436-0.277-1.158-0.521-2.166-0.732
		c-1.01-0.212-1.852-0.48-2.527-0.807c-1.481-0.716-2.222-1.753-2.222-3.112c0-1.14,0.479-2.092,1.44-2.856
		c0.96-0.765,2.181-1.147,3.662-1.147c1.578,0,2.854,0.391,3.826,1.172c0.973,0.781,1.459,1.794,1.459,3.04h-2.966
		c0-0.57-0.212-1.044-0.635-1.423c-0.423-0.378-0.985-0.567-1.685-0.567c-0.651,0-1.182,0.15-1.594,0.451
		c-0.41,0.302-0.615,0.704-0.615,1.209c0,0.456,0.19,0.81,0.573,1.063c0.382,0.252,1.155,0.506,2.319,0.763
		c1.164,0.256,2.077,0.562,2.74,0.915c0.664,0.354,1.156,0.779,1.477,1.275c0.322,0.497,0.482,1.1,0.482,1.807
		c0,1.188-0.492,2.151-1.477,2.888s-2.275,1.104-3.869,1.104c-1.083,0-2.047-0.195-2.894-0.586s-1.506-0.928-1.978-1.611
		c-0.473-0.684-0.708-1.42-0.708-2.209h2.881c0.04,0.699,0.306,1.238,0.794,1.617c0.488,0.378,1.135,0.567,1.94,0.567
		c0.781,0,1.375-0.148,1.782-0.445C198.828,196.067,199.032,195.679,199.032,195.198z"/>
</g>
<line fill="none" stroke="#E32185" stroke-width="0.5" stroke-miterlimit="10" x1="132.354" y1="199.016" x2="132.354" y2="233.031"/>
<line fill="none" stroke="#E32185" stroke-width="0.5" stroke-miterlimit="10" x1="235.923" y1="189.516" x2="201.907" y2="189.516"/>
<line fill="none" stroke="#E32185" stroke-width="0.5" stroke-miterlimit="10" x1="62.803" y1="189.516" x2="28.787" y2="189.516"/>
<line fill="none" stroke="#E32185" stroke-width="0.5" stroke-miterlimit="10" x1="132.354" y1="146" x2="132.354" y2="180.016"/>
<g>
	<defs>
		<rect id="SVGID_3_" x="28.787" y="145.579" width="207.136" height="87.874"/>
	</defs>
	<clipPath id="SVGID_4_">
		<use xlink:href="#SVGID_3_"  overflow="visible"/>
	</clipPath>
	<use xlink:href="#SVGID_3_"  overflow="visible" fill="none" stroke="#1A1A1A" stroke-width="3" stroke-miterlimit="10"/>
</g>
<g>
	<path fill="#1A1A1A" d="M344.374,195.18c0-0.529-0.219-0.932-0.653-1.208c-0.436-0.277-1.158-0.521-2.167-0.732
		c-1.01-0.212-1.852-0.48-2.527-0.807c-1.48-0.716-2.221-1.753-2.221-3.112c0-1.14,0.479-2.092,1.439-2.856
		c0.961-0.765,2.182-1.147,3.662-1.147c1.579,0,2.855,0.391,3.827,1.172c0.973,0.781,1.459,1.794,1.459,3.04h-2.966
		c0-0.57-0.213-1.044-0.635-1.423c-0.424-0.378-0.985-0.567-1.686-0.567c-0.65,0-1.182,0.15-1.593,0.451
		c-0.411,0.302-0.616,0.704-0.616,1.209c0,0.456,0.191,0.81,0.574,1.063c0.382,0.252,1.154,0.506,2.318,0.763
		c1.164,0.256,2.078,0.562,2.741,0.915c0.663,0.354,1.155,0.779,1.477,1.275c0.321,0.497,0.482,1.1,0.482,1.807
		c0,1.188-0.493,2.151-1.478,2.888s-2.274,1.104-3.869,1.104c-1.082,0-2.047-0.195-2.893-0.586
		c-0.848-0.391-1.506-0.928-1.979-1.611c-0.472-0.684-0.707-1.42-0.707-2.209h2.881c0.04,0.699,0.305,1.238,0.793,1.617
		c0.488,0.378,1.135,0.567,1.941,0.567c0.781,0,1.375-0.148,1.781-0.445C344.17,196.049,344.374,195.66,344.374,195.18z"/>
	<path fill="#1A1A1A" d="M355.464,199.013c-1.879,0-3.403-0.592-4.571-1.776c-1.167-1.184-1.751-2.761-1.751-4.729v-0.367
		c0-1.318,0.254-2.496,0.763-3.533c0.509-1.038,1.222-1.846,2.142-2.424c0.92-0.577,1.945-0.866,3.076-0.866
		c1.799,0,3.188,0.573,4.169,1.722c0.981,1.146,1.472,2.771,1.472,4.87v1.196h-8.631c0.09,1.091,0.453,1.953,1.093,2.588
		c0.639,0.635,1.442,0.952,2.411,0.952c1.358,0,2.465-0.55,3.32-1.647l1.599,1.525c-0.529,0.789-1.235,1.402-2.118,1.837
		C357.554,198.795,356.563,199.013,355.464,199.013z M355.11,187.696c-0.814,0-1.471,0.285-1.972,0.855
		c-0.5,0.569-0.819,1.362-0.958,2.38h5.652v-0.22c-0.066-0.993-0.33-1.743-0.794-2.252S355.933,187.696,355.11,187.696z"/>
	<path fill="#1A1A1A" d="M365.866,185.561l0.086,1.526c0.977-1.181,2.258-1.771,3.845-1.771c2.751,0,4.15,1.575,4.199,4.724v8.729
		h-2.966v-8.557c0-0.839-0.182-1.459-0.544-1.862c-0.362-0.402-0.954-0.604-1.776-0.604c-1.195,0-2.087,0.542-2.673,1.624v9.399
		h-2.966v-13.208H365.866z"/>
	<path fill="#1A1A1A" d="M384.271,195.18c0-0.529-0.218-0.932-0.652-1.208c-0.436-0.277-1.158-0.521-2.168-0.732
		c-1.009-0.212-1.852-0.48-2.526-0.807c-1.481-0.716-2.222-1.753-2.222-3.112c0-1.14,0.48-2.092,1.44-2.856s2.181-1.147,3.662-1.147
		c1.579,0,2.854,0.391,3.827,1.172s1.459,1.794,1.459,3.04h-2.967c0-0.57-0.212-1.044-0.635-1.423
		c-0.424-0.378-0.984-0.567-1.685-0.567c-0.651,0-1.183,0.15-1.593,0.451c-0.411,0.302-0.617,0.704-0.617,1.209
		c0,0.456,0.191,0.81,0.574,1.063c0.383,0.252,1.155,0.506,2.319,0.763c1.163,0.256,2.077,0.562,2.741,0.915
		c0.662,0.354,1.154,0.779,1.477,1.275c0.321,0.497,0.482,1.1,0.482,1.807c0,1.188-0.493,2.151-1.478,2.888
		c-0.985,0.736-2.274,1.104-3.87,1.104c-1.082,0-2.047-0.195-2.893-0.586c-0.847-0.391-1.506-0.928-1.978-1.611
		s-0.708-1.42-0.708-2.209h2.881c0.041,0.699,0.305,1.238,0.793,1.617c0.488,0.378,1.136,0.567,1.941,0.567
		c0.781,0,1.375-0.148,1.782-0.445S384.271,195.66,384.271,195.18z"/>
	<path fill="#1A1A1A" d="M395.362,199.013c-1.881,0-3.404-0.592-4.572-1.776c-1.168-1.184-1.752-2.761-1.752-4.729v-0.367
		c0-1.318,0.255-2.496,0.764-3.533c0.508-1.038,1.223-1.846,2.143-2.424c0.919-0.577,1.944-0.866,3.076-0.866
		c1.798,0,3.188,0.573,4.168,1.722c0.98,1.146,1.471,2.771,1.471,4.87v1.196h-8.63c0.089,1.091,0.454,1.953,1.093,2.588
		s1.441,0.952,2.41,0.952c1.359,0,2.467-0.55,3.32-1.647l1.6,1.525c-0.529,0.789-1.234,1.402-2.118,1.837
		C397.451,198.795,396.46,199.013,395.362,199.013z M395.008,187.696c-0.813,0-1.471,0.285-1.972,0.855
		c-0.5,0.569-0.82,1.362-0.958,2.38h5.651v-0.22c-0.064-0.993-0.329-1.743-0.793-2.252S395.829,187.696,395.008,187.696z"/>
	<path fill="#1A1A1A" d="M409.216,192.409h-6.408v-2.393h6.408V192.409z"/>
	<path fill="#1A1A1A" d="M417.465,196.645c0.74,0,1.354-0.216,1.843-0.647c0.488-0.431,0.749-0.964,0.781-1.599h2.796
		c-0.032,0.822-0.289,1.589-0.769,2.301c-0.48,0.713-1.132,1.276-1.953,1.69c-0.822,0.416-1.709,0.623-2.662,0.623
		c-1.848,0-3.313-0.598-4.395-1.795c-1.082-1.195-1.623-2.848-1.623-4.955v-0.306c0-2.01,0.537-3.619,1.611-4.828
		c1.074-1.208,2.539-1.813,4.395-1.813c1.57,0,2.85,0.458,3.84,1.373c0.988,0.916,1.507,2.118,1.556,3.607h-2.796
		c-0.032-0.757-0.291-1.38-0.775-1.868c-0.483-0.488-1.1-0.732-1.849-0.732c-0.96,0-1.701,0.349-2.222,1.044
		c-0.521,0.696-0.785,1.752-0.793,3.168v0.476c0,1.433,0.258,2.501,0.775,3.205C415.741,196.293,416.488,196.645,417.465,196.645z"
		/>
	<path fill="#1A1A1A" d="M428.099,187.001c0.968-1.123,2.192-1.685,3.674-1.685c2.815,0,4.244,1.607,4.285,4.821v8.631h-2.967
		v-8.521c0-0.911-0.197-1.557-0.592-1.935c-0.395-0.379-0.975-0.568-1.74-0.568c-1.188,0-2.074,0.529-2.66,1.588v9.436h-2.967
		v-18.75h2.967V187.001z"/>
	<path fill="#1A1A1A" d="M444.771,199.013c-1.88,0-3.404-0.592-4.572-1.776c-1.167-1.184-1.751-2.761-1.751-4.729v-0.367
		c0-1.318,0.255-2.496,0.763-3.533c0.509-1.038,1.223-1.846,2.143-2.424c0.92-0.577,1.945-0.866,3.076-0.866
		c1.799,0,3.188,0.573,4.168,1.722c0.981,1.146,1.472,2.771,1.472,4.87v1.196h-8.63c0.089,1.091,0.453,1.953,1.092,2.588
		s1.442,0.952,2.411,0.952c1.358,0,2.466-0.55,3.32-1.647l1.599,1.525c-0.529,0.789-1.234,1.402-2.117,1.837
		C446.86,198.795,445.869,199.013,444.771,199.013z M444.417,187.696c-0.814,0-1.471,0.285-1.973,0.855
		c-0.5,0.569-0.819,1.362-0.957,2.38h5.651v-0.22c-0.065-0.993-0.329-1.743-0.794-2.252
		C445.882,187.951,445.238,187.696,444.417,187.696z"/>
	<path fill="#1A1A1A" d="M459.623,195.18c0-0.529-0.218-0.932-0.653-1.208c-0.436-0.277-1.158-0.521-2.166-0.732
		c-1.01-0.212-1.852-0.48-2.527-0.807c-1.481-0.716-2.222-1.753-2.222-3.112c0-1.14,0.479-2.092,1.44-2.856
		c0.96-0.765,2.181-1.147,3.662-1.147c1.578,0,2.854,0.391,3.826,1.172c0.973,0.781,1.459,1.794,1.459,3.04h-2.966
		c0-0.57-0.212-1.044-0.635-1.423c-0.423-0.378-0.985-0.567-1.685-0.567c-0.651,0-1.182,0.15-1.594,0.451
		c-0.41,0.302-0.615,0.704-0.615,1.209c0,0.456,0.19,0.81,0.573,1.063c0.382,0.252,1.155,0.506,2.319,0.763
		c1.164,0.256,2.077,0.562,2.74,0.915c0.664,0.354,1.156,0.779,1.477,1.275c0.322,0.497,0.482,1.1,0.482,1.807
		c0,1.188-0.492,2.151-1.477,2.888s-2.275,1.104-3.869,1.104c-1.083,0-2.047-0.195-2.894-0.586s-1.506-0.928-1.978-1.611
		c-0.473-0.684-0.708-1.42-0.708-2.209h2.881c0.04,0.699,0.306,1.238,0.794,1.617c0.488,0.378,1.135,0.567,1.94,0.567
		c0.781,0,1.375-0.148,1.782-0.445C459.419,196.049,459.623,195.66,459.623,195.18z"/>
	<path fill="#1A1A1A" d="M472.426,195.18c0-0.529-0.218-0.932-0.653-1.208c-0.436-0.277-1.158-0.521-2.166-0.732
		c-1.01-0.212-1.852-0.48-2.527-0.807c-1.481-0.716-2.222-1.753-2.222-3.112c0-1.14,0.479-2.092,1.44-2.856
		c0.96-0.765,2.181-1.147,3.662-1.147c1.578,0,2.854,0.391,3.826,1.172c0.973,0.781,1.459,1.794,1.459,3.04h-2.966
		c0-0.57-0.212-1.044-0.635-1.423c-0.423-0.378-0.985-0.567-1.685-0.567c-0.651,0-1.182,0.15-1.594,0.451
		c-0.41,0.302-0.615,0.704-0.615,1.209c0,0.456,0.19,0.81,0.573,1.063c0.382,0.252,1.155,0.506,2.319,0.763
		c1.164,0.256,2.077,0.562,2.74,0.915c0.664,0.354,1.156,0.779,1.477,1.275c0.322,0.497,0.482,1.1,0.482,1.807
		c0,1.188-0.492,2.151-1.477,2.888s-2.275,1.104-3.869,1.104c-1.083,0-2.047-0.195-2.894-0.586s-1.506-0.928-1.978-1.611
		c-0.473-0.684-0.708-1.42-0.708-2.209h2.881c0.04,0.699,0.306,1.238,0.794,1.617c0.488,0.378,1.135,0.567,1.94,0.567
		c0.781,0,1.375-0.148,1.782-0.445C472.222,196.049,472.426,195.66,472.426,195.18z"/>
</g>
<g>
	<defs>
		<rect id="SVGID_5_" x="302.287" y="145.579" width="207.136" height="87.874"/>
	</defs>
	<clipPath id="SVGID_6_">
		<use xlink:href="#SVGID_5_"  overflow="visible"/>
	</clipPath>
	<use xlink:href="#SVGID_5_"  overflow="visible" fill="none" stroke="#1A1A1A" stroke-width="3" stroke-miterlimit="10"/>
</g>
<g>
	<path fill="#1A1A1A" d="M77.008,484.735c0-0.477-0.196-0.837-0.586-1.086c-0.393-0.249-1.045-0.467-1.95-0.657
		c-0.908-0.192-1.664-0.433-2.272-0.727c-1.33-0.643-1.995-1.574-1.995-2.797c0-1.025,0.428-1.881,1.295-2.568
		c0.863-0.686,1.96-1.032,3.29-1.032c1.42,0,2.568,0.354,3.44,1.052c0.872,0.705,1.31,1.615,1.31,2.735h-2.663
		c0-0.514-0.192-0.939-0.571-1.279c-0.382-0.339-0.886-0.51-1.516-0.51c-0.587,0-1.062,0.135-1.433,0.405
		c-0.371,0.27-0.554,0.633-0.554,1.088c0,0.409,0.173,0.727,0.518,0.953c0.343,0.229,1.037,0.458,2.081,0.686
		c1.051,0.232,1.87,0.506,2.467,0.824s1.037,0.7,1.326,1.146c0.289,0.447,0.436,0.99,0.436,1.624c0,1.068-0.443,1.936-1.329,2.597
		c-0.885,0.663-2.045,0.992-3.479,0.992c-0.974,0-1.841-0.177-2.602-0.525c-0.762-0.353-1.352-0.837-1.778-1.45
		c-0.423-0.613-0.635-1.274-0.635-1.985h2.591c0.035,0.628,0.274,1.115,0.713,1.455c0.438,0.338,1.02,0.51,1.745,0.51
		c0.702,0,1.235-0.135,1.603-0.401C76.824,485.517,77.008,485.167,77.008,484.735z"/>
	<path fill="#1A1A1A" d="M86.976,488.181c-1.688,0-3.059-0.53-4.109-1.596c-1.05-1.064-1.575-2.481-1.575-4.252v-0.33
		c0-1.185,0.229-2.243,0.688-3.175c0.457-0.935,1.097-1.663,1.924-2.18c0.83-0.521,1.748-0.78,2.766-0.78
		c1.618,0,2.865,0.517,3.75,1.55c0.88,1.029,1.321,2.489,1.321,4.376v1.075H83.98c0.08,0.981,0.407,1.757,0.981,2.327
		c0.576,0.57,1.298,0.855,2.168,0.855c1.22,0,2.217-0.493,2.985-1.48l1.437,1.371c-0.476,0.71-1.109,1.261-1.903,1.65
		C88.854,487.985,87.964,488.181,86.976,488.181z M86.657,478.008c-0.731,0-1.321,0.258-1.771,0.771
		c-0.45,0.51-0.737,1.225-0.862,2.138h5.082v-0.197c-0.061-0.892-0.3-1.565-0.716-2.025
		C87.974,478.237,87.398,478.008,86.657,478.008z"/>
	<path fill="#1A1A1A" d="M96.324,476.088l0.082,1.372c0.876-1.061,2.027-1.592,3.454-1.592c2.473,0,3.729,1.417,3.773,4.245v7.848
		h-2.665v-7.691c0-0.753-0.162-1.311-0.49-1.674c-0.323-0.359-0.857-0.543-1.595-0.543c-1.075,0-1.875,0.485-2.404,1.46v8.448
		h-2.665v-11.873H96.324z"/>
	<path fill="#1A1A1A" d="M112.871,484.735c0-0.477-0.195-0.837-0.585-1.086c-0.393-0.249-1.042-0.467-1.952-0.657
		c-0.905-0.192-1.662-0.433-2.27-0.727c-1.332-0.643-1.996-1.574-1.996-2.797c0-1.025,0.431-1.881,1.294-2.568
		c0.864-0.686,1.961-1.032,3.293-1.032c1.418,0,2.565,0.354,3.438,1.052c0.877,0.705,1.313,1.615,1.313,2.735h-2.666
		c0-0.514-0.189-0.939-0.57-1.279c-0.381-0.339-0.889-0.51-1.515-0.51c-0.586,0-1.064,0.135-1.431,0.405
		c-0.371,0.27-0.557,0.633-0.557,1.088c0,0.409,0.175,0.727,0.517,0.953c0.345,0.229,1.038,0.458,2.084,0.686
		c1.046,0.232,1.869,0.506,2.466,0.824c0.595,0.318,1.037,0.7,1.326,1.146c0.288,0.447,0.434,0.99,0.434,1.624
		c0,1.068-0.444,1.936-1.328,2.597c-0.888,0.663-2.047,0.992-3.48,0.992c-0.972,0-1.838-0.177-2.6-0.525
		c-0.761-0.353-1.354-0.837-1.776-1.45s-0.636-1.274-0.636-1.985h2.589c0.035,0.628,0.273,1.115,0.714,1.455
		c0.438,0.338,1.019,0.51,1.743,0.51c0.703,0,1.236-0.135,1.604-0.401C112.688,485.517,112.871,485.167,112.871,484.735z"/>
	<path fill="#1A1A1A" d="M122.843,488.181c-1.69,0-3.063-0.53-4.111-1.596c-1.048-1.064-1.573-2.481-1.573-4.252v-0.33
		c0-1.185,0.229-2.243,0.685-3.175c0.458-0.935,1.098-1.663,1.926-2.18c0.826-0.521,1.748-0.78,2.766-0.78
		c1.614,0,2.866,0.517,3.747,1.55c0.883,1.029,1.324,2.489,1.324,4.376v1.075h-7.759c0.08,0.981,0.407,1.757,0.981,2.327
		s1.297,0.855,2.168,0.855c1.221,0,2.217-0.493,2.984-1.48l1.437,1.371c-0.476,0.71-1.109,1.261-1.903,1.65
		C124.72,487.985,123.831,488.181,122.843,488.181z M122.523,478.008c-0.731,0-1.322,0.258-1.772,0.771
		c-0.448,0.51-0.738,1.225-0.861,2.138h5.081v-0.197c-0.06-0.892-0.297-1.565-0.712-2.025
		C123.842,478.237,123.261,478.008,122.523,478.008z"/>
	<path fill="#1A1A1A" d="M135.296,482.245h-5.761v-2.151h5.761V482.245z"/>
	<path fill="#1A1A1A" d="M142.71,486.052c0.668,0,1.218-0.194,1.657-0.58c0.438-0.39,0.673-0.869,0.701-1.438h2.515
		c-0.027,0.738-0.26,1.428-0.69,2.068c-0.433,0.641-1.019,1.146-1.754,1.518c-0.741,0.375-1.539,0.561-2.396,0.561
		c-1.66,0-2.977-0.536-3.949-1.613c-0.973-1.073-1.459-2.56-1.459-4.453v-0.277c0-1.805,0.482-3.251,1.448-4.338
		c0.965-1.086,2.282-1.631,3.95-1.631c1.414,0,2.561,0.411,3.452,1.235c0.888,0.823,1.355,1.905,1.398,3.244h-2.515
		c-0.028-0.682-0.262-1.242-0.695-1.681c-0.433-0.438-0.987-0.659-1.663-0.659c-0.862,0-1.528,0.314-1.995,0.938
		c-0.471,0.628-0.707,1.574-0.714,2.849v0.43c0,1.286,0.23,2.246,0.697,2.88C141.162,485.737,141.833,486.052,142.71,486.052z"/>
	<path fill="#1A1A1A" d="M152.271,477.384c0.868-1.012,1.972-1.516,3.301-1.516c2.532,0,3.816,1.444,3.854,4.336v7.757h-2.669
		v-7.659c0-0.818-0.174-1.399-0.529-1.738c-0.356-0.34-0.879-0.511-1.564-0.511c-1.069,0-1.867,0.476-2.392,1.427v8.481h-2.669
		v-16.852h2.669V477.384z"/>
	<path fill="#1A1A1A" d="M167.257,488.181c-1.69,0-3.061-0.53-4.11-1.596c-1.049-1.064-1.574-2.481-1.574-4.252v-0.33
		c0-1.185,0.229-2.243,0.685-3.175c0.46-0.935,1.102-1.663,1.926-2.18c0.828-0.521,1.751-0.78,2.767-0.78
		c1.617,0,2.866,0.517,3.748,1.55c0.881,1.029,1.324,2.489,1.324,4.376v1.075h-7.76c0.079,0.981,0.409,1.757,0.981,2.327
		c0.573,0.57,1.297,0.855,2.168,0.855c1.22,0,2.217-0.493,2.985-1.48l1.437,1.371c-0.478,0.71-1.11,1.261-1.903,1.65
		C169.136,487.985,168.246,488.181,167.257,488.181z M166.939,478.008c-0.734,0-1.324,0.258-1.775,0.771
		c-0.446,0.51-0.736,1.225-0.858,2.138h5.079v-0.197c-0.059-0.892-0.293-1.565-0.711-2.025
		C168.258,478.237,167.678,478.008,166.939,478.008z"/>
	<path fill="#1A1A1A" d="M180.607,484.735c0-0.477-0.196-0.837-0.587-1.086c-0.392-0.249-1.04-0.467-1.946-0.657
		c-0.907-0.192-1.665-0.433-2.272-0.727c-1.334-0.643-1.997-1.574-1.997-2.797c0-1.025,0.431-1.881,1.295-2.568
		c0.863-0.686,1.96-1.032,3.294-1.032c1.418,0,2.563,0.354,3.438,1.052c0.875,0.705,1.312,1.615,1.312,2.735h-2.667
		c0-0.514-0.188-0.939-0.568-1.279c-0.381-0.339-0.889-0.51-1.515-0.51c-0.586,0-1.064,0.135-1.432,0.405
		c-0.37,0.27-0.556,0.633-0.556,1.088c0,0.409,0.173,0.727,0.517,0.953c0.342,0.229,1.036,0.458,2.083,0.686
		c1.047,0.232,1.868,0.506,2.465,0.824s1.039,0.7,1.326,1.146c0.288,0.447,0.434,0.99,0.434,1.624c0,1.068-0.443,1.936-1.328,2.597
		c-0.885,0.663-2.044,0.992-3.477,0.992c-0.974,0-1.84-0.177-2.602-0.525c-0.761-0.353-1.356-0.837-1.777-1.45
		c-0.425-0.613-0.636-1.274-0.636-1.985H176c0.034,0.628,0.273,1.115,0.716,1.455c0.438,0.338,1.017,0.51,1.741,0.51
		c0.703,0,1.237-0.135,1.604-0.401C180.424,485.517,180.607,485.167,180.607,484.735z"/>
	<path fill="#1A1A1A" d="M192.118,484.735c0-0.477-0.195-0.837-0.587-1.086c-0.391-0.249-1.043-0.467-1.948-0.657
		c-0.908-0.192-1.664-0.433-2.271-0.727c-1.334-0.643-1.997-1.574-1.997-2.797c0-1.025,0.43-1.881,1.295-2.568
		c0.862-0.686,1.961-1.032,3.291-1.032c1.42,0,2.565,0.354,3.441,1.052c0.872,0.705,1.31,1.615,1.31,2.735h-2.666
		c0-0.514-0.189-0.939-0.569-1.279c-0.382-0.339-0.889-0.51-1.516-0.51c-0.586,0-1.063,0.135-1.432,0.405
		c-0.371,0.27-0.554,0.633-0.554,1.088c0,0.409,0.169,0.727,0.517,0.953c0.343,0.229,1.036,0.458,2.083,0.686
		c1.049,0.232,1.869,0.506,2.464,0.824c0.597,0.318,1.039,0.7,1.328,1.146c0.288,0.447,0.434,0.99,0.434,1.624
		c0,1.068-0.442,1.936-1.328,2.597c-0.882,0.663-2.046,0.992-3.479,0.992c-0.973,0-1.841-0.177-2.602-0.525
		c-0.762-0.353-1.354-0.837-1.776-1.45c-0.426-0.613-0.638-1.274-0.638-1.985h2.59c0.036,0.628,0.276,1.115,0.717,1.455
		c0.437,0.338,1.019,0.51,1.742,0.51c0.7,0,1.236-0.135,1.604-0.401C191.936,485.517,192.118,485.167,192.118,484.735z"/>
</g>
<g>
	<defs>
		<rect id="SVGID_9_" x="39.173" y="440.147" width="186.202" height="78.993"/>
	</defs>
	<clipPath id="SVGID_8_">
		<use xlink:href="#SVGID_9_"  overflow="visible"/>
	</clipPath>
	<use xlink:href="#SVGID_9_"  overflow="visible" fill="none" stroke="#1A1A1A" stroke-width="3" stroke-miterlimit="10"/>
</g>
<rect x="302.287" y="377.323" fill="#1A1A1A" width="206.93" height="206.93"/>
<g>
	<path fill="#FFFFFF" d="M350.468,484.735c0-0.477-0.196-0.837-0.586-1.086c-0.393-0.249-1.045-0.467-1.95-0.657
		c-0.908-0.192-1.664-0.433-2.272-0.727c-1.33-0.643-1.995-1.574-1.995-2.797c0-1.025,0.428-1.881,1.295-2.568
		c0.863-0.686,1.96-1.032,3.29-1.032c1.42,0,2.568,0.354,3.44,1.052c0.872,0.705,1.31,1.615,1.31,2.735h-2.663
		c0-0.514-0.192-0.939-0.571-1.279c-0.382-0.339-0.886-0.51-1.516-0.51c-0.587,0-1.062,0.135-1.433,0.405
		c-0.371,0.27-0.554,0.633-0.554,1.088c0,0.409,0.173,0.727,0.518,0.953c0.343,0.229,1.037,0.458,2.081,0.686
		c1.051,0.232,1.87,0.506,2.467,0.824s1.037,0.7,1.326,1.146c0.289,0.447,0.436,0.99,0.436,1.624c0,1.068-0.443,1.936-1.329,2.597
		c-0.885,0.663-2.045,0.992-3.479,0.992c-0.974,0-1.841-0.177-2.602-0.525c-0.762-0.353-1.352-0.837-1.778-1.45
		c-0.423-0.613-0.635-1.274-0.635-1.985h2.591c0.035,0.628,0.274,1.115,0.713,1.455c0.438,0.338,1.02,0.51,1.745,0.51
		c0.702,0,1.235-0.135,1.603-0.401C350.284,485.517,350.468,485.167,350.468,484.735z"/>
	<path fill="#FFFFFF" d="M360.436,488.181c-1.688,0-3.059-0.53-4.109-1.596c-1.05-1.064-1.575-2.481-1.575-4.252v-0.33
		c0-1.185,0.229-2.243,0.688-3.175c0.457-0.935,1.097-1.663,1.924-2.18c0.83-0.521,1.748-0.78,2.766-0.78
		c1.618,0,2.865,0.517,3.75,1.55c0.88,1.029,1.321,2.489,1.321,4.376v1.075h-7.759c0.08,0.981,0.407,1.757,0.981,2.327
		c0.576,0.57,1.298,0.855,2.168,0.855c1.22,0,2.217-0.493,2.985-1.48l1.437,1.371c-0.476,0.71-1.109,1.261-1.903,1.65
		C362.314,487.985,361.424,488.181,360.436,488.181z M360.117,478.008c-0.731,0-1.321,0.258-1.771,0.771
		c-0.45,0.51-0.737,1.225-0.862,2.138h5.082v-0.197c-0.061-0.892-0.3-1.565-0.716-2.025
		C361.434,478.237,360.858,478.008,360.117,478.008z"/>
	<path fill="#FFFFFF" d="M369.784,476.088l0.082,1.372c0.876-1.061,2.027-1.592,3.454-1.592c2.473,0,3.729,1.417,3.773,4.245v7.848
		h-2.665v-7.691c0-0.753-0.162-1.311-0.49-1.674c-0.323-0.359-0.857-0.543-1.595-0.543c-1.075,0-1.875,0.485-2.404,1.46v8.448
		h-2.665v-11.873H369.784z"/>
	<path fill="#FFFFFF" d="M386.331,484.735c0-0.477-0.195-0.837-0.585-1.086c-0.393-0.249-1.042-0.467-1.952-0.657
		c-0.905-0.192-1.662-0.433-2.27-0.727c-1.332-0.643-1.996-1.574-1.996-2.797c0-1.025,0.431-1.881,1.294-2.568
		c0.864-0.686,1.961-1.032,3.293-1.032c1.418,0,2.565,0.354,3.438,1.052c0.877,0.705,1.313,1.615,1.313,2.735H386.2
		c0-0.514-0.189-0.939-0.57-1.279c-0.381-0.339-0.889-0.51-1.515-0.51c-0.586,0-1.064,0.135-1.431,0.405
		c-0.371,0.27-0.557,0.633-0.557,1.088c0,0.409,0.175,0.727,0.517,0.953c0.345,0.229,1.038,0.458,2.084,0.686
		c1.046,0.232,1.869,0.506,2.466,0.824c0.595,0.318,1.037,0.7,1.326,1.146c0.288,0.447,0.434,0.99,0.434,1.624
		c0,1.068-0.444,1.936-1.328,2.597c-0.888,0.663-2.047,0.992-3.48,0.992c-0.972,0-1.838-0.177-2.6-0.525
		c-0.761-0.353-1.354-0.837-1.776-1.45s-0.636-1.274-0.636-1.985h2.589c0.035,0.628,0.273,1.115,0.714,1.455
		c0.438,0.338,1.019,0.51,1.743,0.51c0.703,0,1.236-0.135,1.604-0.401C386.147,485.517,386.331,485.167,386.331,484.735z"/>
	<path fill="#FFFFFF" d="M396.303,488.181c-1.69,0-3.063-0.53-4.111-1.596c-1.048-1.064-1.573-2.481-1.573-4.252v-0.33
		c0-1.185,0.229-2.243,0.685-3.175c0.458-0.935,1.098-1.663,1.926-2.18c0.826-0.521,1.748-0.78,2.766-0.78
		c1.614,0,2.866,0.517,3.747,1.55c0.883,1.029,1.324,2.489,1.324,4.376v1.075h-7.759c0.08,0.981,0.407,1.757,0.981,2.327
		s1.297,0.855,2.168,0.855c1.221,0,2.217-0.493,2.984-1.48l1.437,1.371c-0.476,0.71-1.109,1.261-1.903,1.65
		C398.18,487.985,397.291,488.181,396.303,488.181z M395.983,478.008c-0.731,0-1.322,0.258-1.772,0.771
		c-0.448,0.51-0.738,1.225-0.861,2.138h5.081v-0.197c-0.06-0.892-0.297-1.565-0.712-2.025
		C397.302,478.237,396.721,478.008,395.983,478.008z"/>
	<path fill="#FFFFFF" d="M408.756,482.245h-5.761v-2.151h5.761V482.245z"/>
	<path fill="#FFFFFF" d="M416.17,486.052c0.668,0,1.218-0.194,1.657-0.58c0.438-0.39,0.673-0.869,0.701-1.438h2.515
		c-0.027,0.738-0.26,1.428-0.69,2.068c-0.433,0.641-1.019,1.146-1.754,1.518c-0.741,0.375-1.539,0.561-2.396,0.561
		c-1.66,0-2.977-0.536-3.949-1.613c-0.973-1.073-1.459-2.56-1.459-4.453v-0.277c0-1.805,0.482-3.251,1.448-4.338
		c0.965-1.086,2.282-1.631,3.95-1.631c1.414,0,2.561,0.411,3.452,1.235c0.888,0.823,1.355,1.905,1.398,3.244h-2.515
		c-0.028-0.682-0.262-1.242-0.695-1.681c-0.433-0.438-0.987-0.659-1.663-0.659c-0.862,0-1.528,0.314-1.995,0.938
		c-0.471,0.628-0.707,1.574-0.714,2.849v0.43c0,1.286,0.23,2.246,0.697,2.88C414.622,485.737,415.293,486.052,416.17,486.052z"/>
	<path fill="#FFFFFF" d="M425.73,477.384c0.868-1.012,1.972-1.516,3.301-1.516c2.532,0,3.816,1.444,3.854,4.336v7.757h-2.669v-7.659
		c0-0.818-0.174-1.399-0.529-1.738c-0.356-0.34-0.879-0.511-1.564-0.511c-1.069,0-1.867,0.476-2.392,1.427v8.481h-2.669v-16.852
		h2.669V477.384z"/>
	<path fill="#FFFFFF" d="M440.717,488.181c-1.69,0-3.061-0.53-4.11-1.596c-1.049-1.064-1.574-2.481-1.574-4.252v-0.33
		c0-1.185,0.229-2.243,0.685-3.175c0.46-0.935,1.102-1.663,1.926-2.18c0.828-0.521,1.751-0.78,2.767-0.78
		c1.617,0,2.866,0.517,3.748,1.55c0.881,1.029,1.324,2.489,1.324,4.376v1.075h-7.76c0.079,0.981,0.409,1.757,0.981,2.327
		c0.573,0.57,1.297,0.855,2.168,0.855c1.22,0,2.217-0.493,2.985-1.48l1.437,1.371c-0.478,0.71-1.11,1.261-1.903,1.65
		C442.596,487.985,441.706,488.181,440.717,488.181z M440.399,478.008c-0.734,0-1.324,0.258-1.775,0.771
		c-0.446,0.51-0.736,1.225-0.858,2.138h5.079v-0.197c-0.059-0.892-0.293-1.565-0.711-2.025
		C441.718,478.237,441.138,478.008,440.399,478.008z"/>
	<path fill="#FFFFFF" d="M454.067,484.735c0-0.477-0.196-0.837-0.587-1.086c-0.392-0.249-1.04-0.467-1.946-0.657
		c-0.907-0.192-1.665-0.433-2.272-0.727c-1.334-0.643-1.997-1.574-1.997-2.797c0-1.025,0.431-1.881,1.295-2.568
		c0.863-0.686,1.96-1.032,3.294-1.032c1.418,0,2.563,0.354,3.438,1.052c0.875,0.705,1.312,1.615,1.312,2.735h-2.667
		c0-0.514-0.188-0.939-0.568-1.279c-0.381-0.339-0.889-0.51-1.515-0.51c-0.586,0-1.064,0.135-1.432,0.405
		c-0.37,0.27-0.556,0.633-0.556,1.088c0,0.409,0.173,0.727,0.517,0.953c0.342,0.229,1.036,0.458,2.083,0.686
		c1.047,0.232,1.868,0.506,2.465,0.824s1.039,0.7,1.326,1.146c0.288,0.447,0.434,0.99,0.434,1.624c0,1.068-0.443,1.936-1.328,2.597
		c-0.885,0.663-2.044,0.992-3.477,0.992c-0.974,0-1.84-0.177-2.602-0.525c-0.761-0.353-1.356-0.837-1.777-1.45
		c-0.425-0.613-0.636-1.274-0.636-1.985h2.589c0.034,0.628,0.273,1.115,0.716,1.455c0.438,0.338,1.017,0.51,1.741,0.51
		c0.703,0,1.237-0.135,1.604-0.401C453.884,485.517,454.067,485.167,454.067,484.735z"/>
	<path fill="#FFFFFF" d="M465.578,484.735c0-0.477-0.195-0.837-0.587-1.086c-0.391-0.249-1.043-0.467-1.948-0.657
		c-0.908-0.192-1.664-0.433-2.271-0.727c-1.334-0.643-1.997-1.574-1.997-2.797c0-1.025,0.43-1.881,1.295-2.568
		c0.862-0.686,1.961-1.032,3.291-1.032c1.42,0,2.565,0.354,3.441,1.052c0.872,0.705,1.31,1.615,1.31,2.735h-2.666
		c0-0.514-0.189-0.939-0.569-1.279c-0.382-0.339-0.889-0.51-1.516-0.51c-0.586,0-1.063,0.135-1.432,0.405
		c-0.371,0.27-0.554,0.633-0.554,1.088c0,0.409,0.169,0.727,0.517,0.953c0.343,0.229,1.036,0.458,2.083,0.686
		c1.049,0.232,1.869,0.506,2.464,0.824c0.597,0.318,1.039,0.7,1.328,1.146c0.288,0.447,0.434,0.99,0.434,1.624
		c0,1.068-0.442,1.936-1.328,2.597c-0.882,0.663-2.046,0.992-3.479,0.992c-0.973,0-1.841-0.177-2.602-0.525
		c-0.762-0.353-1.354-0.837-1.776-1.45c-0.426-0.613-0.638-1.274-0.638-1.985h2.59c0.036,0.628,0.276,1.115,0.717,1.455
		c0.437,0.338,1.019,0.51,1.742,0.51c0.7,0,1.236-0.135,1.604-0.401C465.396,485.517,465.578,485.167,465.578,484.735z"/>
</g>
<g>
	<defs>
		<rect id="SVGID_11_" x="312.633" y="440.147" width="186.202" height="78.993"/>
	</defs>
	<clipPath id="SVGID_10_">
		<use xlink:href="#SVGID_11_"  overflow="visible"/>
	</clipPath>
	<use xlink:href="#SVGID_11_"  overflow="visible" fill="none" stroke="#FFFEFE" stroke-width="3" stroke-miterlimit="10"/>
</g>
<line fill="none" stroke="#E32386" stroke-width="0.5" stroke-miterlimit="10" x1="28.787" y1="244.859" x2="235.923" y2="244.859"/>
<line fill="none" stroke="#E32386" stroke-width="0.5" stroke-miterlimit="10" x1="248.136" y1="233.031" x2="248.136" y2="146"/>
<g>
	<path fill="#E32386" d="M29.281,268.396v-4.266h1.395c0.463,0,0.811,0.096,1.044,0.287s0.351,0.475,0.351,0.85
		c0,0.199-0.057,0.375-0.17,0.529s-0.268,0.272-0.463,0.356c0.23,0.064,0.412,0.187,0.546,0.368s0.201,0.396,0.201,0.646
		c0,0.383-0.124,0.684-0.372,0.902s-0.599,0.328-1.052,0.328H29.281z M29.844,265.949h0.85c0.246,0,0.442-0.062,0.591-0.185
		c0.146-0.123,0.221-0.291,0.221-0.502c0-0.235-0.068-0.406-0.205-0.512c-0.137-0.107-0.345-0.16-0.624-0.16h-0.832V265.949z
		 M29.844,266.4v1.535h0.929c0.262,0,0.468-0.068,0.619-0.204s0.228-0.323,0.228-0.561c0-0.514-0.279-0.771-0.838-0.771H29.844z"/>
	<path fill="#E32386" d="M32.788,266.781c0-0.311,0.061-0.59,0.183-0.838s0.292-0.439,0.51-0.574s0.467-0.202,0.746-0.202
		c0.432,0,0.781,0.149,1.047,0.448c0.268,0.299,0.4,0.696,0.4,1.192v0.038c0,0.309-0.06,0.585-0.178,0.831s-0.287,0.436-0.506,0.573
		c-0.221,0.137-0.473,0.205-0.758,0.205c-0.43,0-0.777-0.149-1.045-0.448c-0.266-0.299-0.399-0.694-0.399-1.187V266.781z
		 M33.333,266.846c0,0.352,0.081,0.634,0.245,0.847c0.162,0.213,0.381,0.319,0.654,0.319c0.275,0,0.494-0.108,0.656-0.324
		s0.243-0.518,0.243-0.907c0-0.348-0.083-0.629-0.247-0.845c-0.166-0.216-0.385-0.324-0.658-0.324c-0.268,0-0.483,0.106-0.647,0.319
		S33.333,266.449,33.333,266.846z"/>
	<path fill="#E32386" d="M36.222,266.784c0-0.486,0.115-0.877,0.346-1.173s0.532-0.444,0.905-0.444c0.371,0,0.665,0.127,0.882,0.381
		v-1.652h0.542v4.5h-0.498l-0.026-0.34c-0.217,0.266-0.519,0.398-0.905,0.398c-0.367,0-0.666-0.15-0.898-0.451
		c-0.23-0.301-0.347-0.693-0.347-1.178V266.784z M36.764,266.846c0,0.359,0.074,0.641,0.223,0.844s0.354,0.305,0.615,0.305
		c0.344,0,0.595-0.154,0.753-0.463v-1.456c-0.162-0.299-0.411-0.448-0.747-0.448c-0.266,0-0.473,0.103-0.621,0.308
		S36.764,266.443,36.764,266.846z"/>
	<path fill="#E32386" d="M40.774,267.602l0.738-2.376h0.58l-1.274,3.659c-0.197,0.527-0.511,0.791-0.94,0.791l-0.103-0.009
		l-0.202-0.038v-0.439l0.146,0.012c0.184,0,0.326-0.037,0.43-0.111c0.102-0.074,0.187-0.21,0.253-0.407l0.12-0.322l-1.131-3.135
		h0.592L40.774,267.602z"/>
	<path fill="#E32386" d="M45.189,266.805h-1.43v-0.442h1.43V266.805z"/>
	<path fill="#E32386" d="M49.733,265.243c0,0.213-0.057,0.402-0.168,0.568c-0.113,0.166-0.265,0.296-0.456,0.39
		c0.223,0.096,0.398,0.235,0.528,0.419s0.195,0.392,0.195,0.624c0,0.369-0.125,0.663-0.373,0.882
		c-0.25,0.219-0.577,0.328-0.983,0.328c-0.41,0-0.739-0.11-0.985-0.33c-0.248-0.22-0.371-0.513-0.371-0.88
		c0-0.23,0.063-0.438,0.189-0.624c0.125-0.186,0.3-0.326,0.522-0.422c-0.189-0.094-0.339-0.224-0.448-0.39s-0.164-0.354-0.164-0.565
		c0-0.359,0.115-0.645,0.346-0.855s0.534-0.316,0.911-0.316c0.375,0,0.679,0.105,0.909,0.316
		C49.618,264.599,49.733,264.884,49.733,265.243z M49.291,267.232c0-0.238-0.076-0.433-0.228-0.583s-0.349-0.226-0.593-0.226
		s-0.44,0.074-0.587,0.223c-0.148,0.148-0.222,0.344-0.222,0.586s0.071,0.433,0.216,0.571c0.143,0.139,0.343,0.208,0.599,0.208
		c0.254,0,0.453-0.07,0.598-0.209S49.291,267.473,49.291,267.232z M48.477,264.517c-0.213,0-0.386,0.066-0.517,0.198
		c-0.133,0.132-0.198,0.311-0.198,0.538c0,0.217,0.064,0.392,0.194,0.526s0.304,0.201,0.521,0.201s0.39-0.067,0.521-0.201
		c0.129-0.134,0.194-0.309,0.194-0.526s-0.067-0.394-0.202-0.53S48.684,264.517,48.477,264.517z"/>
	<path fill="#E32386" d="M50.554,269.245l-0.308-0.211c0.184-0.256,0.279-0.52,0.287-0.791v-0.489h0.53v0.425
		c0,0.197-0.049,0.395-0.145,0.592C50.821,268.968,50.7,269.126,50.554,269.245z"/>
	<path fill="#E32386" d="M51.942,266.257l0.217-2.127h2.186v0.501h-1.726l-0.129,1.163c0.209-0.123,0.446-0.185,0.712-0.185
		c0.389,0,0.697,0.128,0.926,0.385s0.343,0.604,0.343,1.042c0,0.439-0.118,0.786-0.356,1.039c-0.236,0.253-0.568,0.379-0.994,0.379
		c-0.377,0-0.685-0.104-0.923-0.313s-0.374-0.498-0.407-0.867h0.513c0.033,0.244,0.12,0.428,0.261,0.552s0.326,0.186,0.557,0.186
		c0.252,0,0.449-0.086,0.594-0.258c0.143-0.172,0.215-0.409,0.215-0.712c0-0.285-0.078-0.514-0.232-0.687
		c-0.156-0.173-0.362-0.259-0.62-0.259c-0.236,0-0.422,0.052-0.557,0.155l-0.144,0.117L51.942,266.257z"/>
	<path fill="#E32386" d="M57.796,266.846c0,0.482-0.11,0.871-0.331,1.166s-0.52,0.442-0.896,0.442c-0.385,0-0.688-0.122-0.908-0.366
		v1.526h-0.542v-4.389h0.495l0.026,0.352c0.221-0.273,0.527-0.41,0.92-0.41c0.381,0,0.682,0.144,0.904,0.431
		c0.221,0.287,0.332,0.687,0.332,1.198V266.846z M57.254,266.784c0-0.357-0.076-0.64-0.229-0.847s-0.361-0.311-0.627-0.311
		c-0.328,0-0.574,0.146-0.738,0.437v1.515c0.162,0.289,0.41,0.434,0.744,0.434c0.26,0,0.466-0.103,0.62-0.309
		C57.177,267.497,57.254,267.19,57.254,266.784z"/>
	<path fill="#E32386" d="M59.22,264.458v0.768h0.592v0.419H59.22v1.968c0,0.127,0.026,0.223,0.079,0.286s0.143,0.095,0.27,0.095
		c0.063,0,0.148-0.012,0.258-0.035v0.437c-0.143,0.039-0.281,0.058-0.416,0.058c-0.242,0-0.425-0.073-0.548-0.22
		s-0.185-0.354-0.185-0.624v-1.966h-0.577v-0.419h0.577v-0.768H59.22z"/>
</g>
<g>
	<path fill="#E32386" d="M30.846,275.629h-1.002v1.726h-0.565v-4.266h1.412c0.48,0,0.85,0.109,1.109,0.328
		c0.258,0.219,0.388,0.537,0.388,0.955c0,0.266-0.071,0.497-0.216,0.694c-0.143,0.197-0.343,0.345-0.599,0.442l1.002,1.811v0.035
		h-0.604L30.846,275.629z M29.844,275.169h0.864c0.279,0,0.501-0.072,0.666-0.217c0.165-0.145,0.248-0.338,0.248-0.581
		c0-0.264-0.079-0.467-0.236-0.607c-0.157-0.141-0.384-0.212-0.681-0.214h-0.861V275.169z"/>
	<path fill="#E32386" d="M34.848,277.355c-0.031-0.063-0.057-0.174-0.076-0.334c-0.252,0.262-0.553,0.393-0.902,0.393
		c-0.313,0-0.569-0.088-0.77-0.265s-0.3-0.401-0.3-0.672c0-0.33,0.125-0.586,0.376-0.769s0.604-0.274,1.06-0.274h0.527v-0.249
		c0-0.189-0.057-0.34-0.17-0.453s-0.28-0.168-0.501-0.168c-0.193,0-0.355,0.049-0.486,0.146s-0.196,0.216-0.196,0.354h-0.545
		c0-0.158,0.056-0.311,0.169-0.458c0.111-0.147,0.264-0.264,0.457-0.35c0.191-0.086,0.403-0.129,0.634-0.129
		c0.365,0,0.651,0.091,0.858,0.274s0.314,0.434,0.322,0.754v1.459c0,0.291,0.037,0.522,0.111,0.694v0.047H34.848z M33.948,276.942
		c0.17,0,0.331-0.044,0.483-0.132s0.263-0.202,0.331-0.343v-0.65h-0.425c-0.664,0-0.996,0.194-0.996,0.583
		c0,0.17,0.057,0.303,0.17,0.398S33.771,276.942,33.948,276.942z"/>
	<path fill="#E32386" d="M36.696,274.569c0.24-0.295,0.553-0.442,0.938-0.442c0.67,0,1.008,0.378,1.014,1.134v2.095h-0.542v-2.098
		c-0.002-0.229-0.055-0.397-0.156-0.507c-0.104-0.109-0.263-0.164-0.479-0.164c-0.176,0-0.33,0.047-0.463,0.141
		s-0.236,0.217-0.311,0.369v2.259h-0.542v-4.5h0.542V274.569z"/>
	<path fill="#E32386" d="M39.969,274.185l0.015,0.352c0.232-0.273,0.546-0.41,0.94-0.41c0.443,0,0.745,0.17,0.905,0.51
		c0.105-0.152,0.242-0.275,0.411-0.369s0.369-0.141,0.6-0.141c0.695,0,1.049,0.368,1.061,1.104v2.124h-0.542v-2.092
		c0-0.227-0.052-0.396-0.155-0.508s-0.277-0.168-0.521-0.168c-0.201,0-0.368,0.06-0.501,0.18s-0.21,0.282-0.231,0.485v2.104h-0.545
		v-2.077c0-0.461-0.226-0.691-0.677-0.691c-0.355,0-0.599,0.151-0.729,0.454v2.314h-0.542v-3.17H39.969z"/>
	<path fill="#E32386" d="M46.033,277.414c-0.43,0-0.779-0.141-1.049-0.423s-0.404-0.66-0.404-1.132v-0.1
		c0-0.314,0.06-0.595,0.181-0.842c0.119-0.247,0.287-0.44,0.504-0.58c0.215-0.14,0.449-0.209,0.701-0.209
		c0.412,0,0.732,0.136,0.961,0.407s0.343,0.66,0.343,1.166v0.226h-2.147c0.008,0.313,0.099,0.565,0.273,0.757
		s0.397,0.289,0.667,0.289c0.191,0,0.354-0.039,0.486-0.117s0.249-0.182,0.349-0.311l0.331,0.258
		C46.963,277.209,46.564,277.414,46.033,277.414z M45.966,274.572c-0.219,0-0.402,0.08-0.551,0.239s-0.24,0.382-0.275,0.669h1.588
		v-0.041c-0.016-0.275-0.09-0.489-0.223-0.64S46.192,274.572,45.966,274.572z"/>
	<path fill="#E32386" d="M48.409,274.185l0.018,0.398c0.242-0.305,0.559-0.457,0.949-0.457c0.67,0,1.008,0.378,1.014,1.134v2.095
		h-0.542v-2.098c-0.002-0.229-0.055-0.397-0.156-0.507c-0.104-0.109-0.263-0.164-0.479-0.164c-0.176,0-0.33,0.047-0.463,0.141
		s-0.236,0.217-0.311,0.369v2.259h-0.542v-3.17H48.409z"/>
	<path fill="#E32386" d="M53.82,275.764h-1.43v-0.442h1.43V275.764z"/>
	<path fill="#E32386" d="M57.559,277.355h-0.545v-3.612l-1.093,0.401v-0.492l1.553-0.583h0.085V277.355z"/>
	<path fill="#E32386" d="M61.88,275.805c0,0.482-0.11,0.871-0.331,1.166s-0.52,0.442-0.896,0.442c-0.385,0-0.688-0.122-0.908-0.366
		v1.526h-0.542v-4.389h0.495l0.026,0.352c0.221-0.273,0.527-0.41,0.92-0.41c0.381,0,0.682,0.144,0.904,0.431
		c0.221,0.287,0.332,0.687,0.332,1.198V275.805z M61.338,275.744c0-0.357-0.076-0.64-0.229-0.847s-0.361-0.311-0.627-0.311
		c-0.328,0-0.574,0.146-0.738,0.437v1.515c0.162,0.289,0.41,0.434,0.744,0.434c0.26,0,0.466-0.103,0.62-0.309
		C61.261,276.456,61.338,276.15,61.338,275.744z"/>
	<path fill="#E32386" d="M63.304,273.417v0.768h0.592v0.419h-0.592v1.968c0,0.127,0.026,0.223,0.079,0.286s0.143,0.095,0.27,0.095
		c0.063,0,0.148-0.012,0.258-0.035v0.437c-0.143,0.039-0.281,0.058-0.416,0.058c-0.242,0-0.425-0.073-0.548-0.22
		s-0.185-0.354-0.185-0.624v-1.966h-0.577v-0.419h0.577v-0.768H63.304z"/>
</g>
<g>
	<path fill="#E32386" d="M109.347,303.557h-0.545v-3.612l-1.093,0.401v-0.492l1.553-0.583h0.085V303.557z"/>
	<path fill="#E32386" d="M113.609,301.737c0,0.635-0.108,1.106-0.325,1.415s-0.556,0.463-1.017,0.463
		c-0.455,0-0.792-0.151-1.011-0.453s-0.332-0.752-0.34-1.352v-0.724c0-0.627,0.108-1.093,0.325-1.397s0.557-0.457,1.02-0.457
		c0.459,0,0.797,0.147,1.014,0.441s0.328,0.748,0.334,1.361V301.737z M113.067,300.996c0-0.459-0.064-0.793-0.193-1.003
		s-0.333-0.315-0.612-0.315c-0.277,0-0.479,0.104-0.606,0.313s-0.192,0.53-0.196,0.964v0.867c0,0.461,0.066,0.801,0.201,1.021
		c0.133,0.22,0.336,0.33,0.607,0.33c0.268,0,0.466-0.104,0.596-0.311s0.198-0.533,0.204-0.979V300.996z"/>
	<path fill="#E32386" d="M114.342,304.406l-0.308-0.211c0.184-0.256,0.279-0.52,0.287-0.791v-0.489h0.53v0.425
		c0,0.197-0.049,0.395-0.145,0.592C114.609,304.129,114.488,304.287,114.342,304.406z"/>
	<path fill="#E32386" d="M115.73,301.418l0.217-2.127h2.186v0.501h-1.726l-0.129,1.163c0.209-0.123,0.446-0.185,0.712-0.185
		c0.389,0,0.697,0.128,0.926,0.385s0.343,0.604,0.343,1.042c0,0.439-0.118,0.786-0.356,1.039c-0.236,0.253-0.568,0.379-0.994,0.379
		c-0.377,0-0.685-0.104-0.923-0.313s-0.374-0.498-0.407-0.867h0.513c0.033,0.244,0.12,0.428,0.261,0.552s0.326,0.186,0.557,0.186
		c0.252,0,0.449-0.086,0.594-0.258c0.143-0.172,0.215-0.409,0.215-0.712c0-0.285-0.078-0.514-0.232-0.687
		c-0.156-0.173-0.362-0.259-0.62-0.259c-0.236,0-0.422,0.052-0.557,0.155l-0.144,0.117L115.73,301.418z"/>
	<path fill="#E32386" d="M120.901,300.387l0.015,0.352c0.232-0.273,0.546-0.41,0.94-0.41c0.443,0,0.745,0.17,0.905,0.51
		c0.105-0.152,0.242-0.275,0.411-0.369s0.369-0.141,0.6-0.141c0.695,0,1.049,0.368,1.061,1.104v2.124h-0.542v-2.092
		c0-0.227-0.052-0.396-0.155-0.508s-0.277-0.168-0.521-0.168c-0.201,0-0.368,0.06-0.501,0.18s-0.21,0.282-0.231,0.485v2.104h-0.545
		v-2.077c0-0.461-0.226-0.691-0.677-0.691c-0.355,0-0.599,0.151-0.729,0.454v2.314h-0.542v-3.17H120.901z"/>
	<path fill="#E32386" d="M126.16,300.387l0.015,0.352c0.232-0.273,0.546-0.41,0.94-0.41c0.443,0,0.745,0.17,0.905,0.51
		c0.105-0.152,0.242-0.275,0.411-0.369s0.369-0.141,0.6-0.141c0.695,0,1.049,0.368,1.061,1.104v2.124h-0.542v-2.092
		c0-0.227-0.052-0.396-0.155-0.508s-0.277-0.168-0.521-0.168c-0.201,0-0.368,0.06-0.501,0.18s-0.21,0.282-0.231,0.485v2.104h-0.545
		v-2.077c0-0.461-0.226-0.691-0.677-0.691c-0.355,0-0.599,0.151-0.729,0.454v2.314h-0.542v-3.17H126.16z"/>
</g>
<g>
	<path fill="#E32386" d="M239.526,482.356l0.217-2.127h2.186v0.501h-1.726l-0.129,1.163c0.209-0.123,0.446-0.185,0.712-0.185
		c0.389,0,0.697,0.129,0.926,0.385c0.229,0.258,0.343,0.604,0.343,1.042c0,0.439-0.118,0.786-0.356,1.038
		c-0.236,0.254-0.568,0.38-0.994,0.38c-0.377,0-0.685-0.104-0.923-0.313s-0.374-0.498-0.407-0.867h0.513
		c0.033,0.244,0.12,0.428,0.261,0.553c0.141,0.123,0.326,0.186,0.557,0.186c0.252,0,0.449-0.086,0.594-0.258
		c0.143-0.172,0.215-0.409,0.215-0.712c0-0.285-0.078-0.515-0.232-0.687c-0.156-0.174-0.362-0.26-0.62-0.26
		c-0.236,0-0.422,0.052-0.557,0.155l-0.144,0.117L239.526,482.356z"/>
	<path fill="#E32386" d="M242.6,481.05c0-0.256,0.081-0.467,0.245-0.633c0.162-0.166,0.372-0.249,0.628-0.249
		c0.26,0,0.47,0.084,0.632,0.25c0.16,0.168,0.241,0.384,0.241,0.649v0.208c0,0.258-0.082,0.469-0.245,0.631
		c-0.163,0.164-0.37,0.245-0.622,0.245c-0.254,0-0.464-0.081-0.63-0.245c-0.166-0.162-0.249-0.38-0.249-0.651V481.05z
		 M243.004,481.274c0,0.152,0.043,0.278,0.129,0.377s0.201,0.148,0.346,0.148c0.139,0,0.251-0.048,0.335-0.144
		c0.086-0.096,0.128-0.228,0.128-0.395v-0.214c0-0.152-0.042-0.278-0.126-0.378c-0.084-0.101-0.198-0.15-0.343-0.15
		s-0.259,0.05-0.343,0.15c-0.084,0.1-0.126,0.229-0.126,0.391V481.274z M243.602,484.173l-0.308-0.193l2.083-3.334l0.308,0.193
		L243.602,484.173z M244.677,483.449c0-0.256,0.081-0.467,0.244-0.631c0.163-0.166,0.373-0.248,0.629-0.248s0.466,0.082,0.63,0.246
		s0.246,0.382,0.246,0.653v0.208c0,0.256-0.082,0.467-0.245,0.631c-0.163,0.166-0.371,0.248-0.625,0.248s-0.464-0.082-0.63-0.244
		c-0.166-0.164-0.249-0.381-0.249-0.652V483.449z M245.081,483.677c0,0.154,0.043,0.281,0.129,0.38
		c0.086,0.1,0.201,0.148,0.346,0.148c0.141,0,0.253-0.049,0.337-0.146s0.126-0.229,0.126-0.396v-0.217
		c0-0.154-0.043-0.281-0.127-0.379c-0.086-0.098-0.199-0.146-0.342-0.146c-0.139,0-0.252,0.049-0.338,0.146
		c-0.088,0.097-0.131,0.228-0.131,0.392V483.677z"/>
</g>
<rect x="41.438" y="298.129" fill="#C7C6C6" width="46.25" height="6.5"/>
<g>
	<path fill="#332C28" d="M44.189,303.36c0-0.207-0.078-0.368-0.234-0.483c-0.156-0.114-0.429-0.214-0.817-0.297
		s-0.697-0.183-0.925-0.299c-0.229-0.116-0.397-0.254-0.507-0.415c-0.109-0.16-0.164-0.352-0.164-0.573
		c0-0.368,0.155-0.679,0.467-0.934s0.709-0.383,1.193-0.383c0.509,0,0.922,0.132,1.239,0.395c0.316,0.263,0.475,0.6,0.475,1.009
		h-0.771c0-0.21-0.09-0.392-0.268-0.544c-0.179-0.152-0.404-0.229-0.675-0.229c-0.279,0-0.498,0.062-0.655,0.184
		c-0.158,0.121-0.237,0.28-0.237,0.477c0,0.186,0.073,0.325,0.22,0.42c0.146,0.094,0.412,0.184,0.795,0.27
		c0.384,0.085,0.694,0.188,0.932,0.306c0.238,0.12,0.415,0.263,0.529,0.43c0.115,0.168,0.173,0.372,0.173,0.612
		c0,0.402-0.161,0.723-0.481,0.965c-0.321,0.242-0.738,0.363-1.25,0.363c-0.359,0-0.678-0.063-0.954-0.191s-0.493-0.305-0.649-0.534
		c-0.156-0.228-0.234-0.475-0.234-0.74h0.768c0.014,0.257,0.117,0.461,0.309,0.612c0.193,0.15,0.447,0.226,0.762,0.226
		c0.291,0,0.523-0.059,0.699-0.176C44.102,303.714,44.189,303.557,44.189,303.36z"/>
	<path fill="#332C28" d="M47.744,304.635c-0.607,0-1.104-0.2-1.484-0.6c-0.383-0.4-0.574-0.935-0.574-1.604v-0.141
		c0-0.445,0.086-0.843,0.256-1.193c0.17-0.351,0.408-0.624,0.714-0.822c0.306-0.198,0.638-0.297,0.994-0.297
		c0.584,0,1.038,0.193,1.361,0.578s0.485,0.935,0.485,1.652v0.319h-3.042c0.011,0.442,0.141,0.8,0.388,1.073
		c0.248,0.272,0.563,0.408,0.945,0.408c0.271,0,0.5-0.055,0.688-0.166c0.189-0.111,0.354-0.257,0.494-0.44l0.469,0.366
		C49.063,304.346,48.498,304.635,47.744,304.635z M47.649,300.609c-0.31,0-0.569,0.113-0.78,0.339
		c-0.211,0.225-0.34,0.542-0.391,0.948h2.25v-0.059c-0.021-0.39-0.127-0.692-0.315-0.906
		C48.225,300.716,47.971,300.609,47.649,300.609z"/>
	<path fill="#332C28" d="M51.129,300.062l0.023,0.564c0.344-0.432,0.792-0.649,1.346-0.649c0.949,0,1.428,0.537,1.436,1.607v2.968
		h-0.768v-2.972c-0.003-0.324-0.076-0.563-0.223-0.718c-0.145-0.155-0.371-0.232-0.678-0.232c-0.25,0-0.468,0.066-0.656,0.199
		c-0.188,0.133-0.334,0.307-0.439,0.522v3.2h-0.768v-4.49H51.129z"/>
	<path fill="#332C28" d="M57.655,303.36c0-0.207-0.078-0.368-0.234-0.483c-0.156-0.114-0.429-0.214-0.817-0.297
		s-0.697-0.183-0.926-0.299c-0.229-0.116-0.396-0.254-0.506-0.415c-0.109-0.16-0.164-0.352-0.164-0.573
		c0-0.368,0.155-0.679,0.467-0.934c0.311-0.254,0.709-0.383,1.193-0.383c0.509,0,0.922,0.132,1.238,0.395s0.475,0.6,0.475,1.009
		h-0.771c0-0.21-0.089-0.392-0.268-0.544c-0.178-0.152-0.403-0.229-0.674-0.229c-0.279,0-0.498,0.062-0.656,0.184
		c-0.158,0.121-0.236,0.28-0.236,0.477c0,0.186,0.073,0.325,0.22,0.42c0.146,0.094,0.411,0.184,0.795,0.27
		c0.384,0.085,0.694,0.188,0.932,0.306c0.237,0.12,0.415,0.263,0.529,0.43c0.114,0.168,0.173,0.372,0.173,0.612
		c0,0.402-0.161,0.723-0.482,0.965c-0.32,0.242-0.737,0.363-1.249,0.363c-0.36,0-0.678-0.063-0.954-0.191
		c-0.277-0.127-0.494-0.305-0.65-0.534c-0.156-0.228-0.234-0.475-0.234-0.74h0.768c0.014,0.257,0.117,0.461,0.31,0.612
		c0.192,0.15,0.446,0.226,0.762,0.226c0.29,0,0.523-0.059,0.699-0.176C57.567,303.714,57.655,303.557,57.655,303.36z"/>
	<path fill="#332C28" d="M61.211,304.635c-0.609,0-1.104-0.2-1.486-0.6c-0.381-0.4-0.572-0.935-0.572-1.604v-0.141
		c0-0.445,0.085-0.843,0.255-1.193c0.171-0.351,0.408-0.624,0.714-0.822c0.306-0.198,0.637-0.297,0.994-0.297
		c0.584,0,1.037,0.193,1.361,0.578s0.486,0.935,0.486,1.652v0.319H59.92c0.012,0.442,0.141,0.8,0.389,1.073
		c0.247,0.272,0.563,0.408,0.943,0.408c0.271,0,0.501-0.055,0.689-0.166c0.188-0.111,0.353-0.257,0.494-0.44l0.469,0.366
		C62.527,304.346,61.963,304.635,61.211,304.635z M61.115,300.609c-0.311,0-0.57,0.113-0.78,0.339
		c-0.21,0.225-0.341,0.542-0.39,0.948h2.249v-0.059c-0.022-0.39-0.128-0.692-0.315-0.906
		C61.691,300.716,61.436,300.609,61.115,300.609z"/>
	<path fill="#332C28" d="M65.617,302.298h-2.025v-0.626h2.025V302.298z"/>
	<path fill="#332C28" d="M68.294,304.008c0.274,0,0.513-0.083,0.718-0.249s0.318-0.373,0.34-0.622h0.727
		c-0.014,0.257-0.102,0.502-0.266,0.734c-0.162,0.232-0.381,0.418-0.653,0.556c-0.272,0.139-0.562,0.208-0.865,0.208
		c-0.611,0-1.098-0.204-1.459-0.612c-0.36-0.408-0.542-0.966-0.542-1.675v-0.128c0-0.438,0.08-0.826,0.241-1.167
		c0.161-0.34,0.391-0.605,0.69-0.792c0.301-0.188,0.656-0.284,1.064-0.284c0.504,0,0.923,0.152,1.256,0.454
		c0.334,0.302,0.512,0.693,0.533,1.174h-0.727c-0.021-0.29-0.131-0.528-0.329-0.716c-0.198-0.187-0.442-0.28-0.733-0.28
		c-0.389,0-0.691,0.141-0.906,0.422c-0.215,0.28-0.322,0.687-0.322,1.217v0.146c0,0.518,0.107,0.916,0.32,1.195
		S67.898,304.008,68.294,304.008z"/>
	<path fill="#332C28" d="M71.727,300.605c0.341-0.418,0.783-0.627,1.328-0.627c0.949,0,1.428,0.537,1.437,1.607v2.968h-0.769v-2.972
		c-0.002-0.324-0.076-0.563-0.222-0.718c-0.146-0.155-0.371-0.232-0.679-0.232c-0.249,0-0.467,0.066-0.655,0.199
		s-0.335,0.307-0.44,0.522v3.2h-0.768v-6.375h0.768V300.605z"/>
	<path fill="#332C28" d="M77.47,304.635c-0.608,0-1.104-0.2-1.485-0.6c-0.382-0.4-0.573-0.935-0.573-1.604v-0.141
		c0-0.445,0.085-0.843,0.255-1.193c0.171-0.351,0.408-0.624,0.715-0.822c0.305-0.198,0.637-0.297,0.994-0.297
		c0.584,0,1.037,0.193,1.361,0.578c0.323,0.385,0.485,0.935,0.485,1.652v0.319H76.18c0.011,0.442,0.141,0.8,0.388,1.073
		c0.247,0.272,0.563,0.408,0.944,0.408c0.271,0,0.5-0.055,0.688-0.166c0.188-0.111,0.353-0.257,0.494-0.44l0.469,0.366
		C78.787,304.346,78.223,304.635,77.47,304.635z M77.375,300.609c-0.311,0-0.57,0.113-0.781,0.339
		c-0.21,0.225-0.34,0.542-0.39,0.948h2.249v-0.059c-0.021-0.39-0.127-0.692-0.314-0.906
		C77.95,300.716,77.695,300.609,77.375,300.609z"/>
	<path fill="#332C28" d="M82.674,303.36c0-0.207-0.078-0.368-0.234-0.483c-0.156-0.114-0.43-0.214-0.818-0.297
		s-0.697-0.183-0.926-0.299c-0.229-0.116-0.396-0.254-0.506-0.415c-0.109-0.16-0.164-0.352-0.164-0.573
		c0-0.368,0.156-0.679,0.467-0.934c0.312-0.254,0.709-0.383,1.193-0.383c0.51,0,0.922,0.132,1.238,0.395
		c0.317,0.263,0.476,0.6,0.476,1.009h-0.771c0-0.21-0.089-0.392-0.269-0.544c-0.178-0.152-0.402-0.229-0.674-0.229
		c-0.279,0-0.498,0.062-0.656,0.184c-0.157,0.121-0.236,0.28-0.236,0.477c0,0.186,0.074,0.325,0.221,0.42
		c0.146,0.094,0.411,0.184,0.795,0.27c0.383,0.085,0.693,0.188,0.932,0.306c0.237,0.12,0.414,0.263,0.529,0.43
		c0.114,0.168,0.172,0.372,0.172,0.612c0,0.402-0.16,0.723-0.481,0.965s-0.737,0.363-1.249,0.363c-0.36,0-0.678-0.063-0.955-0.191
		s-0.493-0.305-0.649-0.534c-0.156-0.228-0.234-0.475-0.234-0.74h0.768c0.014,0.257,0.116,0.461,0.31,0.612
		c0.191,0.15,0.445,0.226,0.762,0.226c0.29,0,0.523-0.059,0.699-0.176C82.586,303.714,82.674,303.557,82.674,303.36z"/>
	<path fill="#332C28" d="M87.021,303.36c0-0.207-0.078-0.368-0.234-0.483c-0.156-0.114-0.429-0.214-0.817-0.297
		s-0.697-0.183-0.925-0.299c-0.229-0.116-0.397-0.254-0.507-0.415c-0.109-0.16-0.164-0.352-0.164-0.573
		c0-0.368,0.155-0.679,0.467-0.934s0.709-0.383,1.193-0.383c0.509,0,0.922,0.132,1.239,0.395c0.316,0.263,0.475,0.6,0.475,1.009
		h-0.771c0-0.21-0.09-0.392-0.268-0.544c-0.179-0.152-0.404-0.229-0.675-0.229c-0.279,0-0.498,0.062-0.655,0.184
		c-0.158,0.121-0.237,0.28-0.237,0.477c0,0.186,0.073,0.325,0.22,0.42c0.146,0.094,0.412,0.184,0.795,0.27
		c0.384,0.085,0.694,0.188,0.932,0.306c0.238,0.12,0.415,0.263,0.529,0.43c0.115,0.168,0.173,0.372,0.173,0.612
		c0,0.402-0.161,0.723-0.481,0.965c-0.321,0.242-0.738,0.363-1.25,0.363c-0.359,0-0.678-0.063-0.954-0.191s-0.493-0.305-0.649-0.534
		c-0.156-0.228-0.234-0.475-0.234-0.74h0.768c0.014,0.257,0.117,0.461,0.309,0.612c0.193,0.15,0.447,0.226,0.762,0.226
		c0.291,0,0.523-0.059,0.699-0.176C86.934,303.714,87.021,303.557,87.021,303.36z"/>
</g>
<g>
	<defs>
		<rect id="SVGID_13_" x="29.156" y="286.5" width="70.866" height="29.764"/>
	</defs>
	<clipPath id="SVGID_12_">
		<use xlink:href="#SVGID_13_"  overflow="visible"/>
	</clipPath>
	<use xlink:href="#SVGID_13_"  overflow="visible" fill="none" stroke="#000000" stroke-miterlimit="10"/>
</g>
<g>
	<path fill="#332C28" d="M317.32,303.65c0-0.207-0.078-0.368-0.234-0.483c-0.156-0.114-0.429-0.214-0.817-0.297
		s-0.697-0.183-0.925-0.299c-0.229-0.116-0.397-0.254-0.507-0.415c-0.109-0.16-0.164-0.352-0.164-0.572
		c0-0.368,0.155-0.68,0.467-0.934c0.312-0.255,0.709-0.383,1.193-0.383c0.509,0,0.922,0.132,1.239,0.395
		c0.316,0.263,0.475,0.6,0.475,1.009h-0.771c0-0.21-0.09-0.392-0.268-0.544c-0.179-0.152-0.404-0.229-0.675-0.229
		c-0.279,0-0.498,0.062-0.655,0.184c-0.158,0.121-0.237,0.28-0.237,0.477c0,0.186,0.073,0.325,0.22,0.42
		c0.146,0.094,0.412,0.184,0.795,0.27c0.384,0.086,0.694,0.188,0.932,0.307c0.238,0.119,0.415,0.263,0.529,0.43
		c0.115,0.168,0.173,0.371,0.173,0.612c0,0.401-0.161,0.723-0.481,0.965c-0.321,0.242-0.738,0.363-1.25,0.363
		c-0.359,0-0.678-0.063-0.954-0.19c-0.276-0.128-0.493-0.306-0.649-0.534c-0.156-0.228-0.234-0.475-0.234-0.74h0.768
		c0.014,0.257,0.117,0.461,0.309,0.612c0.193,0.15,0.447,0.226,0.762,0.226c0.291,0,0.523-0.059,0.699-0.176
		C317.232,304.003,317.32,303.846,317.32,303.65z"/>
	<path fill="#332C28" d="M320.875,304.924c-0.607,0-1.104-0.2-1.484-0.6c-0.383-0.4-0.574-0.935-0.574-1.604v-0.141
		c0-0.445,0.086-0.844,0.256-1.193c0.17-0.351,0.408-0.624,0.714-0.822c0.306-0.197,0.638-0.297,0.994-0.297
		c0.584,0,1.038,0.192,1.361,0.577s0.485,0.936,0.485,1.652v0.319h-3.042c0.011,0.442,0.141,0.801,0.388,1.073
		c0.248,0.272,0.563,0.408,0.945,0.408c0.271,0,0.5-0.055,0.688-0.166c0.189-0.11,0.354-0.257,0.494-0.439l0.469,0.365
		C322.193,304.635,321.629,304.924,320.875,304.924z M320.78,300.898c-0.31,0-0.569,0.113-0.78,0.339s-0.34,0.542-0.391,0.948h2.25
		v-0.059c-0.021-0.39-0.127-0.692-0.315-0.906C321.355,301.005,321.102,300.898,320.78,300.898z"/>
	<path fill="#332C28" d="M324.26,300.351l0.023,0.564c0.344-0.432,0.792-0.648,1.346-0.648c0.949,0,1.428,0.536,1.436,1.606v2.968
		h-0.768v-2.972c-0.003-0.323-0.076-0.563-0.223-0.718c-0.145-0.155-0.371-0.232-0.678-0.232c-0.25,0-0.468,0.066-0.656,0.199
		c-0.188,0.133-0.334,0.307-0.439,0.522v3.2h-0.768v-4.49H324.26z"/>
	<path fill="#332C28" d="M330.786,303.65c0-0.207-0.078-0.368-0.234-0.483c-0.156-0.114-0.429-0.214-0.817-0.297
		s-0.697-0.183-0.926-0.299s-0.396-0.254-0.506-0.415c-0.109-0.16-0.164-0.352-0.164-0.572c0-0.368,0.155-0.68,0.467-0.934
		c0.311-0.255,0.709-0.383,1.193-0.383c0.509,0,0.922,0.132,1.238,0.395s0.475,0.6,0.475,1.009h-0.771
		c0-0.21-0.089-0.392-0.268-0.544c-0.178-0.152-0.403-0.229-0.674-0.229c-0.279,0-0.498,0.062-0.656,0.184
		c-0.158,0.121-0.236,0.28-0.236,0.477c0,0.186,0.073,0.325,0.22,0.42c0.146,0.094,0.411,0.184,0.795,0.27s0.694,0.188,0.932,0.307
		s0.415,0.263,0.529,0.43c0.114,0.168,0.173,0.371,0.173,0.612c0,0.401-0.161,0.723-0.482,0.965
		c-0.32,0.242-0.737,0.363-1.249,0.363c-0.36,0-0.678-0.063-0.954-0.19c-0.277-0.128-0.494-0.306-0.65-0.534
		c-0.156-0.228-0.234-0.475-0.234-0.74h0.768c0.014,0.257,0.117,0.461,0.31,0.612c0.192,0.15,0.446,0.226,0.762,0.226
		c0.29,0,0.523-0.059,0.699-0.176C330.698,304.003,330.786,303.846,330.786,303.65z"/>
	<path fill="#332C28" d="M334.342,304.924c-0.609,0-1.104-0.2-1.486-0.6c-0.381-0.4-0.572-0.935-0.572-1.604v-0.141
		c0-0.445,0.085-0.844,0.255-1.193c0.171-0.351,0.408-0.624,0.714-0.822c0.306-0.197,0.637-0.297,0.994-0.297
		c0.584,0,1.037,0.192,1.361,0.577s0.486,0.936,0.486,1.652v0.319h-3.043c0.012,0.442,0.141,0.801,0.389,1.073
		c0.247,0.272,0.563,0.408,0.943,0.408c0.271,0,0.501-0.055,0.689-0.166c0.188-0.11,0.353-0.257,0.494-0.439l0.469,0.365
		C335.658,304.635,335.094,304.924,334.342,304.924z M334.246,300.898c-0.311,0-0.57,0.113-0.78,0.339s-0.341,0.542-0.39,0.948
		h2.249v-0.059c-0.022-0.39-0.128-0.692-0.315-0.906C334.822,301.005,334.566,300.898,334.246,300.898z"/>
	<path fill="#332C28" d="M338.748,302.587h-2.025v-0.627h2.025V302.587z"/>
	<path fill="#332C28" d="M341.425,304.297c0.274,0,0.513-0.083,0.718-0.249s0.318-0.373,0.34-0.622h0.727
		c-0.014,0.257-0.102,0.502-0.266,0.734c-0.162,0.232-0.381,0.418-0.653,0.556c-0.272,0.139-0.562,0.208-0.865,0.208
		c-0.611,0-1.098-0.204-1.459-0.612c-0.36-0.408-0.542-0.966-0.542-1.675v-0.128c0-0.438,0.08-0.826,0.241-1.167
		c0.161-0.34,0.391-0.604,0.69-0.792c0.301-0.188,0.656-0.283,1.064-0.283c0.504,0,0.923,0.151,1.256,0.453
		c0.334,0.302,0.512,0.693,0.533,1.174h-0.727c-0.021-0.29-0.131-0.528-0.329-0.716c-0.198-0.187-0.442-0.28-0.733-0.28
		c-0.389,0-0.691,0.141-0.906,0.422c-0.215,0.28-0.322,0.687-0.322,1.218v0.146c0,0.518,0.107,0.916,0.32,1.195
		S341.029,304.297,341.425,304.297z"/>
	<path fill="#332C28" d="M344.857,300.894c0.341-0.418,0.783-0.627,1.328-0.627c0.949,0,1.428,0.536,1.437,1.606v2.968h-0.769
		v-2.972c-0.002-0.323-0.076-0.563-0.222-0.718c-0.146-0.155-0.371-0.232-0.679-0.232c-0.249,0-0.467,0.066-0.655,0.199
		s-0.335,0.307-0.44,0.522v3.2h-0.768v-6.375h0.768V300.894z"/>
	<path fill="#332C28" d="M350.601,304.924c-0.608,0-1.104-0.2-1.485-0.6c-0.382-0.4-0.573-0.935-0.573-1.604v-0.141
		c0-0.445,0.085-0.844,0.255-1.193c0.171-0.351,0.408-0.624,0.715-0.822c0.305-0.197,0.637-0.297,0.994-0.297
		c0.584,0,1.037,0.192,1.361,0.577c0.323,0.385,0.485,0.936,0.485,1.652v0.319h-3.042c0.011,0.442,0.141,0.801,0.388,1.073
		s0.563,0.408,0.944,0.408c0.271,0,0.5-0.055,0.688-0.166c0.188-0.11,0.353-0.257,0.494-0.439l0.469,0.365
		C351.918,304.635,351.354,304.924,350.601,304.924z M350.506,300.898c-0.311,0-0.57,0.113-0.781,0.339
		c-0.21,0.226-0.34,0.542-0.39,0.948h2.249v-0.059c-0.021-0.39-0.127-0.692-0.314-0.906
		C351.081,301.005,350.826,300.898,350.506,300.898z"/>
	<path fill="#332C28" d="M355.805,303.65c0-0.207-0.078-0.368-0.234-0.483c-0.156-0.114-0.43-0.214-0.818-0.297
		s-0.697-0.183-0.926-0.299s-0.396-0.254-0.506-0.415c-0.109-0.16-0.164-0.352-0.164-0.572c0-0.368,0.156-0.68,0.467-0.934
		c0.312-0.255,0.709-0.383,1.193-0.383c0.51,0,0.922,0.132,1.238,0.395c0.317,0.263,0.476,0.6,0.476,1.009h-0.771
		c0-0.21-0.089-0.392-0.269-0.544c-0.178-0.152-0.402-0.229-0.674-0.229c-0.279,0-0.498,0.062-0.656,0.184
		c-0.157,0.121-0.236,0.28-0.236,0.477c0,0.186,0.074,0.325,0.221,0.42c0.146,0.094,0.411,0.184,0.795,0.27
		c0.383,0.086,0.693,0.188,0.932,0.307c0.237,0.119,0.414,0.263,0.529,0.43c0.114,0.168,0.172,0.371,0.172,0.612
		c0,0.401-0.16,0.723-0.481,0.965s-0.737,0.363-1.249,0.363c-0.36,0-0.678-0.063-0.955-0.19c-0.277-0.128-0.493-0.306-0.649-0.534
		c-0.156-0.228-0.234-0.475-0.234-0.74h0.768c0.014,0.257,0.116,0.461,0.31,0.612c0.191,0.15,0.445,0.226,0.762,0.226
		c0.29,0,0.523-0.059,0.699-0.176C355.717,304.003,355.805,303.846,355.805,303.65z"/>
	<path fill="#332C28" d="M360.152,303.65c0-0.207-0.078-0.368-0.234-0.483c-0.156-0.114-0.429-0.214-0.817-0.297
		s-0.697-0.183-0.925-0.299c-0.229-0.116-0.397-0.254-0.507-0.415c-0.109-0.16-0.164-0.352-0.164-0.572
		c0-0.368,0.155-0.68,0.467-0.934c0.312-0.255,0.709-0.383,1.193-0.383c0.509,0,0.922,0.132,1.239,0.395
		c0.316,0.263,0.475,0.6,0.475,1.009h-0.771c0-0.21-0.09-0.392-0.268-0.544c-0.179-0.152-0.404-0.229-0.675-0.229
		c-0.279,0-0.498,0.062-0.655,0.184c-0.158,0.121-0.237,0.28-0.237,0.477c0,0.186,0.073,0.325,0.22,0.42
		c0.146,0.094,0.412,0.184,0.795,0.27c0.384,0.086,0.694,0.188,0.932,0.307c0.238,0.119,0.415,0.263,0.529,0.43
		c0.115,0.168,0.173,0.371,0.173,0.612c0,0.401-0.161,0.723-0.481,0.965c-0.321,0.242-0.738,0.363-1.25,0.363
		c-0.359,0-0.678-0.063-0.954-0.19c-0.276-0.128-0.493-0.306-0.649-0.534c-0.156-0.228-0.234-0.475-0.234-0.74h0.768
		c0.014,0.257,0.117,0.461,0.309,0.612c0.193,0.15,0.447,0.226,0.762,0.226c0.291,0,0.523-0.059,0.699-0.176
		C360.064,304.003,360.152,303.846,360.152,303.65z"/>
</g>
<g>
	<defs>
		<rect id="SVGID_15_" x="302.287" y="286.789" width="70.866" height="29.764"/>
	</defs>
	<clipPath id="SVGID_14_">
		<use xlink:href="#SVGID_15_"  overflow="visible"/>
	</clipPath>
	<use xlink:href="#SVGID_15_"  overflow="visible" fill="none" stroke="#000000" stroke-miterlimit="10"/>
</g>
<line fill="none" stroke="#E32386" stroke-width="0.5" stroke-miterlimit="10" x1="28.787" y1="321.839" x2="99.315" y2="321.839"/>
<line fill="none" stroke="#E32386" stroke-width="0.5" stroke-miterlimit="10" x1="225.375" y1="482.245" x2="235.757" y2="482.245"/>
<line fill="none" stroke="#E32386" stroke-width="0.5" stroke-miterlimit="10" x1="105.354" y1="316.264" x2="105.354" y2="286.5"/>
</svg>
