<?xml version="1.0" encoding="utf-8"?>
<!-- Generator: Adobe Illustrator 16.0.0, SVG Export Plug-In . SVG Version: 6.00 Build 0)  -->
<!DOCTYPE svg PUBLIC "-//W3C//DTD SVG 1.1//EN" "http://www.w3.org/Graphics/SVG/1.1/DTD/svg11.dtd">
<svg version="1.1"
	 id="Layer_1" xmlns:svg="http://www.w3.org/2000/svg" xmlns:rdf="http://www.w3.org/1999/02/22-rdf-syntax-ns#" xmlns:dc="http://purl.org/dc/elements/1.1/" xmlns:inkscape="http://www.inkscape.org/namespaces/inkscape" xmlns:sodipodi="http://sodipodi.sourceforge.net/DTD/sodipodi-0.dtd" xmlns:cc="http://creativecommons.org/ns#"
	 xmlns="http://www.w3.org/2000/svg" xmlns:xlink="http://www.w3.org/1999/xlink" x="0px" y="0px" width="2854px" height="1487.5px"
	 viewBox="-963.5 -47.5 2854 1487.5" enable-background="new -963.5 -47.5 2854 1487.5" xml:space="preserve">
<g transform="translate(0,-952.36216)">
	<path d="M1129.786,1489.807l0.633,64.614l-60.457,34.403l-132.973,148.094l63.54,71.326l188.844-80.236v45.045l-181.194,181.396
		c0.177,63.469,0.45,3.035,0.45,66.834l319.106,1l65.527-343.729l-112.885-156.773l-36.605,20.152h-23.711L1129.786,1489.807z
		 M1159.364,1539.577l47.894,31.112h47.832l19.168-10.952l90.227,126.918l-61.594,307.59l-265.912-0.328v-28.059l181.193-181.375
		v-99.225l-209.633,88.672l-32.399-36.359l111.754-125.82l72.73-40.814L1159.364,1539.577z"/>
</g>
<g transform="translate(0,-952.36216)">
	<path d="M-789.524,1557.536l-43.537,414.721h15.997h215.032l-42.592-414.721H-789.524z M-763.582,1586.336h92.948l36.674,357.12
		h-167.107L-763.582,1586.336z"/>
	<path d="M-881.707,2047.137v120.96h14.4h313.92v-120.96H-881.707z M-852.907,2075.937h270.721v63.359h-270.721V2075.937z"/>
	<path d="M-893.466,2191.137v28.8h347.84v-28.8H-893.466z"/>
	<path d="M-833.376,1258.017l45.067,224.64h11.813h129.713l45.067-224.64H-833.376z M-798.231,1286.816h161.369l-33.524,167.04
		h-94.32L-798.231,1286.816z"/>
	<path d="M-796.949,1206.177v28.8h158.805v-28.8H-796.949z"/>
	<path d="M-731.946,1067.937v138.24h28.799v-138.24H-731.946z"/>
	<path d="M-786.667,1122.656v28.8h138.24v-28.8H-786.667z"/>
	<path d="M-844.266,1995.296v28.801h253.439v-28.801H-844.266z"/>
	<path d="M-806.827,1505.696v28.8h178.561v-28.8H-806.827z"/>
</g>
<g transform="translate(0,-952.36216)">
	<path d="M192.805,1278.466L60.639,1476.737l54.631,95.625h154.957l50.221-87.885l-24.998-14.288l-41.939,73.373H131.986
		l-37.508-65.655l98.213-147.33l43.65,66.127l-32.58,49.681l24.075,15.795l42.997-65.521L192.805,1278.466z"/>
	<path d="M27.384,1995.483v28.801h312.3v-28.801H27.384z"/>
	<path d="M-13.813,2047.323v120.861h14.4h380.385v-120.861H-13.813z M14.986,2076.124h337.186v63.26H14.986V2076.124z"/>
	<path d="M-23.804,2191.224v28.801h414.766v-28.801H-23.804z"/>
	<path d="M103.434,1646.937l-54.72,325.507h17.011H327.76l-53.528-325.507H103.434z M127.802,1675.737h121.973l44.077,267.906
		H82.734L127.802,1675.737z"/>
	<path d="M80.754,1595.096v28.801h219.578v-28.801H80.754z"/>
</g>
<g transform="translate(0,-952.36216)">
	<path d="M553.002,1674.851l-16.357,296.5c121.111,0,151.221,0,272.33,0l-16.357-296.5H553.002z M580.61,1703.651h184.4
		l13.928,238.898H566.682L580.61,1703.651z"/>
	<path d="M524.383,1994.39v28.801h296.855v-28.801H524.383z"/>
	<path d="M476.391,2046.229v122.04c161.279,0,231.559,0,392.84,0v-122.04H476.391z M505.19,2075.029h335.24v64.439H505.19V2075.029z
		"/>
	<path d="M466.11,2191.309v28.801h414.4v-28.801H466.11z"/>
	<path d="M536.51,1623.011v28.8h272.6v-28.8H536.51z"/>
	<path d="M506.946,1429.952v170.02c140.91,0,190.82,0,331.73,0v-170.02h-88.723v70.64h-31.793v-70.64h-89.701v70.64h-31.791v-70.64
		H506.946z M535.745,1458.751h32.123v70.64h89.393v-70.64h32.1v70.64h89.393v-70.64h31.123v112.42H535.745V1458.751z"/>
</g>
<g transform="translate(0,-952.36216)">
	<path d="M-434.736,1994.864v28.799h296.641v-28.799H-434.736z"/>
	<path d="M-474.629,2046.704v121.48h14.4h362.025v-121.48H-474.629z M-445.828,2075.505h318.826v63.879h-318.826V2075.505z"/>
	<path d="M-483.402,2191.224v28.801h393.975v-28.801H-483.402z"/>
	<path d="M-368.361,1494.734l-50.422,477.089h15.998h248.738l-49.32-477.09L-368.361,1494.734L-368.361,1494.734z
		 M-342.463,1523.534h113.131l43.357,419.491h-200.813L-342.463,1523.534z"/>
	<path d="M-426.951,1238.144l11.004,32.963l49.635,148.747h159.795l60.637-181.71l-71.031,35.482l-69.076-34.178l-69.885,34.2
		L-426.951,1238.144z M-286.055,1271.556l69.188,34.223l21.666-10.822l-32.063,96.098h-118.305l-32.063-96.075l21.623,10.8
		L-286.055,1271.556z"/>
	<path d="M-288.846,1182.322c-14.748,0.59-29.293,6.498-40.432,17.572c-22.277,22.149-23.879,58.009-3.668,82.058l22.051-18.54
		c-10.752-12.792-9.918-31.326,1.934-43.11c11.854-11.784,30.439-12.531,43.201-1.732c12.76,10.8,15.066,29.208,5.377,42.817
		l23.467,16.695c18.219-25.59,13.744-61.201-10.236-81.495C-259.143,1186.439-274.098,1181.731-288.846,1182.322z"/>
	<path d="M-390.703,1442.894v28.8h208.576v-28.8H-390.703z"/>
</g>
<path d="M963.41,1239.184v28.801h416.401v-28.801H963.41z"/>
<path d="M973.725,1094.372v122.04c161.279,0,231.559,0,392.84,0v-122.04H973.725z M1002.523,1123.172h335.24v64.439h-335.24
	V1123.172z"/>
<g transform="translate(0,-952.36216)">
	<path d="M1588.813,1799.122l-58.957,247.338h0.336l-5,28.859h229.785l-6-32.859l0.451,4l-58.193-246.936 M1612.15,1825.192h54.973
		l53.076,220.907h-161.117L1612.15,1825.192z"/>
</g>
<path d="M1476.413,1146.372v122.04c161.279,0,168.559,0,329.84,0v-122.04H1476.413z M1505.212,1175.172h272.24v64.439h-272.24
	V1175.172z"/>
<path d="M1684.914,825.429l32-150.64h-153.66l31,150.64 M1596.399,701.589h87.369L1663,797.629h-48L1596.399,701.589z"/>
</svg>
