<?xml version="1.0" encoding="utf-8"?>
<!-- Generator: Adobe Illustrator 22.0.1, SVG Export Plug-In . SVG Version: 6.00 Build 0)  -->
<svg version="1.1" id="Ebene_1" xmlns="http://www.w3.org/2000/svg" xmlns:xlink="http://www.w3.org/1999/xlink" x="0px" y="0px"
	 viewBox="0 0 1845 1011" style="enable-background:new 0 0 1845 1011;" xml:space="preserve">
<style type="text/css">
	.st0{clip-path:url(#SVGID_2_);}
	.st1{fill:none;}
	.st2{fill:none;stroke:#393939;stroke-width:5;}
	.st3{fill:none;stroke:#000000;stroke-width:3;}
</style>
<g>
	<defs>
		<line id="SVGID_1_" x1="1845" y1="3731" x2="0" y2="3731"/>
	</defs>
	<clipPath id="SVGID_2_">
		<use xlink:href="#SVGID_1_"  style="overflow:visible;"/>
	</clipPath>
	<g id="Version1" class="st0">
		<g id="Variante3" transform="translate(0 1211)">
			<g id="king-5">
				<g id="king-6" transform="translate(1597 328)">
					<path class="st1" d="M212,640"/>
					<path class="st2" d="M209.5,640"/>
				</g>
			</g>
		</g>
	</g>
</g>
<path class="st3" d="M386.1,455.5H206.5c-5.6,0-10.2,4.6-10.2,10.2v379.6c0,5.6,4.6,10.2,10.2,10.2h179.6c5.6,0,10.2-4.6,10.2-10.2
	V505.5v-39.8C396.3,460.1,391.8,455.5,386.1,455.5z"/>
<path class="st3" d="M636.1,355.5H456.5c-5.6,0-10.2,4.6-10.2,10.2l53,139.8h-53v339.8c0,5.6,4.6,10.2,10.2,10.2h179.6
	c5.6,0,10.2-4.6,10.2-10.2V505.5h-47l47-139.8C646.3,360.1,641.8,355.5,636.1,355.5z"/>
<path class="st3" d="M886.1,305.5H706.5c-5.6,0-10.2,4.6-10.2,10.2v529.6c0,5.6,4.6,10.2,10.2,10.2h179.6c5.6,0,10.2-4.6,10.2-10.2
	l-100-389.8l100-139.8C896.3,310.1,891.8,305.5,886.1,305.5z"/>
<path class="st3" d="M1136.1,255.5H956.5c-5.6,0-10.2,4.6-10.2,10.2l50,189.8l-50,389.8c0,5.6,4.6,10.2,10.2,10.2h179.6
	c5.6,0,10.2-4.6,10.2-10.2l-50-389.8l50-189.8C1146.3,260.1,1141.8,255.5,1136.1,255.5z"/>
<path class="st3" d="M1386.1,205.5h-179.6c-5.6,0-10.2,4.6-10.2,10.2l50,139.8h-50v50h53l-53,439.8c0,5.6,4.6,10.2,10.2,10.2h179.6
	c5.6,0,10.2-4.6,10.2-10.2l-47-439.8h47v-50h-50l50-139.8C1396.3,210.1,1391.8,205.5,1386.1,205.5z"/>
<path class="st3" d="M1646.3,155.5h-200c-1.8,50,0,54.6,0,60.2l50,139.8h-50v50h53l-53,439.8c0,5.6,4.6,10.2,10.2,10.2h179.6
	c5.6,0,10.2-4.6,10.2-10.2l-47-439.8h47v-50h-50l50-139.8C1646.3,210.1,1648.1,205.5,1646.3,155.5z"/>
</svg>
