<svg xmlns="http://www.w3.org/2000/svg" xmlns:xlink="http://www.w3.org/1999/xlink" viewBox="0 0 1845 745">
  <defs>
    <style>
      .cls-1 {
        clip-path: url(#clip-Version1);
      }

      .cls-2, .cls-3, .cls-6 {
        fill: none;
      }

      .cls-2, .cls-4 {
        stroke: #393939;
        stroke-width: 5px;
      }

      .cls-4, .cls-8 {
        fill: #fff;
      }

      .cls-5, .cls-7 {
        stroke: none;
      }

      .cls-7 {
        fill: #393939;
      }
    </style>
    <clipPath id="clip-Version1">
      <rect width="1845" height="745"/>
    </clipPath>
  </defs>
  <g id="Version1" class="cls-1">
    <rect class="cls-8" width="1845" height="745"/>
    <g id="Variante1" transform="translate(-17 -280)">
      <g id="king">
        <g id="king-2" data-name="king" class="cls-2" transform="translate(1597 328)">
          <rect class="cls-5" width="212" height="650" rx="10"/>
          <rect class="cls-6" x="2.5" y="2.5" width="207" height="645" rx="7.5"/>
        </g>
        <g id="crone" class="cls-3" transform="translate(1645.547 93)">
          <path class="cls-5" d="M38.039,401.155a10,10,0,0,1-10-10,151.2,151.2,0,0,0,7.934-26.881A152.783,152.783,0,0,0,9,372.117a10,10,0,0,1-10-10V324.039a10,10,0,0,1,10-10,151.217,151.217,0,0,0,26.972,7.951A153.022,153.022,0,0,0,28.039,295a10,10,0,0,1,10-10H76.117a10,10,0,0,1,10,10A154.568,154.568,0,0,0,78.3,321.944a153,153,0,0,0,26.853-7.906,10,10,0,0,1,10,10v38.078a10,10,0,0,1-10,10,154.584,154.584,0,0,0-26.854-7.8,152.73,152.73,0,0,0,7.816,26.836,10,10,0,0,1-10,10Z"/>
          <path class="cls-7" d="M 76.11659240722656 396.1552124023438 C 78.59977722167969 396.1552124023438 80.66593170166016 394.3357543945313 81.05180358886719 391.9598693847656 C 79.74136352539063 388.6157836914063 75.91047668457031 378.2439575195313 73.39255523681641 365.2722778320313 L 71.98055267333984 357.9981079101563 L 79.2545166015625 359.4112854003906 C 92.22647094726563 361.9314880371094 102.6144180297852 365.7503967285156 105.9554901123047 367.0527038574219 C 108.3332595825195 366.6684265136719 110.1550140380859 364.601318359375 110.1550140380859 362.1168212890625 L 110.1550140380859 324.0386962890625 C 110.1550140380859 321.5577087402344 108.3385162353516 319.4929809570313 105.9657135009766 319.1044921875 C 102.6111068725586 320.4297790527344 92.22957611083984 324.296875 79.26821136474609 326.8501281738281 L 71.98141479492188 328.2855529785156 L 73.39299011230469 320.9940795898438 C 75.91287231445313 307.9778137207031 79.74702453613281 297.5486450195313 81.05247497558594 294.1997680664063 C 80.668212890625 291.8219909667969 78.60111999511719 290.0003051757813 76.11659240722656 290.0003051757813 L 38.03849411010742 290.0003051757813 C 35.55749893188477 290.0003051757813 33.49276733398438 291.8167114257813 33.10427856445313 294.1895141601563 C 34.43454360961914 297.5564270019531 38.32539367675781 308.0014038085938 40.87833404541016 321.0282897949219 L 42.30837249755859 328.3253479003906 L 35.01103210449219 326.896728515625 C 21.98540878295898 324.3466186523438 11.55600738525391 320.4439392089844 8.185173034667969 319.1051940917969 C 5.814498424530029 319.4954833984375 4.00009298324585 321.5592346191406 4.00009298324585 324.0386962890625 L 4.00009298324585 362.1168212890625 C 4.00009298324585 364.5999755859375 5.819560050964355 366.6661376953125 8.195435523986816 367.052001953125 C 11.55184745788574 365.7367553710938 21.98738861083984 361.8826599121094 35.02457427978516 359.3653869628906 L 42.30913162231445 357.9588317871094 L 40.8786735534668 365.2387390136719 C 38.32789611816406 378.2201538085938 34.44053649902344 388.6074829101563 33.10496139526367 391.9701843261719 C 33.49526214599609 394.3408508300781 35.55901336669922 396.1552124023438 38.03849411010742 396.1552124023438 L 76.11659240722656 396.1552124023438 M 76.11659240722656 401.1552124023438 L 38.03849411010742 401.1552124023438 C 32.51611328125 401.1552124023438 28.03859329223633 396.6777038574219 28.03859329223633 391.1553039550781 C 28.03859329223633 391.1553039550781 32.98269271850586 379.4903564453125 35.97249221801758 364.2746887207031 C 20.71191215515137 367.2212829589844 8.999992370605469 372.11669921875 8.999992370605469 372.11669921875 C 3.476692676544189 372.11669921875 -0.9999071955680847 367.6392211914063 -0.9999071955680847 362.1168212890625 L -0.9999071955680847 324.0386962890625 C -0.9999071955680847 318.5162963867188 3.476692676544189 314.038818359375 8.999992370605469 314.038818359375 C 8.999992370605469 314.038818359375 20.71111297607422 319.0022277832031 35.97167205810547 321.9898681640625 C 32.9818115234375 306.7334899902344 28.03859329223633 295.0002136230469 28.03859329223633 295.0002136230469 C 28.03859329223633 289.4768981933594 32.51611328125 285.0003051757813 38.03849411010742 285.0003051757813 L 76.11659240722656 285.0003051757813 C 81.63899230957031 285.0003051757813 86.11649322509766 289.4768981933594 86.11649322509766 295.0002136230469 C 86.11649322509766 295.0002136230469 81.25125122070313 306.7095031738281 78.30184936523438 321.9443969726563 C 93.49183654785156 318.9521484375 105.1551132202148 314.038818359375 105.1551132202148 314.038818359375 C 110.6784133911133 314.038818359375 115.1550140380859 318.5162963867188 115.1550140380859 324.0386962890625 L 115.1550140380859 362.1168212890625 C 115.1550140380859 367.6392211914063 110.6784133911133 372.11669921875 105.1551132202148 372.11669921875 C 105.1551132202148 372.11669921875 93.49093627929688 367.2706604003906 78.30093383789063 364.3195190429688 C 81.25027465820313 379.5137023925781 86.11649322509766 391.1553039550781 86.11649322509766 391.1553039550781 C 86.11649322509766 396.6777038574219 81.63899230957031 401.1552124023438 76.11659240722656 401.1552124023438 Z"/>
        </g>
      </g>
      <g id="queen">
        <g id="queen-2" data-name="queen" class="cls-2" transform="translate(1285 378)">
          <rect class="cls-5" width="212" height="600" rx="10"/>
          <rect class="cls-6" x="2.5" y="2.5" width="207" height="595" rx="7.5"/>
        </g>
        <g id="s" class="cls-3" transform="translate(1361.586 428)">
          <path class="cls-5" d="M10,0H63.011L58.078,10S48.06,34.112,48.06,58.15h-37.9C10.158,34.112,0,10,0,10L-4.689,0Z"/>
          <path class="cls-7" d="M 43.18901443481445 53.15039443969727 C 43.65082550048828 44.06685638427734 45.34765243530273 34.1939697265625 48.25044631958008 23.72470283508301 C 50.80799102783203 14.50056838989258 53.35320663452148 8.33934211730957 53.46031188964844 8.081582069396973 L 53.5222053527832 7.932621955871582 L 53.59356689453125 7.787955284118652 L 54.96889495849609 4.999995231628418 L 48.07763290405273 4.999995231628418 L 10.00000476837158 4.999995231628418 L 3.178001403808594 4.999995231628418 L 4.527112007141113 7.877421855926514 L 4.569258213043213 7.967315196990967 L 4.607805252075195 8.058821678161621 C 4.716444969177246 8.316688537597656 7.298204898834229 14.48036861419678 9.892258644104004 23.70742225646973 C 12.83724498748779 34.18276977539063 14.55851364135742 44.06072998046875 15.02667903900146 53.15039443969727 L 43.18901443481445 53.15039443969727 M 48.05970001220703 58.15039443969727 L 10.15771198272705 58.15039443969727 C 10.15771198272705 34.11156845092773 5.110677193442825e-06 9.999995231628418 5.110677193442825e-06 9.999995231628418 L -4.688594818115234 -4.687500222644303e-06 C -4.688594818115234 -4.687500222644303e-06 7.431858539581299 -4.687500222644303e-06 10.00000476837158 -4.687500222644303e-06 L 48.07763290405273 -4.687500222644303e-06 C 50.55737686157227 -4.687500222644303e-06 63.01073837280273 -4.687500222644303e-06 63.01073837280273 -4.687500222644303e-06 L 58.07763290405273 9.999995231628418 C 58.07763290405273 9.999995231628418 48.05970001220703 34.11156845092773 48.05970001220703 58.15039443969727 Z"/>
        </g>
        <g id="Ellipse_1" data-name="Ellipse 1" class="cls-4" transform="translate(1381 408)">
          <circle class="cls-5" cx="10" cy="10" r="10"/>
          <circle class="cls-6" cx="10" cy="10" r="7.5"/>
        </g>
      </g>
      <g id="bishop">
        <g id="bishop-2" data-name="bishop" class="cls-2" transform="translate(973 428)">
          <rect class="cls-5" width="212" height="550" rx="10"/>
          <rect class="cls-6" x="2.5" y="2.5" width="207" height="545" rx="7.5"/>
        </g>
        <g id="cross" class="cls-3" transform="translate(1021.547 193)">
          <path class="cls-5" d="M38.039,437.893a10,10,0,0,1-10-10v-63.21H9a10,10,0,0,1-10-10V321.561a10,10,0,0,1,10-10H28.039V295a10,10,0,0,1,10-10H76.117a10,10,0,0,1,10,10v16.561h19.039a10,10,0,0,1,10,10v33.123a10,10,0,0,1-10,10H86.117v63.21a10,10,0,0,1-10,10Z"/>
          <path class="cls-7" d="M 76.11660003662109 432.8932189941406 C 78.87355041503906 432.8932189941406 81.11650848388672 430.6502685546875 81.11650848388672 427.893310546875 L 81.11650848388672 364.68359375 L 81.11650848388672 359.68359375 L 86.11650848388672 359.68359375 L 105.1550979614258 359.68359375 C 107.9120559692383 359.68359375 110.1550064086914 357.4406433105469 110.1550064086914 354.6837158203125 L 110.1550064086914 321.5610046386719 C 110.1550064086914 318.8040466308594 107.9120559692383 316.5610961914063 105.1550979614258 316.5610961914063 L 86.11650848388672 316.5610961914063 L 81.11650848388672 316.5610961914063 L 81.11650848388672 311.5610961914063 L 81.11650848388672 295.0002136230469 C 81.11650848388672 292.2432556152344 78.87355041503906 290.0003051757813 76.11660003662109 290.0003051757813 L 38.03850555419922 290.0003051757813 C 35.28155136108398 290.0003051757813 33.03860092163086 292.2432556152344 33.03860092163086 295.0002136230469 L 33.03860092163086 311.5610961914063 L 33.03860092163086 316.5610961914063 L 28.03860092163086 316.5610961914063 L 9.000004768371582 316.5610961914063 C 6.243052959442139 316.5610961914063 4.000100612640381 318.8040466308594 4.000100612640381 321.5610046386719 L 4.000100612640381 354.6837158203125 C 4.000100612640381 357.4406433105469 6.243052959442139 359.68359375 9.000004768371582 359.68359375 L 28.03860092163086 359.68359375 L 33.03860092163086 359.68359375 L 33.03860092163086 364.68359375 L 33.03860092163086 427.893310546875 C 33.03860092163086 430.6502685546875 35.28155136108398 432.8932189941406 38.03850555419922 432.8932189941406 L 76.11660003662109 432.8932189941406 M 76.11660003662109 437.8932189941406 L 38.03850555419922 437.8932189941406 C 32.5161018371582 437.8932189941406 28.03860092163086 433.4157104492188 28.03860092163086 427.893310546875 L 28.03860092163086 364.68359375 L 9.000004768371582 364.68359375 C 3.476695537567139 364.68359375 -0.9998995661735535 360.2061157226563 -0.9998995661735535 354.6837158203125 L -0.9998995661735535 321.5610046386719 C -0.9998995661735535 316.0386047363281 3.476695537567139 311.5610961914063 9.000004768371582 311.5610961914063 L 28.03860092163086 311.5610961914063 L 28.03860092163086 295.0002136230469 C 28.03860092163086 289.4768981933594 32.5161018371582 285.0003051757813 38.03850555419922 285.0003051757813 L 76.11660003662109 285.0003051757813 C 81.63900756835938 285.0003051757813 86.11650848388672 289.4768981933594 86.11650848388672 295.0002136230469 L 86.11650848388672 311.5610961914063 L 105.1550979614258 311.5610961914063 C 110.6784133911133 311.5610961914063 115.1550064086914 316.0386047363281 115.1550064086914 321.5610046386719 L 115.1550064086914 354.6837158203125 C 115.1550064086914 360.2061157226563 110.6784133911133 364.68359375 105.1550979614258 364.68359375 L 86.11650848388672 364.68359375 L 86.11650848388672 427.893310546875 C 86.11650848388672 433.4157104492188 81.63900756835938 437.8932189941406 76.11660003662109 437.8932189941406 Z"/>
        </g>
      </g>
      <g id="knight">
        <g id="knight-2" data-name="knight" class="cls-3" transform="translate(661 478)">
          <path class="cls-5" d="M10,0H202a10,10,0,0,1,10,10V50.508H105.865L212,115.358V490a10,10,0,0,1-10,10H10A10,10,0,0,1,0,490V10A10,10,0,0,1,10,0Z"/>
          <path class="cls-7" d="M 202 495 C 204.7570037841797 495 207 492.7569885253906 207 490 L 207 118.1627426147461 L 103.2577972412109 54.77500152587891 L 88.091796875 45.50839996337891 L 105.8647308349609 45.50839996337891 L 207 45.50839996337891 L 207 10 C 207 7.243000030517578 204.7570037841797 5 202 5 L 10 5 C 7.243000030517578 5 5 7.243000030517578 5 10 L 5 490 C 5 492.7569885253906 7.243000030517578 495 10 495 L 202 495 M 202 500 L 10 500 C 4.477133274078369 500 0 495.5228576660156 0 490 L 0 10 C 0 4.477133274078369 4.477133274078369 0 10 0 L 202 0 C 207.5228729248047 0 212 4.477133274078369 212 10 L 212 50.50839996337891 L 105.8647308349609 50.50839996337891 L 212 115.3583297729492 L 212 490 C 212 495.5228576660156 207.5228729248047 500 202 500 Z"/>
        </g>
      </g>
      <g id="rook">
        <g id="rook-2" data-name="rook" class="cls-3" transform="translate(349 528)">
          <path class="cls-5" d="M10,0H72.647V62.081h66.788V0H202a10,10,0,0,1,10,10V440a10,10,0,0,1-10,10H10A10,10,0,0,1,0,440V10A10,10,0,0,1,10,0Z"/>
          <path class="cls-7" d="M 202 445 C 204.7570037841797 445 207 442.7569885253906 207 440 L 207 10 C 207 7.243000030517578 204.7570037841797 5 202 5 L 144.4349365234375 5 L 144.4349365234375 62.08124923706055 L 144.4349365234375 67.08125305175781 L 139.4349365234375 67.08125305175781 L 72.64656066894531 67.08125305175781 L 67.64656066894531 67.08125305175781 L 67.64656066894531 62.08124923706055 L 67.64656066894531 5 L 10 5 C 7.243000030517578 5 5 7.243000030517578 5 10 L 5 440 C 5 442.7569885253906 7.243000030517578 445 10 445 L 202 445 M 202 450 L 10 450 C 4.47712516784668 450 0 445.5228881835938 0 440 L 0 10 C 0 4.477187633514404 4.47712516784668 0 10 0 L 72.64656066894531 0 L 72.64656066894531 62.08124923706055 L 139.4349365234375 62.08124923706055 L 139.4349365234375 0 L 202 0 C 207.5228729248047 0 212 4.477187633514404 212 10 L 212 440 C 212 445.5228881835938 207.5228729248047 450 202 450 Z"/>
        </g>
      </g>
      <g id="pawn">
        <g id="pawn-2" data-name="pawn" class="cls-2" transform="translate(37 578)">
          <rect class="cls-5" width="212" height="400" rx="10"/>
          <rect class="cls-6" x="2.5" y="2.5" width="207" height="395" rx="7.5"/>
        </g>
      </g>
    </g>
  </g>
</svg>
