<svg xmlns="http://www.w3.org/2000/svg" xmlns:xlink="http://www.w3.org/1999/xlink" viewBox="0 0 1845 3731">
  <defs>
    <style>
      .cls-1 {
        clip-path: url(#clip-Version1);
      }

      .cls-2, .cls-3, .cls-7 {
        fill: none;
      }

      .cls-2, .cls-4 {
        stroke: #393939;
        stroke-width: 5px;
      }

      .cls-4, .cls-5, .cls-9 {
        fill: #fff;
      }

      .cls-6, .cls-8 {
        stroke: none;
      }

      .cls-8 {
        fill: #393939;
      }
    </style>
    <clipPath id="clip-Version1">
      <rect width="1845" height="3731"/>
    </clipPath>
  </defs>
  <g id="Version1" class="cls-1">
    <rect class="cls-9" width="1845" height="3731"/>
    <g id="Variante1" transform="translate(0 -289)">
      <g id="king">
        <g id="king-2" data-name="king" class="cls-2" transform="translate(1597 328)">
          <rect class="cls-6" width="212" height="650" rx="10"/>
          <rect class="cls-7" x="2.5" y="2.5" width="207" height="645" rx="7.5"/>
        </g>
        <g id="crone" class="cls-3" transform="translate(1645.547 93)">
          <path class="cls-6" d="M38.039,401.155a10,10,0,0,1-10-10,151.2,151.2,0,0,0,7.934-26.881A152.783,152.783,0,0,0,9,372.117a10,10,0,0,1-10-10V324.039a10,10,0,0,1,10-10,151.217,151.217,0,0,0,26.972,7.951A153.022,153.022,0,0,0,28.039,295a10,10,0,0,1,10-10H76.117a10,10,0,0,1,10,10A154.568,154.568,0,0,0,78.3,321.944a153,153,0,0,0,26.853-7.906,10,10,0,0,1,10,10v38.078a10,10,0,0,1-10,10,154.584,154.584,0,0,0-26.854-7.8,152.73,152.73,0,0,0,7.816,26.836,10,10,0,0,1-10,10Z"/>
          <path class="cls-8" d="M 76.11659240722656 396.1552124023438 C 78.59977722167969 396.1552124023438 80.66593170166016 394.3357543945313 81.05180358886719 391.9598693847656 C 79.74136352539063 388.6157836914063 75.91047668457031 378.2439575195313 73.39255523681641 365.2722778320313 L 71.98055267333984 357.9981079101563 L 79.2545166015625 359.4112854003906 C 92.22647094726563 361.9314880371094 102.6144180297852 365.7503967285156 105.9554901123047 367.0527038574219 C 108.3332595825195 366.6684265136719 110.1550140380859 364.601318359375 110.1550140380859 362.1168212890625 L 110.1550140380859 324.0386962890625 C 110.1550140380859 321.5577087402344 108.3385162353516 319.4929809570313 105.9657135009766 319.1044921875 C 102.6111068725586 320.4297790527344 92.22957611083984 324.296875 79.26821136474609 326.8501281738281 L 71.98141479492188 328.2855529785156 L 73.39299011230469 320.9940795898438 C 75.91287231445313 307.9778137207031 79.74702453613281 297.5486450195313 81.05247497558594 294.1997680664063 C 80.668212890625 291.8219909667969 78.60111999511719 290.0003051757813 76.11659240722656 290.0003051757813 L 38.03849411010742 290.0003051757813 C 35.55749893188477 290.0003051757813 33.49276733398438 291.8167114257813 33.10427856445313 294.1895141601563 C 34.43454360961914 297.5564270019531 38.32539367675781 308.0014038085938 40.87833404541016 321.0282897949219 L 42.30837249755859 328.3253479003906 L 35.01103210449219 326.896728515625 C 21.98540878295898 324.3466186523438 11.55600738525391 320.4439392089844 8.185173034667969 319.1051940917969 C 5.814498424530029 319.4954833984375 4.00009298324585 321.5592346191406 4.00009298324585 324.0386962890625 L 4.00009298324585 362.1168212890625 C 4.00009298324585 364.5999755859375 5.819560050964355 366.6661376953125 8.195435523986816 367.052001953125 C 11.55184745788574 365.7367553710938 21.98738861083984 361.8826599121094 35.02457427978516 359.3653869628906 L 42.30913162231445 357.9588317871094 L 40.8786735534668 365.2387390136719 C 38.32789611816406 378.2201538085938 34.44053649902344 388.6074829101563 33.10496139526367 391.9701843261719 C 33.49526214599609 394.3408508300781 35.55901336669922 396.1552124023438 38.03849411010742 396.1552124023438 L 76.11659240722656 396.1552124023438 M 76.11659240722656 401.1552124023438 L 38.03849411010742 401.1552124023438 C 32.51611328125 401.1552124023438 28.03859329223633 396.6777038574219 28.03859329223633 391.1553039550781 C 28.03859329223633 391.1553039550781 32.98269271850586 379.4903564453125 35.97249221801758 364.2746887207031 C 20.71191215515137 367.2212829589844 8.999992370605469 372.11669921875 8.999992370605469 372.11669921875 C 3.476692676544189 372.11669921875 -0.9999071955680847 367.6392211914063 -0.9999071955680847 362.1168212890625 L -0.9999071955680847 324.0386962890625 C -0.9999071955680847 318.5162963867188 3.476692676544189 314.038818359375 8.999992370605469 314.038818359375 C 8.999992370605469 314.038818359375 20.71111297607422 319.0022277832031 35.97167205810547 321.9898681640625 C 32.9818115234375 306.7334899902344 28.03859329223633 295.0002136230469 28.03859329223633 295.0002136230469 C 28.03859329223633 289.4768981933594 32.51611328125 285.0003051757813 38.03849411010742 285.0003051757813 L 76.11659240722656 285.0003051757813 C 81.63899230957031 285.0003051757813 86.11649322509766 289.4768981933594 86.11649322509766 295.0002136230469 C 86.11649322509766 295.0002136230469 81.25125122070313 306.7095031738281 78.30184936523438 321.9443969726563 C 93.49183654785156 318.9521484375 105.1551132202148 314.038818359375 105.1551132202148 314.038818359375 C 110.6784133911133 314.038818359375 115.1550140380859 318.5162963867188 115.1550140380859 324.0386962890625 L 115.1550140380859 362.1168212890625 C 115.1550140380859 367.6392211914063 110.6784133911133 372.11669921875 105.1551132202148 372.11669921875 C 105.1551132202148 372.11669921875 93.49093627929688 367.2706604003906 78.30093383789063 364.3195190429688 C 81.25027465820313 379.5137023925781 86.11649322509766 391.1553039550781 86.11649322509766 391.1553039550781 C 86.11649322509766 396.6777038574219 81.63899230957031 401.1552124023438 76.11659240722656 401.1552124023438 Z"/>
        </g>
      </g>
      <g id="queen">
        <g id="queen-2" data-name="queen" class="cls-2" transform="translate(1285 378)">
          <rect class="cls-6" width="212" height="600" rx="10"/>
          <rect class="cls-7" x="2.5" y="2.5" width="207" height="595" rx="7.5"/>
        </g>
        <g id="s" class="cls-3" transform="translate(1361.586 428)">
          <path class="cls-6" d="M10,0H63.011L58.078,10S48.06,34.112,48.06,58.15h-37.9C10.158,34.112,0,10,0,10L-4.689,0Z"/>
          <path class="cls-8" d="M 43.18901443481445 53.15039443969727 C 43.65082550048828 44.06685638427734 45.34765243530273 34.1939697265625 48.25044631958008 23.72470283508301 C 50.80799102783203 14.50056838989258 53.35320663452148 8.33934211730957 53.46031188964844 8.081582069396973 L 53.5222053527832 7.932621955871582 L 53.59356689453125 7.787955284118652 L 54.96889495849609 4.999995231628418 L 48.07763290405273 4.999995231628418 L 10.00000476837158 4.999995231628418 L 3.178001403808594 4.999995231628418 L 4.527112007141113 7.877421855926514 L 4.569258213043213 7.967315196990967 L 4.607805252075195 8.058821678161621 C 4.716444969177246 8.316688537597656 7.298204898834229 14.48036861419678 9.892258644104004 23.70742225646973 C 12.83724498748779 34.18276977539063 14.55851364135742 44.06072998046875 15.02667903900146 53.15039443969727 L 43.18901443481445 53.15039443969727 M 48.05970001220703 58.15039443969727 L 10.15771198272705 58.15039443969727 C 10.15771198272705 34.11156845092773 5.110677193442825e-06 9.999995231628418 5.110677193442825e-06 9.999995231628418 L -4.688594818115234 -4.687500222644303e-06 C -4.688594818115234 -4.687500222644303e-06 7.431858539581299 -4.687500222644303e-06 10.00000476837158 -4.687500222644303e-06 L 48.07763290405273 -4.687500222644303e-06 C 50.55737686157227 -4.687500222644303e-06 63.01073837280273 -4.687500222644303e-06 63.01073837280273 -4.687500222644303e-06 L 58.07763290405273 9.999995231628418 C 58.07763290405273 9.999995231628418 48.05970001220703 34.11156845092773 48.05970001220703 58.15039443969727 Z"/>
        </g>
        <g id="Ellipse_1" data-name="Ellipse 1" class="cls-4" transform="translate(1381 408)">
          <circle class="cls-6" cx="10" cy="10" r="10"/>
          <circle class="cls-7" cx="10" cy="10" r="7.5"/>
        </g>
      </g>
      <g id="bishop">
        <g id="bishop-2" data-name="bishop" class="cls-2" transform="translate(973 428)">
          <rect class="cls-6" width="212" height="550" rx="10"/>
          <rect class="cls-7" x="2.5" y="2.5" width="207" height="545" rx="7.5"/>
        </g>
        <g id="cross" class="cls-3" transform="translate(1021.547 193)">
          <path class="cls-6" d="M38.039,437.893a10,10,0,0,1-10-10v-63.21H9a10,10,0,0,1-10-10V321.561a10,10,0,0,1,10-10H28.039V295a10,10,0,0,1,10-10H76.117a10,10,0,0,1,10,10v16.561h19.039a10,10,0,0,1,10,10v33.123a10,10,0,0,1-10,10H86.117v63.21a10,10,0,0,1-10,10Z"/>
          <path class="cls-8" d="M 76.11660003662109 432.8932189941406 C 78.87355041503906 432.8932189941406 81.11650848388672 430.6502685546875 81.11650848388672 427.893310546875 L 81.11650848388672 364.68359375 L 81.11650848388672 359.68359375 L 86.11650848388672 359.68359375 L 105.1550979614258 359.68359375 C 107.9120559692383 359.68359375 110.1550064086914 357.4406433105469 110.1550064086914 354.6837158203125 L 110.1550064086914 321.5610046386719 C 110.1550064086914 318.8040466308594 107.9120559692383 316.5610961914063 105.1550979614258 316.5610961914063 L 86.11650848388672 316.5610961914063 L 81.11650848388672 316.5610961914063 L 81.11650848388672 311.5610961914063 L 81.11650848388672 295.0002136230469 C 81.11650848388672 292.2432556152344 78.87355041503906 290.0003051757813 76.11660003662109 290.0003051757813 L 38.03850555419922 290.0003051757813 C 35.28155136108398 290.0003051757813 33.03860092163086 292.2432556152344 33.03860092163086 295.0002136230469 L 33.03860092163086 311.5610961914063 L 33.03860092163086 316.5610961914063 L 28.03860092163086 316.5610961914063 L 9.000004768371582 316.5610961914063 C 6.243052959442139 316.5610961914063 4.000100612640381 318.8040466308594 4.000100612640381 321.5610046386719 L 4.000100612640381 354.6837158203125 C 4.000100612640381 357.4406433105469 6.243052959442139 359.68359375 9.000004768371582 359.68359375 L 28.03860092163086 359.68359375 L 33.03860092163086 359.68359375 L 33.03860092163086 364.68359375 L 33.03860092163086 427.893310546875 C 33.03860092163086 430.6502685546875 35.28155136108398 432.8932189941406 38.03850555419922 432.8932189941406 L 76.11660003662109 432.8932189941406 M 76.11660003662109 437.8932189941406 L 38.03850555419922 437.8932189941406 C 32.5161018371582 437.8932189941406 28.03860092163086 433.4157104492188 28.03860092163086 427.893310546875 L 28.03860092163086 364.68359375 L 9.000004768371582 364.68359375 C 3.476695537567139 364.68359375 -0.9998995661735535 360.2061157226563 -0.9998995661735535 354.6837158203125 L -0.9998995661735535 321.5610046386719 C -0.9998995661735535 316.0386047363281 3.476695537567139 311.5610961914063 9.000004768371582 311.5610961914063 L 28.03860092163086 311.5610961914063 L 28.03860092163086 295.0002136230469 C 28.03860092163086 289.4768981933594 32.5161018371582 285.0003051757813 38.03850555419922 285.0003051757813 L 76.11660003662109 285.0003051757813 C 81.63900756835938 285.0003051757813 86.11650848388672 289.4768981933594 86.11650848388672 295.0002136230469 L 86.11650848388672 311.5610961914063 L 105.1550979614258 311.5610961914063 C 110.6784133911133 311.5610961914063 115.1550064086914 316.0386047363281 115.1550064086914 321.5610046386719 L 115.1550064086914 354.6837158203125 C 115.1550064086914 360.2061157226563 110.6784133911133 364.68359375 105.1550979614258 364.68359375 L 86.11650848388672 364.68359375 L 86.11650848388672 427.893310546875 C 86.11650848388672 433.4157104492188 81.63900756835938 437.8932189941406 76.11660003662109 437.8932189941406 Z"/>
        </g>
      </g>
      <g id="knight">
        <g id="knight-2" data-name="knight" class="cls-3" transform="translate(661 478)">
          <path class="cls-6" d="M10,0H202a10,10,0,0,1,10,10V50.508H105.865L212,115.358V490a10,10,0,0,1-10,10H10A10,10,0,0,1,0,490V10A10,10,0,0,1,10,0Z"/>
          <path class="cls-8" d="M 202 495 C 204.7570037841797 495 207 492.7569885253906 207 490 L 207 118.1627426147461 L 103.2577972412109 54.77500152587891 L 88.091796875 45.50839996337891 L 105.8647308349609 45.50839996337891 L 207 45.50839996337891 L 207 10 C 207 7.243000030517578 204.7570037841797 5 202 5 L 10 5 C 7.243000030517578 5 5 7.243000030517578 5 10 L 5 490 C 5 492.7569885253906 7.243000030517578 495 10 495 L 202 495 M 202 500 L 10 500 C 4.477133274078369 500 0 495.5228576660156 0 490 L 0 10 C 0 4.477133274078369 4.477133274078369 0 10 0 L 202 0 C 207.5228729248047 0 212 4.477133274078369 212 10 L 212 50.50839996337891 L 105.8647308349609 50.50839996337891 L 212 115.3583297729492 L 212 490 C 212 495.5228576660156 207.5228729248047 500 202 500 Z"/>
        </g>
      </g>
      <g id="rook">
        <g id="rook-2" data-name="rook" class="cls-3" transform="translate(349 528)">
          <path class="cls-6" d="M10,0H72.647V62.081h66.788V0H202a10,10,0,0,1,10,10V440a10,10,0,0,1-10,10H10A10,10,0,0,1,0,440V10A10,10,0,0,1,10,0Z"/>
          <path class="cls-8" d="M 202 445 C 204.7570037841797 445 207 442.7569885253906 207 440 L 207 10 C 207 7.243000030517578 204.7570037841797 5 202 5 L 144.4349365234375 5 L 144.4349365234375 62.08124923706055 L 144.4349365234375 67.08125305175781 L 139.4349365234375 67.08125305175781 L 72.64656066894531 67.08125305175781 L 67.64656066894531 67.08125305175781 L 67.64656066894531 62.08124923706055 L 67.64656066894531 5 L 10 5 C 7.243000030517578 5 5 7.243000030517578 5 10 L 5 440 C 5 442.7569885253906 7.243000030517578 445 10 445 L 202 445 M 202 450 L 10 450 C 4.47712516784668 450 0 445.5228881835938 0 440 L 0 10 C 0 4.477187633514404 4.47712516784668 0 10 0 L 72.64656066894531 0 L 72.64656066894531 62.08124923706055 L 139.4349365234375 62.08124923706055 L 139.4349365234375 0 L 202 0 C 207.5228729248047 0 212 4.477187633514404 212 10 L 212 440 C 212 445.5228881835938 207.5228729248047 450 202 450 Z"/>
        </g>
      </g>
      <g id="pawn">
        <g id="pawn-2" data-name="pawn" class="cls-2" transform="translate(37 578)">
          <rect class="cls-6" width="212" height="400" rx="10"/>
          <rect class="cls-7" x="2.5" y="2.5" width="207" height="395" rx="7.5"/>
        </g>
      </g>
    </g>
    <g id="Variante2" transform="translate(0 461)">
      <g id="king-3" data-name="king">
        <g id="king-4" data-name="king" class="cls-2" transform="translate(1597 328)">
          <rect class="cls-6" width="212" height="650" rx="10"/>
          <rect class="cls-7" x="2.5" y="2.5" width="207" height="645" rx="7.5"/>
        </g>
        <g id="w" class="cls-3" transform="translate(1760.703 474.561) rotate(90)">
          <path class="cls-6" d="M-72.574,0h117.7a10,10,0,0,1,10,10v96.155a10,10,0,0,1-10,10h-117.7C-74.626,116.155-25,81.367-25,81.367L-98,58.32l73-24.788S-76.9,0-72.574,0Z"/>
          <path class="cls-8" d="M 45.12223052978516 111.1552810668945 C 47.87923049926758 111.1552810668945 50.12223052978516 108.9122772216797 50.12223052978516 106.1552810668945 L 50.12223052978516 9.999994277954102 C 50.12223052978516 7.242993831634521 47.87923049926758 4.999993801116943 45.12223052978516 4.999993801116943 L -58.72438812255859 4.999993801116943 C -54.86168670654297 7.712921619415283 -50.01224517822266 11.02340984344482 -44.27783966064453 14.86170768737793 C -33.13581848144531 22.31958961486816 -22.39400672912598 29.26218414306641 -22.28679275512695 29.33144569396973 L -13.60286426544189 34.94156646728516 L -23.3923168182373 38.26573181152344 L -81.9403076171875 58.14674758911133 L -23.49467468261719 76.59904479980469 L -13.83731746673584 79.64804077148438 L -22.12991142272949 85.46128082275391 C -22.23836517333984 85.53730010986328 -33.10546112060547 93.15696716308594 -44.30715179443359 101.1548538208008 C -50.24970626831055 105.3977661132813 -54.75735855102539 108.6551055908203 -58.17646026611328 111.1552810668945 L 45.12223052978516 111.1552810668945 M 45.12223052978516 116.1552810668945 L -72.57389068603516 116.1552810668945 C -74.62569427490234 116.1552810668945 -25.00000762939453 81.3670654296875 -25.00000762939453 81.3670654296875 L -98.00000762939453 58.31970977783203 L -25.00000762939453 33.53125762939453 C -25.00000762939453 33.53125762939453 -76.90381622314453 -6.138393018773058e-06 -72.57389068603516 -6.138393018773058e-06 L 45.12223052978516 -6.138393018773058e-06 C 50.64506530761719 -6.138393018773058e-06 55.12223052978516 4.477160453796387 55.12223052978516 9.999994277954102 L 55.12223052978516 106.1552810668945 C 55.12223052978516 111.6781387329102 50.64506530761719 116.1552810668945 45.12223052978516 116.1552810668945 Z"/>
        </g>
      </g>
      <g id="queen-3" data-name="queen">
        <g id="queen-4" data-name="queen" class="cls-2" transform="translate(1285 378)">
          <rect class="cls-6" width="212" height="600" rx="10"/>
          <rect class="cls-7" x="2.5" y="2.5" width="207" height="595" rx="7.5"/>
        </g>
        <g id="w-2" data-name="w" class="cls-3" transform="translate(1448.703 474.561) rotate(90)">
          <path class="cls-6" d="M-25.574,0h70.7a10,10,0,0,1,10,10v96.155a10,10,0,0,1-10,10h-70.7C-27.626,116.155,10,81.367,10,81.367L-51,58.32,10,33.531S-29.9,0-25.574,0Z"/>
          <path class="cls-8" d="M 45.12223052978516 111.1552734375 C 47.87923049926758 111.1552734375 50.12223052978516 108.9122772216797 50.12223052978516 106.1552734375 L 50.12223052978516 9.999997138977051 C 50.12223052978516 7.242996692657471 47.87923049926758 4.999996662139893 45.12223052978516 4.999996662139893 L -14.90406036376953 4.999996662139893 C -11.88261604309082 7.849911212921143 -7.94834041595459 11.40685939788818 -3.204668521881104 15.57719707489014 C 5.121951580047607 22.89741706848145 13.13667106628418 29.63611602783203 13.21665191650391 29.70331764221191 L 19.56775093078613 35.04029846191406 L 11.88235187530518 38.16339492797852 L -37.30178451538086 58.1502571105957 L 11.76719188690186 76.68977355957031 L 19.3323917388916 79.548095703125 L 13.39439105987549 85.03831481933594 C 13.3140115737915 85.11261749267578 5.260131359100342 92.561279296875 -3.077328443527222 100.455436706543 C -7.542633533477783 104.6833267211914 -11.28562927246094 108.2773132324219 -14.22093105316162 111.1552734375 L 45.12223052978516 111.1552734375 M 45.12223052978516 116.1552734375 L -25.57388877868652 116.1552734375 C -27.62568855285645 116.1552734375 9.999991416931152 81.36705780029297 9.999991416931152 81.36705780029297 L -50.9999885559082 58.31969833374023 L 9.999991416931152 33.53125762939453 C 9.999991416931152 33.53125762939453 -29.90380859375 -3.281249973952072e-06 -25.57388877868652 -3.281249973952072e-06 L 45.12223052978516 -3.281249973952072e-06 C 50.64507293701172 -3.281249973952072e-06 55.12223052978516 4.477156639099121 55.12223052978516 9.999997138977051 L 55.12223052978516 106.1552734375 C 55.12223052978516 111.6781158447266 50.64507293701172 116.1552734375 45.12223052978516 116.1552734375 Z"/>
        </g>
      </g>
      <g id="bishop-3" data-name="bishop">
        <g id="bishop-4" data-name="bishop" class="cls-2" transform="translate(973 428)">
          <rect class="cls-6" width="212" height="550" rx="10"/>
          <rect class="cls-7" x="2.5" y="2.5" width="207" height="545" rx="7.5"/>
        </g>
        <g id="w-3" data-name="w" class="cls-3" transform="translate(1136.703 523.561) rotate(90)">
          <path class="cls-6" d="M10,0H45.122a10,10,0,0,1,10,10v96.155a10,10,0,0,1-10,10H10c-5.523,0-8.269-4.276-61-57.836C1.731,4.679,4.477,0,10,0Z"/>
          <path class="cls-8" d="M 45.12223052978516 111.1552734375 C 47.87923049926758 111.1552734375 50.12223052978516 108.9122772216797 50.12223052978516 106.1552734375 L 50.12223052978516 9.999997138977051 C 50.12223052978516 7.242996692657471 47.87923049926758 4.999996662139893 45.12223052978516 4.999996662139893 L 9.999991416931152 4.999996662139893 C 9.702411651611328 4.999996662139893 9.566591262817383 4.999996662139893 9.145151138305664 5.221476554870605 C 8.338611602783203 5.645336627960205 7.095991611480713 6.609536647796631 5.45181131362915 8.087276458740234 C 1.456611394882202 11.6780366897583 -5.025768756866455 18.34663581848145 -16.79370880126953 30.45267677307129 C -23.9503173828125 37.81490325927734 -32.69958877563477 46.81553649902344 -43.98842239379883 58.3167724609375 C -34.69038772583008 67.77243804931641 -27.02619552612305 75.61246490478516 -20.73444938659668 82.04855346679688 C -7.183128356933594 95.91075897216797 0.2815914452075958 103.5467529296875 4.782511234283447 107.6044769287109 C 6.687251567840576 109.3216552734375 8.060951232910156 110.3955154418945 8.982091903686523 110.8873977661133 C 9.48375129699707 111.1552734375 9.64553165435791 111.1552734375 9.999991416931152 111.1552734375 L 45.12223052978516 111.1552734375 M 45.12223052978516 116.1552734375 L 9.999991416931152 116.1552734375 C 4.477151393890381 116.1552734375 1.730591416358948 111.8795394897461 -50.9999885559082 58.31969833374023 C 1.730591416358948 4.678576946258545 4.477151393890381 -3.281249973952072e-06 9.999991416931152 -3.281249973952072e-06 L 45.12223052978516 -3.281249973952072e-06 C 50.64507293701172 -3.281249973952072e-06 55.12223052978516 4.477156639099121 55.12223052978516 9.999997138977051 L 55.12223052978516 106.1552734375 C 55.12223052978516 111.6781158447266 50.64507293701172 116.1552734375 45.12223052978516 116.1552734375 Z"/>
        </g>
      </g>
      <g id="knight-3" data-name="knight">
        <g id="knight-4" data-name="knight" class="cls-3" transform="translate(661 478)">
          <path class="cls-6" d="M10,0H202a10,10,0,0,1,10,10V50.508H118.59L212,181.519V490a10,10,0,0,1-10,10H10A10,10,0,0,1,0,490V10A10,10,0,0,1,10,0Z"/>
          <path class="cls-8" d="M 202 495 C 204.7570037841797 495 207 492.7569885253906 207 490 L 207 183.1190948486328 L 114.518669128418 53.4111328125 L 108.8840637207031 45.50839996337891 L 118.5897979736328 45.50839996337891 L 207 45.50839996337891 L 207 10 C 207 7.243000030517578 204.7570037841797 5 202 5 L 10 5 C 7.243000030517578 5 5 7.243000030517578 5 10 L 5 490 C 5 492.7569885253906 7.243000030517578 495 10 495 L 202 495 M 202 500 L 10 500 C 4.477133274078369 500 0 495.5228576660156 0 490 L 0 10 C 0 4.477133274078369 4.477133274078369 0 10 0 L 202 0 C 207.5228729248047 0 212 4.477133274078369 212 10 L 212 50.50839996337891 L 118.5897979736328 50.50839996337891 L 212 181.5191345214844 L 212 490 C 212 495.5228576660156 207.5228729248047 500 202 500 Z"/>
        </g>
      </g>
      <g id="rook-3" data-name="rook">
        <g id="rook-4" data-name="rook" class="cls-3" transform="translate(349 528)">
          <path class="cls-6" d="M10,0H72.647V62.081h66.788V0H202a10,10,0,0,1,10,10V440a10,10,0,0,1-10,10H10A10,10,0,0,1,0,440V10A10,10,0,0,1,10,0Z"/>
          <path class="cls-8" d="M 202 445 C 204.7570037841797 445 207 442.7569885253906 207 440 L 207 10 C 207 7.243000030517578 204.7570037841797 5 202 5 L 144.4349365234375 5 L 144.4349365234375 62.08124923706055 L 144.4349365234375 67.08125305175781 L 139.4349365234375 67.08125305175781 L 72.64656066894531 67.08125305175781 L 67.64656066894531 67.08125305175781 L 67.64656066894531 62.08124923706055 L 67.64656066894531 5 L 10 5 C 7.243000030517578 5 5 7.243000030517578 5 10 L 5 440 C 5 442.7569885253906 7.243000030517578 445 10 445 L 202 445 M 202 450 L 10 450 C 4.47712516784668 450 0 445.5228881835938 0 440 L 0 10 C 0 4.477187633514404 4.47712516784668 0 10 0 L 72.64656066894531 0 L 72.64656066894531 62.08124923706055 L 139.4349365234375 62.08124923706055 L 139.4349365234375 0 L 202 0 C 207.5228729248047 0 212 4.477187633514404 212 10 L 212 440 C 212 445.5228881835938 207.5228729248047 450 202 450 Z"/>
        </g>
      </g>
      <g id="pawn-3" data-name="pawn">
        <g id="pawn-4" data-name="pawn" class="cls-2" transform="translate(37 578)">
          <rect class="cls-6" width="212" height="400" rx="10"/>
          <rect class="cls-7" x="2.5" y="2.5" width="207" height="395" rx="7.5"/>
        </g>
      </g>
    </g>
    <g id="Variante3" transform="translate(0 1211)">
      <g id="king-5" data-name="king">
        <g id="king-6" data-name="king" class="cls-2" transform="translate(1597 328)">
          <rect class="cls-6" width="212" height="650" rx="10"/>
          <rect class="cls-7" x="2.5" y="2.5" width="207" height="645" rx="7.5"/>
        </g>
      </g>
      <g id="queen-5" data-name="queen">
        <g id="queen-6" data-name="queen" class="cls-3" transform="translate(1285 378)">
          <path class="cls-6" d="M67.736,50V0h76.974V50L212,60V590a10,10,0,0,1-10,10H10A10,10,0,0,1,0,590V60Z"/>
          <path class="cls-8" d="M 202 595 C 204.7570037841797 595 207 592.7570190429688 207 590 L 207 64.31185150146484 L 143.9742431640625 54.9456672668457 L 139.7092437744141 54.31183242797852 L 139.7092437744141 50 L 139.7092437744141 5 L 72.73558044433594 5 L 72.73558044433594 50 L 72.73558044433594 54.31600189208984 L 68.46583557128906 54.94641494750977 L 5 64.31606292724609 L 5 590 C 5 592.7570190429688 7.243000030517578 595 10 595 L 202 595 M 202 600 L 10 600 C 4.477166652679443 600 1.4210854715202e-14 595.5228271484375 1.4210854715202e-14 590 L 1.4210854715202e-14 60 L 67.73558044433594 50 L 67.73558044433594 5.684341886080801e-14 L 144.7092437744141 5.684341886080801e-14 L 144.7092437744141 50 L 212 60 L 212 590 C 212 595.5228271484375 207.5228271484375 600 202 600 Z"/>
        </g>
      </g>
      <g id="bishop-5" data-name="bishop">
        <g id="bishop-6" data-name="bishop" class="cls-2" transform="translate(973 428)">
          <rect class="cls-6" width="212" height="550" rx="10"/>
          <rect class="cls-7" x="2.5" y="2.5" width="207" height="545" rx="7.5"/>
        </g>
        <g id="w-4" data-name="w" class="cls-3" transform="translate(1136.703 571.561) rotate(90)">
          <path class="cls-6" d="M10,0H45.122a10,10,0,0,1,10,10v96.155a10,10,0,0,1-10,10H10c-5.523,0-8.269-4.276-61-57.836C1.731,4.679,4.477,0,10,0Z"/>
          <path class="cls-8" d="M 45.12223052978516 111.1552734375 C 47.87923049926758 111.1552734375 50.12223052978516 108.9122772216797 50.12223052978516 106.1552734375 L 50.12223052978516 9.999997138977051 C 50.12223052978516 7.242996692657471 47.87923049926758 4.999996662139893 45.12223052978516 4.999996662139893 L 9.999991416931152 4.999996662139893 C 9.702411651611328 4.999996662139893 9.566591262817383 4.999996662139893 9.145151138305664 5.221476554870605 C 8.338611602783203 5.645336627960205 7.095991611480713 6.609536647796631 5.45181131362915 8.087276458740234 C 1.456611394882202 11.6780366897583 -5.025768756866455 18.34663581848145 -16.79370880126953 30.45267677307129 C -23.9503173828125 37.81490325927734 -32.69958877563477 46.81553649902344 -43.98842239379883 58.3167724609375 C -34.69038772583008 67.77243804931641 -27.02619552612305 75.61246490478516 -20.73444938659668 82.04855346679688 C -7.183128356933594 95.91075897216797 0.2815914452075958 103.5467529296875 4.782511234283447 107.6044769287109 C 6.687251567840576 109.3216552734375 8.060951232910156 110.3955154418945 8.982091903686523 110.8873977661133 C 9.48375129699707 111.1552734375 9.64553165435791 111.1552734375 9.999991416931152 111.1552734375 L 45.12223052978516 111.1552734375 M 45.12223052978516 116.1552734375 L 9.999991416931152 116.1552734375 C 4.477151393890381 116.1552734375 1.730591416358948 111.8795394897461 -50.9999885559082 58.31969833374023 C 1.730591416358948 4.678576946258545 4.477151393890381 -3.281249973952072e-06 9.999991416931152 -3.281249973952072e-06 L 45.12223052978516 -3.281249973952072e-06 C 50.64507293701172 -3.281249973952072e-06 55.12223052978516 4.477156639099121 55.12223052978516 9.999997138977051 L 55.12223052978516 106.1552734375 C 55.12223052978516 111.6781158447266 50.64507293701172 116.1552734375 45.12223052978516 116.1552734375 Z"/>
        </g>
      </g>
      <g id="knight-5" data-name="knight">
        <g id="knight-6" data-name="knight" class="cls-3" transform="translate(661 478)">
          <path class="cls-6" d="M10,0H202a10,10,0,0,1,10,10V50.508H116.046L212,146.6V490a10,10,0,0,1-10,10H10A10,10,0,0,1,0,490V10A10,10,0,0,1,10,0Z"/>
          <path class="cls-8" d="M 202 495 C 204.7570037841797 495 207 492.7569885253906 207 490 L 207 148.6712646484375 L 112.5080032348633 54.04133224487305 L 103.9875335693359 45.50839996337891 L 116.0461349487305 45.50839996337891 L 207 45.50839996337891 L 207 10 C 207 7.243000030517578 204.7570037841797 5 202 5 L 10 5 C 7.243000030517578 5 5 7.243000030517578 5 10 L 5 490 C 5 492.7569885253906 7.243000030517578 495 10 495 L 202 495 M 202 500 L 10 500 C 4.477133274078369 500 0 495.5228576660156 0 490 L 0 10 C 0 4.477133274078369 4.477133274078369 0 10 0 L 202 0 C 207.5228729248047 0 212 4.477133274078369 212 10 L 212 50.50839996337891 L 116.0461349487305 50.50839996337891 L 212 146.6023406982422 L 212 490 C 212 495.5228576660156 207.5228729248047 500 202 500 Z"/>
        </g>
      </g>
      <g id="rook-5" data-name="rook">
        <g id="rook-6" data-name="rook" class="cls-3" transform="translate(349 528)">
          <path class="cls-6" d="M10,0H72.647V62.081h66.788V0H202a10,10,0,0,1,10,10V440a10,10,0,0,1-10,10H10A10,10,0,0,1,0,440V10A10,10,0,0,1,10,0Z"/>
          <path class="cls-8" d="M 202 445 C 204.7570037841797 445 207 442.7569885253906 207 440 L 207 10 C 207 7.243000030517578 204.7570037841797 5 202 5 L 144.4349365234375 5 L 144.4349365234375 62.08124923706055 L 144.4349365234375 67.08125305175781 L 139.4349365234375 67.08125305175781 L 72.64656066894531 67.08125305175781 L 67.64656066894531 67.08125305175781 L 67.64656066894531 62.08124923706055 L 67.64656066894531 5 L 10 5 C 7.243000030517578 5 5 7.243000030517578 5 10 L 5 440 C 5 442.7569885253906 7.243000030517578 445 10 445 L 202 445 M 202 450 L 10 450 C 4.47712516784668 450 0 445.5228881835938 0 440 L 0 10 C 0 4.477187633514404 4.47712516784668 0 10 0 L 72.64656066894531 0 L 72.64656066894531 62.08124923706055 L 139.4349365234375 62.08124923706055 L 139.4349365234375 0 L 202 0 C 207.5228729248047 0 212 4.477187633514404 212 10 L 212 440 C 212 445.5228881835938 207.5228729248047 450 202 450 Z"/>
        </g>
      </g>
      <g id="pawn-5" data-name="pawn">
        <g id="pawn-6" data-name="pawn" class="cls-2" transform="translate(37 578)">
          <rect class="cls-6" width="212" height="400" rx="10"/>
          <rect class="cls-7" x="2.5" y="2.5" width="207" height="395" rx="7.5"/>
        </g>
      </g>
    </g>
    <g id="Variante4" transform="translate(0 1961)">
      <g id="king-7" data-name="king">
        <g id="king-8" data-name="king" class="cls-3" transform="translate(1597 378)">
          <path class="cls-6" d="M67.736,26V-50h76.974V26L212,60V590a10,10,0,0,1-10,10H10A10,10,0,0,1,0,590V60Z"/>
          <path class="cls-8" d="M 202 595 C 204.7570037841797 595 207 592.7570190429688 207 590 L 207 63.07561492919922 L 142.4544219970703 30.46266746520996 L 139.7092437744141 29.0756664276123 L 139.7092437744141 26 L 139.7092437744141 -45 L 72.73558044433594 -45 L 72.73558044433594 26 L 72.73558044433594 29.08474922180176 L 69.97866821289063 30.46866607666016 L 5 63.0848274230957 L 5 590 C 5 592.7570190429688 7.243000030517578 595 10 595 L 202 595 M 202 600 L 10 600 C 4.477166652679443 600 1.4210854715202e-14 595.5228271484375 1.4210854715202e-14 590 L 1.4210854715202e-14 60 L 67.73558044433594 26 L 67.73558044433594 -50 L 144.7092437744141 -50 L 144.7092437744141 26 L 212 60 L 212 590 C 212 595.5228271484375 207.5228271484375 600 202 600 Z"/>
        </g>
      </g>
      <g id="queen-7" data-name="queen">
        <g id="queen-8" data-name="queen" class="cls-3" transform="translate(1285 378)">
          <path class="cls-6" d="M67.736,50V0h76.974V50L212,60V590a10,10,0,0,1-10,10H10A10,10,0,0,1,0,590V60Z"/>
          <path class="cls-8" d="M 202 595 C 204.7570037841797 595 207 592.7570190429688 207 590 L 207 64.31185150146484 L 143.9742431640625 54.9456672668457 L 139.7092437744141 54.31183242797852 L 139.7092437744141 50 L 139.7092437744141 5 L 72.73558044433594 5 L 72.73558044433594 50 L 72.73558044433594 54.31600189208984 L 68.46583557128906 54.94641494750977 L 5 64.31606292724609 L 5 590 C 5 592.7570190429688 7.243000030517578 595 10 595 L 202 595 M 202 600 L 10 600 C 4.477166652679443 600 1.4210854715202e-14 595.5228271484375 1.4210854715202e-14 590 L 1.4210854715202e-14 60 L 67.73558044433594 50 L 67.73558044433594 5.684341886080801e-14 L 144.7092437744141 5.684341886080801e-14 L 144.7092437744141 50 L 212 60 L 212 590 C 212 595.5228271484375 207.5228271484375 600 202 600 Z"/>
        </g>
      </g>
      <g id="bishop-7" data-name="bishop">
        <g id="Vereinigungsmenge_1" data-name="Vereinigungsmenge 1" class="cls-3" transform="translate(991 -0.439)">
          <path class="cls-6" d="M-8,978.439a10,10,0,0,1-10-10v-474a10,10,0,0,1,10-10H31.13c3.807-5.616,16.358-17.161,56.253-56.438,39.956,39.277,52.745,50.822,56.671,56.438H184a10,10,0,0,1,10,10v474a10,10,0,0,1-10,10Z"/>
          <path class="cls-8" d="M 183.9996337890625 973.4385986328125 C 186.7570648193359 973.4385986328125 189.0004272460938 971.1956787109375 189.0004272460938 968.438720703125 L 189.0004272460938 494.4393310546875 C 189.0004272460938 491.6818542480469 186.7570648193359 489.4384765625 183.9996337890625 489.4384765625 L 144.0534973144531 489.4384765625 L 141.4478454589844 489.4384765625 L 139.9552001953125 487.3027648925781 C 137.5984954833984 483.9307556152344 130.5961303710938 477.1239929199219 115.2536315917969 462.210205078125 C 107.8902740478516 455.0525207519531 98.88982391357422 446.3035278320313 87.38567352294922 435.011962890625 C 77.92924499511719 444.3106384277344 70.08856964111328 451.9754333496094 63.65213394165039 458.2674255371094 C 45.3252067565918 476.1831970214844 37.73942184448242 483.5987548828125 35.26820755004883 487.2440490722656 L 33.78063583374023 489.4384765625 L 31.12956237792969 489.4384765625 L -8.000080108642578 489.4384765625 C -10.757080078125 489.4384765625 -13.00000858306885 491.6818542480469 -13.00000858306885 494.4393310546875 L -13.00000858306885 968.438720703125 C -13.00000858306885 971.1956787109375 -10.757080078125 973.4385986328125 -8.000080108642578 973.4385986328125 L 183.9996337890625 973.4385986328125 M 183.9996337890625 978.4385986328125 L -8.000080108642578 978.4385986328125 C -13.52250862121582 978.4385986328125 -18.00000762939453 973.9620361328125 -18.00000762939453 968.438720703125 L -18.00000762939453 494.4393310546875 C -18.00000762939453 488.9160461425781 -13.52250862121582 484.4384765625 -8.000080108642578 484.4384765625 L 31.12956237792969 484.4384765625 C 34.93692016601563 478.8220520019531 47.48749160766602 467.2776184082031 87.38277435302734 428.0003967285156 C 127.338493347168 467.2776184082031 140.1281280517578 478.8220520019531 144.0534973144531 484.4384765625 L 183.9996337890625 484.4384765625 C 189.5229187011719 484.4384765625 194.0004272460938 488.9160461425781 194.0004272460938 494.4393310546875 L 194.0004272460938 968.438720703125 C 194.0004272460938 973.9620361328125 189.5229187011719 978.4385986328125 183.9996337890625 978.4385986328125 Z"/>
        </g>
      </g>
      <g id="knight-7" data-name="knight">
        <g id="knight-8" data-name="knight" class="cls-3" transform="translate(661 478)">
          <path class="cls-6" d="M212,0V50.508L113.043,146.6H212V490a10,10,0,0,1-10,10H10A10,10,0,0,1,0,490L-.119,50.508S212-5.523,212,0Z"/>
          <path class="cls-8" d="M 202.0000305175781 495.0000305175781 C 204.7570190429688 495.0000305175781 207.0000305175781 492.7570495605469 207.0000305175781 490.0000305175781 L 207.0000305175781 151.6023101806641 L 113.0434265136719 151.6023101806641 L 100.7172927856445 151.6023101806641 L 109.5601577758789 143.0152435302734 L 207.0000305175781 48.39416122436523 L 207.0000305175781 4.986781597137451 C 204.9532623291016 5.283208847045898 201.9030151367188 5.80479907989502 197.3608856201172 6.707637786865234 C 190.7760314941406 8.016504287719727 181.9743499755859 9.944904327392578 171.2004852294922 12.43923759460449 C 153.001220703125 16.65277099609375 128.9451599121094 22.53037071228027 99.70055389404297 29.90890502929688 C 57.8659782409668 40.46399688720703 17.1485595703125 51.13565063476563 4.882001876831055 54.36172103881836 L 5.00002384185791 490.0000305175781 C 5.00002384185791 492.7570495605469 7.243023872375488 495.0000305175781 10.00002384185791 495.0000305175781 L 202.0000305175781 495.0000305175781 M 202.0000305175781 500.0000305175781 L 10.00002384185791 500.0000305175781 C 4.477157592773438 500.0000305175781 2.405598934274167e-05 495.5228271484375 2.405598934274167e-05 490.0000305175781 L -0.1190426126122475 50.50836944580078 C -0.1190426126122475 50.50836944580078 192.5321807861328 -0.382975697517395 210.6401214599609 -0.382975697517395 C 211.5331115722656 -0.382975697517395 212.0000305175781 -0.2595207095146179 212.0000305175781 3.783365900744684e-05 L 212.0000305175781 50.50836944580078 L 113.0434265136719 146.6023101806641 L 212.0000305175781 146.6023101806641 L 212.0000305175781 490.0000305175781 C 212.0000305175781 495.5228271484375 207.5228271484375 500.0000305175781 202.0000305175781 500.0000305175781 Z"/>
        </g>
      </g>
      <g id="rook-7" data-name="rook">
        <g id="rook-8" data-name="rook" class="cls-3" transform="translate(349 528)">
          <path class="cls-6" d="M10,0H72.647V62.081h66.788V0H202a10,10,0,0,1,10,10V440a10,10,0,0,1-10,10H10A10,10,0,0,1,0,440V10A10,10,0,0,1,10,0Z"/>
          <path class="cls-8" d="M 202 445 C 204.7570037841797 445 207 442.7569885253906 207 440 L 207 10 C 207 7.243000030517578 204.7570037841797 5 202 5 L 144.4349365234375 5 L 144.4349365234375 62.08124923706055 L 144.4349365234375 67.08125305175781 L 139.4349365234375 67.08125305175781 L 72.64656066894531 67.08125305175781 L 67.64656066894531 67.08125305175781 L 67.64656066894531 62.08124923706055 L 67.64656066894531 5 L 10 5 C 7.243000030517578 5 5 7.243000030517578 5 10 L 5 440 C 5 442.7569885253906 7.243000030517578 445 10 445 L 202 445 M 202 450 L 10 450 C 4.47712516784668 450 0 445.5228881835938 0 440 L 0 10 C 0 4.477187633514404 4.47712516784668 0 10 0 L 72.64656066894531 0 L 72.64656066894531 62.08124923706055 L 139.4349365234375 62.08124923706055 L 139.4349365234375 0 L 202 0 C 207.5228729248047 0 212 4.477187633514404 212 10 L 212 440 C 212 445.5228881835938 207.5228729248047 450 202 450 Z"/>
        </g>
      </g>
      <g id="pawn-7" data-name="pawn">
        <g id="pawn-8" data-name="pawn" class="cls-2" transform="translate(37 578)">
          <rect class="cls-6" width="212" height="400" rx="10"/>
          <rect class="cls-7" x="2.5" y="2.5" width="207" height="395" rx="7.5"/>
        </g>
      </g>
    </g>
    <g id="Variante5" transform="translate(0 2711)">
      <g id="king-9" data-name="king">
        <g id="king-10" data-name="king" class="cls-3" transform="translate(1597 378)">
          <path class="cls-6" d="M67.736,26V-50h76.974V26L212,60V590a10,10,0,0,1-10,10H10A10,10,0,0,1,0,590V60Z"/>
          <path class="cls-8" d="M 202 595 C 204.7570037841797 595 207 592.7570190429688 207 590 L 207 63.07561492919922 L 142.4544219970703 30.46266746520996 L 139.7092437744141 29.0756664276123 L 139.7092437744141 26 L 139.7092437744141 -45 L 72.73558044433594 -45 L 72.73558044433594 26 L 72.73558044433594 29.08474922180176 L 69.97866821289063 30.46866607666016 L 5 63.0848274230957 L 5 590 C 5 592.7570190429688 7.243000030517578 595 10 595 L 202 595 M 202 600 L 10 600 C 4.477166652679443 600 1.4210854715202e-14 595.5228271484375 1.4210854715202e-14 590 L 1.4210854715202e-14 60 L 67.73558044433594 26 L 67.73558044433594 -50 L 144.7092437744141 -50 L 144.7092437744141 26 L 212 60 L 212 590 C 212 595.5228271484375 207.5228271484375 600 202 600 Z"/>
        </g>
      </g>
      <g id="queen-9" data-name="queen">
        <g id="queen-10" data-name="queen" class="cls-3" transform="translate(1285 378)">
          <path class="cls-6" d="M67.736,50V0h76.974V50L212,60V590a10,10,0,0,1-10,10H10A10,10,0,0,1,0,590V60Z"/>
          <path class="cls-8" d="M 202 595 C 204.7570037841797 595 207 592.7570190429688 207 590 L 207 64.31185150146484 L 143.9742431640625 54.9456672668457 L 139.7092437744141 54.31183242797852 L 139.7092437744141 50 L 139.7092437744141 5 L 72.73558044433594 5 L 72.73558044433594 50 L 72.73558044433594 54.31600189208984 L 68.46583557128906 54.94641494750977 L 5 64.31606292724609 L 5 590 C 5 592.7570190429688 7.243000030517578 595 10 595 L 202 595 M 202 600 L 10 600 C 4.477166652679443 600 1.4210854715202e-14 595.5228271484375 1.4210854715202e-14 590 L 1.4210854715202e-14 60 L 67.73558044433594 50 L 67.73558044433594 5.684341886080801e-14 L 144.7092437744141 5.684341886080801e-14 L 144.7092437744141 50 L 212 60 L 212 590 C 212 595.5228271484375 207.5228271484375 600 202 600 Z"/>
        </g>
      </g>
      <g id="bishop-8" data-name="bishop">
        <g id="Vereinigungsmenge_1-2" data-name="Vereinigungsmenge 1" class="cls-5" transform="translate(991 -0.439)">
          <path class="cls-6" d="M 183.9996795654297 975.939208984375 L -7.999969005584717 975.939208984375 C -10.11118316650391 975.939208984375 -12.07211208343506 975.3089599609375 -13.52168273925781 974.1644287109375 C -14.79739761352539 973.1571655273438 -15.49996852874756 971.8712158203125 -15.49996852874756 970.5435180664063 L -15.49996852874756 596.3054809570313 C -15.49996852874756 594.9779052734375 -14.79746913909912 593.692138671875 -13.52182579040527 592.6851806640625 C -12.07232570648193 591.5408935546875 -10.11132621765137 590.9107666015625 -7.999969005584717 590.9107666015625 L 29.54703140258789 590.9107666015625 L 32.04703140258789 590.9107666015625 L 32.04703140258789 588.4107666015625 L 32.04703140258789 527.474365234375 C 32.04703140258789 524.712158203125 32.36196136474609 522.3319702148438 36.57124710083008 514.7178344726563 C 40.70038986206055 507.2488098144531 48.36181640625 495.0353088378906 62.27024459838867 472.8631591796875 C 69.01724243164063 462.1073913574219 77.30796051025391 448.8907165527344 87.38457489013672 432.7247009277344 C 99.54959869384766 452.2081298828125 108.9741744995117 467.1477966308594 116.6279602050781 479.2804565429688 C 128.7832489013672 498.5487365722656 135.4789581298828 509.1626586914063 139.1458892822266 515.8160400390625 C 142.6170959472656 522.1144409179688 143.202880859375 524.5028686523438 143.202880859375 527.474365234375 L 143.202880859375 588.4107666015625 L 143.202880859375 590.9107666015625 L 145.702880859375 590.9107666015625 L 183.9996795654297 590.9107666015625 C 186.1113128662109 590.9107666015625 188.0724639892578 591.5408935546875 189.5217437744141 592.6851196289063 C 190.7971801757813 593.6920166015625 191.4996032714844 594.977783203125 191.4996032714844 596.3054809570313 L 191.4996032714844 970.5435180664063 C 191.4996032714844 971.8713989257813 190.7971038818359 973.1572875976563 189.5216064453125 974.16455078125 C 188.0722503662109 975.3089599609375 186.1111755371094 975.939208984375 183.9996795654297 975.939208984375 Z"/>
          <path class="cls-8" d="M 183.9996795654297 973.439208984375 C 186.8155364990234 973.439208984375 188.9996032714844 971.882568359375 188.9996032714844 970.5435180664063 L 188.9996032714844 596.3054809570313 C 188.9996032714844 594.966796875 186.8155364990234 593.4107666015625 183.9996795654297 593.4107666015625 L 145.702880859375 593.4107666015625 L 140.702880859375 593.4107666015625 L 140.702880859375 588.4107666015625 L 140.702880859375 527.474365234375 C 140.702880859375 525.2672119140625 140.4421081542969 523.3473510742188 136.9563903808594 517.0227661132813 C 133.3251037597656 510.4340209960938 126.6433868408203 499.8423156738281 114.5135345458984 480.6143188476563 C 107.3094177246094 469.1944885253906 98.53652191162109 455.287841796875 87.38648223876953 437.4465942382813 C 78.25748443603516 452.0816345214844 70.65723419189453 464.1976318359375 64.38803100585938 474.191650390625 C 50.50331878662109 496.3260192871094 42.85488891601563 508.5187377929688 38.75917434692383 515.9273681640625 C 34.83053207397461 523.0338134765625 34.54703140258789 525.030517578125 34.54703140258789 527.474365234375 L 34.54703140258789 588.4107666015625 L 34.54703140258789 593.4107666015625 L 29.54703140258789 593.4107666015625 L -7.999969005584717 593.4107666015625 C -10.81582641601563 593.4107666015625 -12.99996852874756 594.966796875 -12.99996852874756 596.3054809570313 L -12.99996852874756 970.5435180664063 C -12.99996852874756 971.882568359375 -10.81582641601563 973.439208984375 -7.999969005584717 973.439208984375 L 183.9996795654297 973.439208984375 M 183.9996795654297 978.439208984375 L -7.999969005584717 978.439208984375 C -13.5223970413208 978.439208984375 -17.99996948242188 974.904052734375 -17.99996948242188 970.5435180664063 L -17.99996948242188 596.3054809570313 C -17.99996948242188 591.9450073242188 -13.5223970413208 588.4107666015625 -7.999969005584717 588.4107666015625 L 29.54703140258789 588.4107666015625 L 29.54703140258789 527.474365234375 C 29.54703140258789 518.4680786132813 33.82303237915039 513.9896850585938 87.38288879394531 428.0000915527344 C 141.0238189697266 513.9896850585938 145.702880859375 518.4680786132813 145.702880859375 527.474365234375 L 145.702880859375 588.4107666015625 L 183.9996795654297 588.4107666015625 C 189.5230255126953 588.4107666015625 193.9996032714844 591.9450073242188 193.9996032714844 596.3054809570313 L 193.9996032714844 970.5435180664063 C 193.9996032714844 974.904052734375 189.5230255126953 978.439208984375 183.9996795654297 978.439208984375 Z"/>
        </g>
      </g>
      <g id="knight-9" data-name="knight">
        <g id="knight-10" data-name="knight" class="cls-3" transform="translate(661 478)">
          <path class="cls-6" d="M211.792,0,212,50.508,111.685,76.637,212,285.772V490a10,10,0,0,1-10,10H10A10,10,0,0,1,0,490L-.119,50.508Z"/>
          <path class="cls-8" d="M 202.0000305175781 495 C 204.7570190429688 495 207.0000305175781 492.7569885253906 207.0000305175781 490 L 207.0000305175781 286.9095764160156 L 107.1767578125 78.79933166503906 L 104.5522918701172 73.32793426513672 L 110.424690246582 71.79840087890625 L 206.9841461181641 46.6480712890625 L 206.8184051513672 6.325581550598145 L 4.882027149200439 54.45645141601563 L 5.00002384185791 490 C 5.00002384185791 492.7569885253906 7.243023872375488 495 10.00002384185791 495 L 202.0000305175781 495 M 202.0000305175781 500 L 10.00002384185791 500 C 4.477157592773438 500 2.405598934274167e-05 495.5228576660156 2.405598934274167e-05 490 L -0.1190426126122475 50.50839996337891 L 211.7924194335938 0 L 212.0000305175781 50.50839996337891 L 111.6849594116211 76.63693237304688 L 212.0000305175781 285.7724609375 L 212.0000305175781 490 C 212.0000305175781 495.5228576660156 207.5228271484375 500 202.0000305175781 500 Z"/>
        </g>
      </g>
      <g id="rook-9" data-name="rook">
        <g id="rook-10" data-name="rook" class="cls-3" transform="translate(349 528)">
          <path class="cls-6" d="M10,0H72.647V62.081h66.788V0H202a10,10,0,0,1,10,10V440a10,10,0,0,1-10,10H10A10,10,0,0,1,0,440V10A10,10,0,0,1,10,0Z"/>
          <path class="cls-8" d="M 202 445 C 204.7570037841797 445 207 442.7569885253906 207 440 L 207 10 C 207 7.243000030517578 204.7570037841797 5 202 5 L 144.4349365234375 5 L 144.4349365234375 62.08124923706055 L 144.4349365234375 67.08125305175781 L 139.4349365234375 67.08125305175781 L 72.64656066894531 67.08125305175781 L 67.64656066894531 67.08125305175781 L 67.64656066894531 62.08124923706055 L 67.64656066894531 5 L 10 5 C 7.243000030517578 5 5 7.243000030517578 5 10 L 5 440 C 5 442.7569885253906 7.243000030517578 445 10 445 L 202 445 M 202 450 L 10 450 C 4.47712516784668 450 0 445.5228881835938 0 440 L 0 10 C 0 4.477187633514404 4.47712516784668 0 10 0 L 72.64656066894531 0 L 72.64656066894531 62.08124923706055 L 139.4349365234375 62.08124923706055 L 139.4349365234375 0 L 202 0 C 207.5228729248047 0 212 4.477187633514404 212 10 L 212 440 C 212 445.5228881835938 207.5228729248047 450 202 450 Z"/>
        </g>
      </g>
      <g id="pawn-9" data-name="pawn">
        <g id="pawn-10" data-name="pawn" class="cls-2" transform="translate(37 578)">
          <rect class="cls-6" width="212" height="400" rx="10"/>
          <rect class="cls-7" x="2.5" y="2.5" width="207" height="395" rx="7.5"/>
        </g>
      </g>
    </g>
  </g>
</svg>
