<?xml version="1.0" encoding="utf-8"?>
<!-- Generator: Adobe Illustrator 22.0.1, SVG Export Plug-In . SVG Version: 6.00 Build 0)  -->
<svg version="1.1" id="Ebene_1" xmlns="http://www.w3.org/2000/svg" xmlns:xlink="http://www.w3.org/1999/xlink" x="0px" y="0px"
	 viewBox="0 0 1920 1080" style="enable-background:new 0 0 1920 1080;" xml:space="preserve">
<style type="text/css">
	.st0{clip-path:url(#SVGID_2_);}
</style>
<image style="overflow:visible;" width="600" height="600" xlink:href="Figuren.jpg"  transform="matrix(1 0 0 1 605 -90)">
</image>
<image style="overflow:visible;" width="700" height="525" xlink:href="Feld und Figuren1.jpg"  transform="matrix(1 0 0 1 1216 -62)">
</image>
<image style="overflow:visible;" width="1000" height="667" xlink:href="Feld5.jpg"  transform="matrix(1 0 0 1 926 425)">
</image>
<image style="overflow:visible;" width="275" height="183" xlink:href="Feld2.jpg"  transform="matrix(1 0 0 1 190 62)">
</image>
<image style="overflow:visible;" width="900" height="530" xlink:href="Feld und Figuren.jpg"  transform="matrix(0.75 0 0 0.75 -10 289)">
</image>
<g>
	<defs>
		<rect id="SVGID_1_" x="665" y="425" width="480" height="262"/>
	</defs>
	<clipPath id="SVGID_2_">
		<use xlink:href="#SVGID_1_"  style="overflow:visible;"/>
	</clipPath>
	<g class="st0">
		<defs>
			<rect id="SVGID_3_" x="657" y="374" width="496" height="365"/>
		</defs>
		<clipPath id="SVGID_4_">
			<use xlink:href="#SVGID_3_"  style="overflow:visible;"/>
		</clipPath>
		<g style="clip-path:url(#SVGID_4_);">
			
				<image style="overflow:visible;" width="480" height="360" xlink:href="Feld4.jpg"  transform="matrix(1.0333 0 0 1.014 656.976 373.9353)">
			</image>
		</g>
	</g>
</g>
<g>
	<defs>
		<rect id="SVGID_5_" x="-10" y="687" width="958" height="404"/>
	</defs>
	<clipPath id="SVGID_6_">
		<use xlink:href="#SVGID_5_"  style="overflow:visible;"/>
	</clipPath>
	<g transform="matrix(1 0 0 1 0 0)" style="clip-path:url(#SVGID_6_);">
		
			<image style="overflow:visible;" width="1000" height="732" xlink:href="Feld7.jpg"  transform="matrix(1 0 0 0.9344 -32 419.998)">
		</image>
	</g>
</g>
</svg>
